{
  "asset": {
    "version": "2.0",
    "generator": "babylon.js glTF exporter for 3dsmax 2023 v20240312.5"
  },
  "scene": 0,
  "scenes": [
    {
      "nodes": [
        0,
        1,
        2,
        3
      ]
    }
  ],
  "nodes": [
    {
      "translation": [
        43.5746536,
        22.9041729,
        19.9607143
      ],
      "name": "Camera001.Target"
    },
    {
      "mesh": 0,
      "name": "thermohygrostat"
    },
    {
      "camera": 0,
      "translation": [
        158.4808,
        100.910324,
        174.680176
      ],
      "rotation": [
        -0.181453109,
        0.308207184,
        0.06001044,
        0.931923747
      ],
      "scale": [
        1.0,
        0.99999994,
        1.0
      ],
      "name": "Camera001"
    },
    {
      "camera": 1,
      "translation": [
        2.90195012,
        1881.22241,
        -10.9747734
      ],
      "rotation": [
        -0.707106769,
        0.0,
        0.0,
        0.707106769
      ],
      "name": "Camera002"
    }
  ],
  "cameras": [
    {
      "perspective": {
        "yfov": 0.361177176,
        "zfar": 10000.0,
        "znear": 0.1
      },
      "type": "perspective",
      "name": "Camera001"
    },
    {
      "perspective": {
        "yfov": 0.0506141931,
        "zfar": 10000.0,
        "znear": 0.1
      },
      "type": "perspective",
      "name": "Camera002"
    }
  ],
  "meshes": [
    {
      "primitives": [
        {
          "attributes": {
            "POSITION": 1,
            "NORMAL": 2,
            "TEXCOORD_0": 3
          },
          "indices": 0,
          "material": 0
        }
      ],
      "name": "thermohygrostat"
    }
  ],
  "accessors": [
    {
      "bufferView": 0,
      "componentType": 5123,
      "count": 30,
      "type": "SCALAR",
      "name": "accessorIndices"
    },
    {
      "bufferView": 1,
      "componentType": 5126,
      "count": 20,
      "max": [
        1.7,
        1.54999959,
        0.699995339
      ],
      "min": [
        -1.7,
        -1.55000031,
        -0.6999951
      ],
      "type": "VEC3",
      "name": "accessorPositions"
    },
    {
      "bufferView": 1,
      "byteOffset": 240,
      "componentType": 5126,
      "count": 20,
      "type": "VEC3",
      "name": "accessorNormals"
    },
    {
      "bufferView": 2,
      "componentType": 5126,
      "count": 20,
      "type": "VEC2",
      "name": "accessorUVs"
    }
  ],
  "bufferViews": [
    {
      "buffer": 0,
      "byteLength": 60,
      "name": "bufferViewScalar"
    },
    {
      "buffer": 0,
      "byteOffset": 60,
      "byteLength": 480,
      "byteStride": 12,
      "name": "bufferViewFloatVec3"
    },
    {
      "buffer": 0,
      "byteOffset": 540,
      "byteLength": 160,
      "byteStride": 8,
      "name": "bufferViewFloatVec2"
    }
  ],
  "buffers": [
    {
      "uri": "thermohygrostat.bin",
      "byteLength": 700
    }
  ],
  "materials": [
    {
      "pbrMetallicRoughness": {
        "baseColorTexture": {
          "index": 0
        },
        "metallicFactor": 0.0,
        "roughnessFactor": 0.0
      },
      "doubleSided": true,
      "name": "Material #342541196",
      "extras": {
        "babylonSeparateCullingPass": false
      }
    }
  ],
  "textures": [
    {
      "sampler": 0,
      "source": 0,
      "name": "SAC_228A.jpg"
    }
  ],
  "images": [
    {
      "uri": "maps/SAC_228A.jpg"
    }
  ],
  "samplers": [
    {
      "magFilter": 9729,
      "minFilter": 9987
    }
  ]
}