<svg preserveAspectRatio="none" width="100%" height="100%" overflow="visible" style="display: block;" viewBox="0 0 279.621 63" fill="none" xmlns="http://www.w3.org/2000/svg">
<g id="logo">
<path id="Vector" d="M36.6667 57.6596C36.6667 57.6596 37.1667 58.3272 37.5 58.4941C38 58.8278 38.5 58.8278 38.8333 58.4941C39.1667 58.3272 42.8333 56.1576 42.8333 56.1576L52.3334 50.6503C55.1667 48.9815 57 45.8106 57 42.4729V20.4437C57 17.106 55.1667 13.9351 52.3334 12.2662L33.1667 1.25166C30.3333 -0.417219 26.6667 -0.417219 23.8333 1.25166L4.66665 12.2662C1.83331 13.9351 0 17.106 0 20.4437V42.4729C0 45.8106 1.83331 48.9815 4.66665 50.6503L23.8333 61.6649C25.3333 62.4994 26.8333 63 28.5 63C30.1666 63 30.3333 62.8331 31.3333 62.4994C31.5 62.4994 31.6667 62.4993 31.6667 62.1656V61.8318V61.498L29.1667 56.4914C28.8333 55.9907 28 55.4901 27.6666 55.3232L8.49996 44.3086C7.8333 43.9749 7.5 43.3073 7.5 42.4729V25.951H26.8333C27.3333 25.951 27.8333 25.951 28.3333 25.951C28.8333 25.951 29.3333 25.951 29.8333 25.951C30.5 25.951 31.1667 26.1179 31.6667 26.4517C32.3334 26.7854 32.8333 27.1192 33.1667 27.6199C33.6667 28.1206 33.8334 28.4543 34.1667 28.955C34.3334 29.6225 34.5 30.1232 34.5 30.7907C34.5 31.4583 34.5 31.7921 34.1667 32.2927C34 32.9603 33.6667 33.4609 33.1667 33.7947C32.8333 34.2954 32.3334 34.6292 31.6667 34.9629C31.1667 35.2967 30.5 35.4636 29.8333 35.4636C29.5 35.4636 29.3333 35.4636 29 35.4636H26.1667L35 53.8212C35 53.8212 36.5 56.9921 36.6667 57.3258V57.6596ZM49.6667 42.8066C49.6667 43.4742 49.3333 44.1417 48.6667 44.6424L41 49.649L36.5 39.9696C37.3333 39.4689 37.6667 39.302 38.3334 38.6344C39 37.9669 39.6666 37.2993 40.1666 36.4649C40.6666 35.6305 41 34.796 41.3333 33.9616C41.6667 32.9603 41.8333 32.1258 41.8333 31.1245C41.8333 29.6225 41.5 28.2874 41 26.9523C40.5 25.6172 39.6667 24.6159 38.6667 23.6146C37.6667 22.6132 36.6667 21.9457 35.3333 21.2781C34 20.7775 32.6667 20.4437 31.1667 20.4437H7.16665C7.16665 20.4437 7.16665 20.11 7.16665 19.9431L7.33333 19.6093L27.5 7.76025C27.8333 7.59337 28.1666 7.42651 28.5 7.42651C28.8333 7.42651 29.1667 7.42648 29.5 7.76025L48.6667 18.7748C49.3333 19.1086 49.6667 19.7762 49.6667 20.6106V42.6398V42.8066Z" fill="var(--fill-0, white)"/>
<g id="Group">
<path id="Vector_2" d="M95.3775 49.1901V13.4761H120.577V20.4854H103.054V26.994H116.405V34.0033H103.054V42.0139H120.577V49.0232H95.2106L95.3775 49.1901Z" fill="var(--fill-0, white)"/>
<path id="Vector_3" d="M149.282 49.1901L134.596 26.6603V49.1901H126.752V13.4761H135.097L149.783 36.8404V13.4761H157.626V49.1901H149.282Z" fill="var(--fill-0, white)"/>
<path id="Vector_4" d="M182.659 50.0245C170.143 50.0245 164.135 41.1795 164.135 31.5C164.135 21.8205 170.143 12.9755 182.659 12.9755C195.176 12.9755 201.184 21.8205 201.184 31.5C201.184 41.1795 195.176 50.0245 182.659 50.0245ZM193.173 31.5C193.173 25.4921 189.502 20.1516 182.659 20.1516C175.817 20.1516 172.146 25.6589 172.146 31.5C172.146 37.3411 175.817 42.8483 182.659 42.8483C189.502 42.8483 193.173 37.3411 193.173 31.5Z" fill="var(--fill-0, white)"/>
<path id="Vector_5" d="M206.858 49.1901V13.4761H219.875C231.224 13.4761 232.726 18.6496 232.726 21.8205C232.726 24.9914 230.89 28.3291 226.885 29.6642C230.055 30.3318 234.728 32.1675 234.728 38.6761C234.728 45.1847 230.055 49.1901 220.543 49.1901H206.858ZM221.044 27.8285C224.548 27.8285 226.05 25.9927 226.05 23.6563C226.05 21.3198 224.715 19.651 221.044 19.651H213.7V27.8285H221.044ZM221.878 43.1821C226.384 43.1821 227.552 41.0126 227.552 38.6761C227.552 36.3397 226.384 34.1702 221.878 34.1702H213.867V43.349H221.878V43.1821Z" fill="var(--fill-0, white)"/>
<path id="Vector_6" d="M240.069 49.1901V13.4761H247.078V49.1901H240.069Z" fill="var(--fill-0, white)"/>
<path id="Vector_7" d="M262.599 49.1901V20.6523H252.085V13.643H279.621V20.6523H269.274V49.1901H262.599Z" fill="var(--fill-0, white)"/>
<path id="Vector_8" d="M90.037 49.1901L82.8609 35.1715C83.6953 34.6708 84.5297 34.1702 85.3642 33.3358C86.0317 32.6682 86.6993 31.8337 87.3668 30.9993C87.8675 30.1649 88.3682 29.1636 88.7019 28.1623C89.0357 27.1609 89.2026 26.1596 89.2026 24.9914C89.2026 23.4894 88.8688 21.9874 88.3681 20.4854C87.7006 19.1503 86.8661 17.8152 85.8648 16.8139C84.8635 15.8126 83.5284 14.9781 82.1933 14.3106C80.8582 13.643 79.3562 13.4761 77.6874 13.4761H61.9999V19.4841H69.0092H72.0132H73.6821C74.1827 19.4841 74.8503 19.4841 75.3509 19.4841C75.8516 19.4841 76.3523 19.4841 77.0198 19.4841C77.6874 19.4841 78.5218 19.651 79.0224 19.9848C79.69 20.3186 80.1906 20.6523 80.6913 21.153C81.192 21.6536 81.5258 22.3212 81.6926 22.8218C82.0264 23.4894 82.0264 24.157 82.0264 24.8245C82.0264 25.4921 82.0264 26.1596 81.6926 26.8271C81.5258 27.4947 81.0251 27.9953 80.6913 28.496C80.1906 28.9967 79.69 29.3305 79.0224 29.6642C78.3549 29.998 77.6874 30.1649 77.0198 30.1649C76.686 30.1649 76.3523 30.1649 76.1854 30.1649H73.1814L76.1854 36.1728L82.5271 48.5225H90.2039L90.037 49.1901Z" fill="var(--fill-0, white)"/>
</g>
</g>
</svg>
