<svg preserveAspectRatio="none" width="100%" height="100%" overflow="visible" style="display: block;" viewBox="0 0 190 190" fill="none" xmlns="http://www.w3.org/2000/svg">
<g id="Container">
<path id="Ellipse" d="M95 1C113.591 1 131.765 6.513 147.224 16.8419C162.682 27.1707 174.73 41.8515 181.845 59.0278C188.959 76.204 190.821 95.1043 187.194 113.338C183.567 131.573 174.614 148.322 161.468 161.468L142.857 142.857C152.322 133.392 158.768 121.332 161.38 108.204C163.991 95.0751 162.651 81.4669 157.528 69.1C152.406 56.7331 143.731 46.1629 132.601 38.7261C121.471 31.2894 108.386 27.32 95 27.32L95 1Z" fill="var(--fill-0, #14B8A6)" stroke="var(--stroke-0, #0E1130)" stroke-width="2"/>
<path id="Ellipse_2" d="M95 189C78.4995 189 62.2898 184.657 48 176.406L61.16 153.613C71.4487 159.553 83.1197 162.68 95 162.68L95 189Z" fill="var(--fill-0, #6366F1)" stroke="var(--stroke-0, #0E1130)" stroke-width="2"/>
<path id="Ellipse_3" d="M48 176.406C33.7102 168.156 21.8438 156.29 13.5936 142C5.34339 127.71 0.999999 111.5 1 95L27.32 95C27.32 106.88 30.4472 118.551 36.3874 128.84C42.3276 139.129 50.8713 147.672 61.16 153.613L48 176.406Z" fill="var(--fill-0, #CA3437)" stroke="var(--stroke-0, #0E1130)" stroke-width="2"/>
<path id="Ellipse_4" d="M1 95C1 82.6557 3.43138 70.4324 8.15533 59.0277C12.8793 47.6231 19.8033 37.2607 28.532 28.532L47.143 47.143C40.8584 53.4277 35.8731 60.8887 32.4718 69.1C29.0706 77.3113 27.32 86.1121 27.32 95L1 95Z" fill="var(--fill-0, #F2A832)" stroke="var(--stroke-0, #0E1130)" stroke-width="2"/>
<path id="Ellipse_5" d="M28.532 28.532C37.2607 19.8033 47.6231 12.8793 59.0278 8.15532C70.4324 3.43138 82.6557 1 95 1L95 27.32C86.1121 27.32 77.3113 29.0706 69.1 32.4718C60.8887 35.8731 53.4277 40.8583 47.143 47.143L28.532 28.532Z" fill="var(--fill-0, #FACC15)" stroke="var(--stroke-0, #0E1130)" stroke-width="2"/>
<path id="Ellipse_6" d="M161.468 161.468C143.84 179.096 119.93 189 95 189L95 162.68C112.95 162.68 130.165 155.549 142.857 142.857L161.468 161.468Z" fill="var(--fill-0, #3B82F6)" stroke="var(--stroke-0, #0E1130)" stroke-width="2"/>
</g>
</svg>
