<svg preserveAspectRatio="none" width="100%" height="100%" overflow="visible" style="display: block;" viewBox="0 0 424 216.332" fill="none" xmlns="http://www.w3.org/2000/svg">
<g id="Group 10">
<rect id="Rectangle 340" y="0.332031" width="424" height="216" fill="var(--fill-0, #0E1130)" fill-opacity="0.5"/>
<line id="Line 57" x1="4.37114e-08" y1="116.832" x2="424" y2="116.832" stroke="var(--stroke-0, #A6A6A6)" stroke-opacity="0.5"/>
<g id="Vector 9">
<path d="M0 216.332V188.521L3.77822 181.464L5.03762 189.351H7.97624V193.502L10.495 192.257V198.068L11.7545 194.747V195.162L13.4337 199.728L14.2733 195.992L17.2119 200.558L19.3109 195.992L20.5703 201.389L21.8297 197.238L24.3485 201.389L25.6079 198.068L26.8673 203.049L28.5465 199.728L29.8059 204.294L31.0653 202.219L32.7446 205.124V202.219L34.4238 205.124L35.2634 203.049L36.5228 205.955L37.3624 202.219L39.4614 207.615V203.049L40.7208 207.615L41.9802 205.124L43.6594 208.445V205.124L44.9188 206.785L46.598 203.879V205.955L47.8574 205.124L49.5366 209.691L50.3762 205.955L52.4752 209.691L53.3148 204.294L53.7347 208.445L54.5743 205.124L56.6733 208.445V203.879L59.6119 208.445V205.124L61.2911 209.691L62.9703 205.955L63.8099 210.936V205.955L66.3287 211.766L67.5881 206.785L70.1069 209.691L71.3663 205.955L72.2059 209.691L75.5644 206.785L76.404 209.691L77.2436 205.955L79.3426 209.691V206.785L80.1822 208.445L81.0218 206.785L82.2812 208.445V205.955L83.5406 208.445V205.124L86.4792 208.445V205.124L88.5782 208.445V203.049L90.6772 205.955V203.049L92.3564 203.879L93.196 199.728L95.2951 201.389V199.728L96.9743 200.558V198.068L98.6535 199.728V197.238L99.9129 198.898V195.162L102.012 199.728C102.292 197.238 102.935 192.091 103.271 191.426C103.607 190.762 104.251 194.194 104.531 195.992L107.05 189.351L107.889 192.257L109.988 186.86L110.828 190.596L112.507 185.615L114.606 188.521L115.865 183.955L117.125 185.615L117.964 181.049L120.483 183.955L121.323 181.049L123.422 183.955V180.219L124.681 182.709L125.101 165.691L127.2 170.257L127.62 165.691L129.299 170.672L130.139 166.521L132.238 172.747V168.596L133.497 170.672L134.756 165.691L136.016 168.596L137.275 162.785L138.954 167.351L139.794 163.615L141.053 165.691V157.804L142.733 161.124V152.408L144.832 154.483L146.931 140.37L149.03 151.577L151.129 148.672V143.691L152.808 146.596V142.445L154.067 144.521V140.37L155.327 138.709V134.558L157.006 137.464V134.558H159.105V107.162L160.784 114.634L161.624 105.917L162.883 110.068L163.723 105.917L164.562 108.408L165.822 105.917L167.081 110.898L168.76 105.917L170.02 110.068L171.699 106.747L172.539 109.238L174.218 105.087L174.638 107.162L176.317 105.087L178.416 106.747L180.095 92.2188V95.9547L181.774 92.2188L183.873 98.4452L185.133 92.2188L185.972 98.4452L188.071 88.8981L189.75 92.2188L191.01 96.7849V93.8792L193.529 96.7849L195.628 84.332L197.727 93.8792L199.406 88.8981L200.665 96.7849L201.505 91.3886L203.604 99.2754L204.444 95.9547L205.283 100.936L207.382 96.7849V103.011L209.061 95.9547L209.901 103.426L211.16 95.9547L212.84 105.917L213.679 103.011L215.778 105.087L216.618 103.011L218.297 96.7849L219.976 113.389L222.495 110.068L224.174 113.389L225.014 110.068L227.113 113.389L230.051 103.426L231.311 107.162L232.99 103.011L234.669 105.917L236.349 96.7849L238.867 103.011L239.287 99.2754L242.226 102.181V99.6905L245.164 103.426L246.004 98.0301L248.943 103.426V93.8792L250.202 98.0301L251.042 95.1245L253.98 100.936V95.9547L256.919 99.2754L257.758 95.1245L260.277 99.2754L260.697 95.9547L261.956 99.6905L262.796 95.9547L264.475 99.6905L267.414 90.5584V95.1245L270.772 91.8037V98.0301L272.451 93.049L274.131 98.0301L276.23 95.1245V98.0301L277.909 93.8792V99.6905L280.008 95.9547V100.936L281.687 95.9547L283.366 100.936V95.1245L284.206 102.596L286.725 98.0301L289.663 105.087V99.6905L294.701 105.087V102.596L297.64 108.408L298.479 104.257L300.158 109.653L300.998 105.917L304.356 111.728V108.408L307.295 115.049V111.728L308.974 115.049L310.234 114.219L311.073 118.37L312.333 115.049L313.592 121.275L314.432 119.615L315.271 123.351L316.951 120.445L319.049 125.426L321.149 111.728L323.248 119.615L324.087 112.558L323.248 127.917L324.087 126.257L326.186 129.992L327.446 114.219L329.964 123.351V119.615L332.483 123.351L333.743 120.445L334.582 127.917L333.743 134.558L334.582 130.823V135.804L335.842 130.823V139.124L336.681 134.558L337.941 141.615L338.36 137.049L339.2 143.691L340.04 139.124L340.459 145.351L340.879 141.2C341.299 142.722 342.139 145.683 342.139 145.351C342.139 145.019 342.418 142.999 342.558 142.03L344.238 147.426V143.275L345.917 147.841V142.03L346.756 149.087L347.596 143.691L348.436 149.087L349.275 144.521L349.695 149.087L350.954 144.936L352.214 150.747V147.426L353.473 150.747V147.426L355.572 151.992V147.841L357.671 152.408L358.091 148.672L359.35 151.992V147.841L361.449 151.992L361.869 147.841L363.549 152.823L364.808 148.672L366.487 152.823L367.327 149.087L369.006 152.408L369.426 149.917L370.685 153.653L372.364 150.747V153.653L374.463 149.917V155.313L375.723 152.408L376.562 155.728L377.402 152.823L379.501 157.389V153.653L380.76 155.728L381.18 153.653L382.44 156.143L383.279 152.408L384.119 156.143L384.958 154.483L386.218 159.879L386.638 155.728L388.317 160.294L389.156 155.728L390.836 161.124L392.515 157.389L393.354 163.2L395.034 158.634L396.293 164.445V159.464L398.812 165.691L399.232 161.54L400.911 167.351L401.75 163.2L403.43 167.766L405.109 164.445L405.529 169.426L407.208 165.691L408.048 169.841L409.307 167.351L410.147 170.257L411.406 173.577V169.426L413.085 175.238L413.505 171.087L416.024 177.313V172.747L417.703 178.974L418.543 176.483L420.642 184.37L421.061 177.313L423.16 184.37L424 181.879V216.332H0Z" fill="var(--fill-0, #6484F7)" fill-opacity="0.8"/>
<path d="M0 216.332V188.521L3.77822 181.464L5.03762 189.351H7.97624V193.502L10.495 192.257V198.068L11.7545 194.747V195.162L13.4337 199.728L14.2733 195.992L17.2119 200.558L19.3109 195.992L20.5703 201.389L21.8297 197.238L24.3485 201.389L25.6079 198.068L26.8673 203.049L28.5465 199.728L29.8059 204.294L31.0653 202.219L32.7446 205.124V202.219L34.4238 205.124L35.2634 203.049L36.5228 205.955L37.3624 202.219L39.4614 207.615V203.049L40.7208 207.615L41.9802 205.124L43.6594 208.445V205.124L44.9188 206.785L46.598 203.879V205.955L47.8574 205.124L49.5366 209.691L50.3762 205.955L52.4752 209.691L53.3148 204.294L53.7347 208.445L54.5743 205.124L56.6733 208.445V203.879L59.6119 208.445V205.124L61.2911 209.691L62.9703 205.955L63.8099 210.936V205.955L66.3287 211.766L67.5881 206.785L70.1069 209.691L71.3663 205.955L72.2059 209.691L75.5644 206.785L76.404 209.691L77.2436 205.955L79.3426 209.691V206.785L80.1822 208.445L81.0218 206.785L82.2812 208.445V205.955L83.5406 208.445V205.124L86.4792 208.445V205.124L88.5782 208.445V203.049L90.6772 205.955V203.049L92.3564 203.879L93.196 199.728L95.2951 201.389V199.728L96.9743 200.558V198.068L98.6535 199.728V197.238L99.9129 198.898V195.162L102.012 199.728C102.292 197.238 102.935 192.091 103.271 191.426C103.607 190.762 104.251 194.194 104.531 195.992L107.05 189.351L107.889 192.257L109.988 186.86L110.828 190.596L112.507 185.615L114.606 188.521L115.865 183.955L117.125 185.615L117.964 181.049L120.483 183.955L121.323 181.049L123.422 183.955V180.219L124.681 182.709L125.101 165.691L127.2 170.257L127.62 165.691L129.299 170.672L130.139 166.521L132.238 172.747V168.596L133.497 170.672L134.756 165.691L136.016 168.596L137.275 162.785L138.954 167.351L139.794 163.615L141.053 165.691V157.804L142.733 161.124V152.408L144.832 154.483L146.931 140.37L149.03 151.577L151.129 148.672V143.691L152.808 146.596V142.445L154.067 144.521V140.37L155.327 138.709V134.558L157.006 137.464V134.558H159.105V107.162L160.784 114.634L161.624 105.917L162.883 110.068L163.723 105.917L164.562 108.408L165.822 105.917L167.081 110.898L168.76 105.917L170.02 110.068L171.699 106.747L172.539 109.238L174.218 105.087L174.638 107.162L176.317 105.087L178.416 106.747L180.095 92.2188V95.9547L181.774 92.2188L183.873 98.4452L185.133 92.2188L185.972 98.4452L188.071 88.8981L189.75 92.2188L191.01 96.7849V93.8792L193.529 96.7849L195.628 84.332L197.727 93.8792L199.406 88.8981L200.665 96.7849L201.505 91.3886L203.604 99.2754L204.444 95.9547L205.283 100.936L207.382 96.7849V103.011L209.061 95.9547L209.901 103.426L211.16 95.9547L212.84 105.917L213.679 103.011L215.778 105.087L216.618 103.011L218.297 96.7849L219.976 113.389L222.495 110.068L224.174 113.389L225.014 110.068L227.113 113.389L230.051 103.426L231.311 107.162L232.99 103.011L234.669 105.917L236.349 96.7849L238.867 103.011L239.287 99.2754L242.226 102.181V99.6905L245.164 103.426L246.004 98.0301L248.943 103.426V93.8792L250.202 98.0301L251.042 95.1245L253.98 100.936V95.9547L256.919 99.2754L257.758 95.1245L260.277 99.2754L260.697 95.9547L261.956 99.6905L262.796 95.9547L264.475 99.6905L267.414 90.5584V95.1245L270.772 91.8037V98.0301L272.451 93.049L274.131 98.0301L276.23 95.1245V98.0301L277.909 93.8792V99.6905L280.008 95.9547V100.936L281.687 95.9547L283.366 100.936V95.1245L284.206 102.596L286.725 98.0301L289.663 105.087V99.6905L294.701 105.087V102.596L297.64 108.408L298.479 104.257L300.158 109.653L300.998 105.917L304.356 111.728V108.408L307.295 115.049V111.728L308.974 115.049L310.234 114.219L311.073 118.37L312.333 115.049L313.592 121.275L314.432 119.615L315.271 123.351L316.951 120.445L319.049 125.426L321.149 111.728L323.248 119.615L324.087 112.558L323.248 127.917L324.087 126.257L326.186 129.992L327.446 114.219L329.964 123.351V119.615L332.483 123.351L333.743 120.445L334.582 127.917L333.743 134.558L334.582 130.823V135.804L335.842 130.823V139.124L336.681 134.558L337.941 141.615L338.36 137.049L339.2 143.691L340.04 139.124L340.459 145.351L340.879 141.2C341.299 142.722 342.139 145.683 342.139 145.351C342.139 145.019 342.418 142.999 342.558 142.03L344.238 147.426V143.275L345.917 147.841V142.03L346.756 149.087L347.596 143.691L348.436 149.087L349.275 144.521L349.695 149.087L350.954 144.936L352.214 150.747V147.426L353.473 150.747V147.426L355.572 151.992V147.841L357.671 152.408L358.091 148.672L359.35 151.992V147.841L361.449 151.992L361.869 147.841L363.549 152.823L364.808 148.672L366.487 152.823L367.327 149.087L369.006 152.408L369.426 149.917L370.685 153.653L372.364 150.747V153.653L374.463 149.917V155.313L375.723 152.408L376.562 155.728L377.402 152.823L379.501 157.389V153.653L380.76 155.728L381.18 153.653L382.44 156.143L383.279 152.408L384.119 156.143L384.958 154.483L386.218 159.879L386.638 155.728L388.317 160.294L389.156 155.728L390.836 161.124L392.515 157.389L393.354 163.2L395.034 158.634L396.293 164.445V159.464L398.812 165.691L399.232 161.54L400.911 167.351L401.75 163.2L403.43 167.766L405.109 164.445L405.529 169.426L407.208 165.691L408.048 169.841L409.307 167.351L410.147 170.257L411.406 173.577V169.426L413.085 175.238L413.505 171.087L416.024 177.313V172.747L417.703 178.974L418.543 176.483L420.642 184.37L421.061 177.313L423.16 184.37L424 181.879V216.332H0Z" fill="url(#paint0_linear_422_121)"/>
</g>
<g id="Group 9">
<line id="Line 56" x1="297.5" y1="2.18557e-08" x2="297.5" y2="216" stroke="var(--stroke-0, #8A93A8)" stroke-dasharray="2 2"/>
</g>
</g>
<defs>
<linearGradient id="paint0_linear_422_121" x1="0" y1="150.332" x2="424.5" y2="150.332" gradientUnits="userSpaceOnUse">
<stop stop-color="#2400C4" stop-opacity="0"/>
<stop offset="0.7" stop-color="#2400C4" stop-opacity="0.3"/>
<stop offset="0.7" stop-color="#2400C4" stop-opacity="0"/>
</linearGradient>
</defs>
</svg>
