{"asset":{"version":"2.0","generator":"babylon.js glTF exporter for 3dsmax 2025 v20250127.3"},"scene":0,"scenes":[{"nodes":[0,1]}],"nodes":[{"mesh":0,"rotation":[0.0,-1.0,0.0,4.88762055E-07],"scale":[0.99999994,0.99999994,0.99999994],"name":"HV-M7-U"},{"translation":[-0.0419458151,-0.5,2.241778],"rotation":[-0.707106769,0.0,0.0,0.707106769],"name":"VRayLight001"}],"meshes":[{"primitives":[{"attributes":{"POSITION":1,"NORMAL":2,"TEXCOORD_0":3},"indices":0,"material":0}],"name":"HV-M7-U"}],"accessors":[{"bufferView":0,"componentType":5123,"count":84,"type":"SCALAR","name":"accessorIndices"},{"bufferView":1,"componentType":5126,"count":46,"max":[0.400001526,1.275001,1.10000038],"min":[-0.400001526,-1.27500057,-1.09999943],"type":"VEC3","name":"accessorPositions"},{"bufferView":1,"byteOffset":552,"componentType":5126,"count":46,"type":"VEC3","name":"accessorNormals"},{"bufferView":2,"componentType":5126,"count":46,"type":"VEC2","name":"accessorUVs"}],"bufferViews":[{"buffer":0,"byteLength":168,"name":"bufferViewScalar"},{"buffer":0,"byteOffset":168,"byteLength":1104,"byteStride":12,"name":"bufferViewFloatVec3"},{"buffer":0,"byteOffset":1272,"byteLength":368,"byteStride":8,"name":"bufferViewFloatVec2"}],"buffers":[{"uri":"HV_2P_04.bin","byteLength":1640}],"materials":[{"pbrMetallicRoughness":{"baseColorTexture":{"index":0},"metallicFactor":0.0,"roughnessFactor":0.0},"doubleSided":true,"name":"Material #342540139","extras":{"babylonSeparateCullingPass":false}}],"textures":[{"sampler":0,"source":0,"name":"HV04.jpg"}],"images":[{"uri":"maps/HV04.jpg"}],"samplers":[{"magFilter":9729,"minFilter":9987}]}