{"asset":{"version":"2.0","generator":"babylon.js glTF exporter for 3dsmax 2020 v20221031.2"},"scene":0,"scenes":[{"nodes":[0]}],"nodes":[{"children":[1,2],"scale":[1000.0,1000.0,1000.0],"name":"root"},{"mesh":0,"translation":[-0.000461525,0.0123333279,-0.00018876596],"rotation":[-7.15255737E-07,6.715445E-07,4.80325849E-13,1.0],"name":"door1P_A"},{"mesh":1,"translation":[0.0,0.0120833358,5.281792E-10],"name":"TelephoneBooth1P"}],"meshes":[{"primitives":[{"attributes":{"POSITION":1,"NORMAL":2,"TEXCOORD_0":3},"indices":0,"material":0}],"name":"door1P_A"},{"primitives":[{"attributes":{"POSITION":5,"NORMAL":6,"TEXCOORD_0":7},"indices":4,"material":1}],"name":"TelephoneBooth1P"}],"accessors":[{"bufferView":0,"componentType":5123,"count":168,"type":"SCALAR","name":"accessorIndices"},{"bufferView":1,"componentType":5126,"count":64,"max":[0.00568183465,0.0109440871,0.00739767868],"min":[-0.00468183076,-0.0109440871,-0.00739768147],"type":"VEC3","name":"accessorPositions"},{"bufferView":1,"byteOffset":768,"componentType":5126,"count":64,"type":"VEC3","name":"accessorNormals"},{"bufferView":2,"componentType":5126,"count":64,"type":"VEC2","name":"accessorUVs"},{"bufferView":0,"byteOffset":336,"componentType":5123,"count":3372,"type":"SCALAR","name":"accessorIndices"},{"bufferView":1,"byteOffset":1536,"componentType":5126,"count":1427,"max":[0.00604047254,0.012000002,0.007689254],"min":[-0.00604047347,-0.0120000057,-0.00768924924],"type":"VEC3","name":"accessorPositions"},{"bufferView":1,"byteOffset":18660,"componentType":5126,"count":1427,"type":"VEC3","name":"accessorNormals"},{"bufferView":2,"byteOffset":512,"componentType":5126,"count":1427,"type":"VEC2","name":"accessorUVs"}],"bufferViews":[{"buffer":0,"byteLength":7080,"name":"bufferViewScalar"},{"buffer":0,"byteOffset":7080,"byteLength":35784,"byteStride":12,"name":"bufferViewFloatVec3"},{"buffer":0,"byteOffset":42864,"byteLength":11928,"byteStride":8,"name":"bufferViewFloatVec2"}],"buffers":[{"uri":"TelephoneBooth1P.bin","byteLength":54792}],"materials":[{"pbrMetallicRoughness":{"baseColorTexture":{"index":0},"metallicFactor":0.0,"roughnessFactor":0.450053632},"name":"Material #25191311"},{"pbrMetallicRoughness":{"baseColorTexture":{"index":1},"metallicFactor":0.0,"roughnessFactor":0.450053632},"name":"Material #25191312"}],"textures":[{"sampler":0,"source":0,"name":"door1P_A.png"},{"sampler":0,"source":1,"name":"TelephoneBooth1P.jpg"}],"images":[{"uri":"textures/door1P_A.png"},{"uri":"textures/TelephoneBooth1P.jpg"}],"samplers":[{"magFilter":9729,"minFilter":9987}]}