{"asset":{"version":"2.0","generator":"babylon.js glTF exporter for 3dsmax 2020 v20200813.4"},"scene":0,"scenes":[{"nodes":[0]}],"nodes":[{"children":[1,2],"scale":[1000.0,1000.0,1000.0],"name":"root"},{"mesh":0,"name":"Cabinet"},{"name":"Default light"}],"meshes":[{"primitives":[{"attributes":{"POSITION":1,"NORMAL":2,"TEXCOORD_0":3},"indices":0,"material":0}],"name":"Cabinet"}],"accessors":[{"bufferView":0,"componentType":5123,"count":282,"type":"SCALAR","name":"accessorIndices"},{"bufferView":1,"componentType":5126,"count":282,"max":[0.0205,0.00975,0.003],"min":[-0.0205,-0.00975,-0.003],"type":"VEC3","name":"accessorPositions"},{"bufferView":1,"byteOffset":3384,"componentType":5126,"count":282,"type":"VEC3","name":"accessorNormals"},{"bufferView":2,"componentType":5126,"count":282,"type":"VEC2","name":"accessorUVs"}],"bufferViews":[{"buffer":0,"byteLength":564,"name":"bufferViewScalar"},{"buffer":0,"byteOffset":564,"byteLength":6768,"byteStride":12,"name":"bufferViewFloatVec3"},{"buffer":0,"byteOffset":7332,"byteLength":2256,"byteStride":8,"name":"bufferViewFloatVec2"}],"buffers":[{"uri":"StorageCabinet.bin","byteLength":9588}],"materials":[{"pbrMetallicRoughness":{"baseColorTexture":{"index":0},"metallicFactor":0.0,"roughnessFactor":0.450053632},"name":"Material #49"}],"textures":[{"sampler":0,"source":0,"name":"Cabinet.jpg"}],"images":[{"uri":"textures/Cabinet.jpg"}],"samplers":[{"magFilter":9729,"minFilter":9987}]}