{"asset":{"version":"2.0","generator":"babylon.js glTF exporter for 3dsmax 2020 v20221031.2"},"scene":0,"scenes":[{"nodes":[0]}],"nodes":[{"children":[1],"scale":[1000.0,1000.0,1000.0],"name":"root"},{"mesh":0,"translation":[0.0,0.0,-2.947384E-10],"name":"FLIREx"}],"meshes":[{"primitives":[{"attributes":{"POSITION":1,"NORMAL":2,"TEXCOORD_0":3},"indices":0,"material":0}],"name":"FLIREx"}],"accessors":[{"bufferView":0,"componentType":5123,"count":4944,"type":"SCALAR","name":"accessorIndices"},{"bufferView":1,"componentType":5126,"count":2961,"max":[0.00517621,0.0134856589,0.004498677],"min":[-0.00517621,-1.90734872E-09,-0.004498676],"type":"VEC3","name":"accessorPositions"},{"bufferView":1,"byteOffset":35532,"componentType":5126,"count":2961,"type":"VEC3","name":"accessorNormals"},{"bufferView":2,"componentType":5126,"count":2961,"type":"VEC2","name":"accessorUVs"}],"bufferViews":[{"buffer":0,"byteLength":9888,"name":"bufferViewScalar"},{"buffer":0,"byteOffset":9888,"byteLength":71064,"byteStride":12,"name":"bufferViewFloatVec3"},{"buffer":0,"byteOffset":80952,"byteLength":23688,"byteStride":8,"name":"bufferViewFloatVec2"}],"buffers":[{"uri":"FLIREx.bin","byteLength":104640}],"materials":[{"pbrMetallicRoughness":{"baseColorTexture":{"index":0},"metallicFactor":0.0,"roughnessFactor":0.450053632},"name":"Material #718"}],"textures":[{"sampler":0,"source":0,"name":"FLIREx.jpg"}],"images":[{"uri":"textures/FLIREx.jpg"}],"samplers":[{"magFilter":9729,"minFilter":9987}]}