{
  "asset": {
    "version": "2.0",
    "generator": "babylon.js glTF exporter for 3dsmax 2023 v20221031.2"
  },
  "scene": 0,
  "scenes": [
    {
      "nodes": [
        0
      ]
    }
  ],
  "nodes": [
    {
      "children": [
        1,
        2
      ],
      "scale": [
        1000.0,
        1000.0,
        1000.0
      ],
      "name": "root"
    },
    {
      "mesh": 0,
      "translation": [
        -0.00145490747,
        -0.000450097577,
        -1.40176128E-08
      ],
      "scale": [
        0.099999994,
        0.099999994,
        0.099999994
      ],
      "name": "Plane_A"
    },
    {
      "mesh": 1,
      "translation": [
        -0.00145490747,
        -0.000450097577,
        -1.40176128E-08
      ],
      "scale": [
        0.099999994,
        0.099999994,
        0.099999994
      ],
      "name": "top"
    }
  ],
  "meshes": [
    {
      "primitives": [
        {
          "attributes": {
            "POSITION": 1,
            "NORMAL": 2,
            "TEXCOORD_0": 3
          },
          "indices": 0,
          "material": 0
        }
      ],
      "name": "Plane_A"
    },
    {
      "primitives": [
        {
          "attributes": {
            "POSITION": 5,
            "NORMAL": 6,
            "TEXCOORD_0": 7
          },
          "indices": 4,
          "material": 1
        }
      ],
      "name": "top"
    }
  ],
  "accessors": [
    {
      "bufferView": 0,
      "componentType": 5123,
      "count": 120,
      "type": "SCALAR",
      "name": "accessorIndices"
    },
    {
      "bufferView": 1,
      "componentType": 5126,
      "count": 40,
      "max": [
        0.240000024,
        1.68630016,
        0.239999816
      ],
      "min": [
        -0.240000054,
        0.4863009,
        -0.240000054
      ],
      "type": "VEC3",
      "name": "accessorPositions"
    },
    {
      "bufferView": 1,
      "byteOffset": 480,
      "componentType": 5126,
      "count": 40,
      "type": "VEC3",
      "name": "accessorNormals"
    },
    {
      "bufferView": 2,
      "componentType": 5126,
      "count": 40,
      "type": "VEC2",
      "name": "accessorUVs"
    },
    {
      "bufferView": 0,
      "byteOffset": 240,
      "componentType": 5123,
      "count": 50496,
      "type": "SCALAR",
      "name": "accessorIndices"
    },
    {
      "bufferView": 1,
      "byteOffset": 960,
      "componentType": 5126,
      "count": 34279,
      "max": [
        0.278898448,
        1.97322011,
        0.279528856
      ],
      "min": [
        -0.249800131,
        -6.1E-08,
        -0.2795285
      ],
      "type": "VEC3",
      "name": "accessorPositions"
    },
    {
      "bufferView": 1,
      "byteOffset": 412308,
      "componentType": 5126,
      "count": 34279,
      "type": "VEC3",
      "name": "accessorNormals"
    },
    {
      "bufferView": 2,
      "byteOffset": 320,
      "componentType": 5126,
      "count": 34279,
      "type": "VEC2",
      "name": "accessorUVs"
    }
  ],
  "bufferViews": [
    {
      "buffer": 0,
      "byteLength": 101232,
      "name": "bufferViewScalar"
    },
    {
      "buffer": 0,
      "byteOffset": 101232,
      "byteLength": 823656,
      "byteStride": 12,
      "name": "bufferViewFloatVec3"
    },
    {
      "buffer": 0,
      "byteOffset": 924888,
      "byteLength": 274552,
      "byteStride": 8,
      "name": "bufferViewFloatVec2"
    }
  ],
  "buffers": [
    {
      "uri": "transmission_Tower01.bin",
      "byteLength": 1199440
    }
  ],
  "materials": [
    {
      "pbrMetallicRoughness": {
        "baseColorTexture": {
          "index": 0
        },
        "metallicFactor": 0.0,
        "roughnessFactor": -2.02441
      },
      "doubleSided": true,
      "name": "04_Design실\\3D컴포넌트\\송전탑\\untitled_Material__26",
      "extras": {
        "babylonSeparateCullingPass": false
      }
    },
    {
      "pbrMetallicRoughness": {
        "baseColorTexture": {
          "index": 1
        },
        "metallicFactor": 0.0,
        "roughnessFactor": -2.02441
      },
      "doubleSided": true,
      "name": "04_Design실\\3D컴포넌트\\송전탑\\untitled_Material__25",
      "extras": {
        "babylonSeparateCullingPass": false
      }
    }
  ],
  "textures": [
    {
      "sampler": 0,
      "source": 0,
      "name": "Plane_A.png"
    },
    {
      "sampler": 0,
      "source": 1,
      "name": "top.jpg"
    }
  ],
  "images": [
    {
      "uri": "textures/Plane_A.png"
    },
    {
      "uri": "textures/top.jpg"
    }
  ],
  "samplers": [
    {
      "magFilter": 9729,
      "minFilter": 9987
    }
  ]
}