{"asset":{"version":"2.0","generator":"babylon.js glTF exporter for 3dsmax 2020 v20221031.2"},"scene":0,"scenes":[{"nodes":[0]}],"nodes":[{"children":[1],"scale":[1000.0,1000.0,1000.0],"name":"root"},{"mesh":0,"name":"UBio-XPro2"}],"meshes":[{"primitives":[{"attributes":{"POSITION":1,"NORMAL":2,"TEXCOORD_0":3},"indices":0,"material":0}],"name":"UBio-XPro2"}],"accessors":[{"bufferView":0,"componentType":5123,"count":1044,"type":"SCALAR","name":"accessorIndices"},{"bufferView":1,"componentType":5126,"count":386,"max":[0.00149700034,0.00207341462,0.001095099],"min":[-0.00149700034,-0.00212263176,8.940697E-11],"type":"VEC3","name":"accessorPositions"},{"bufferView":1,"byteOffset":4632,"componentType":5126,"count":386,"type":"VEC3","name":"accessorNormals"},{"bufferView":2,"componentType":5126,"count":386,"type":"VEC2","name":"accessorUVs"}],"bufferViews":[{"buffer":0,"byteLength":2088,"name":"bufferViewScalar"},{"buffer":0,"byteOffset":2088,"byteLength":9264,"byteStride":12,"name":"bufferViewFloatVec3"},{"buffer":0,"byteOffset":11352,"byteLength":3088,"byteStride":8,"name":"bufferViewFloatVec2"}],"buffers":[{"uri":"UBio-XPro2.bin","byteLength":14440}],"materials":[{"pbrMetallicRoughness":{"baseColorTexture":{"index":0},"metallicFactor":0.0,"roughnessFactor":0.450053632},"name":"Material #196"}],"textures":[{"sampler":0,"source":0,"name":"UBioXPro2.jpg"}],"images":[{"uri":"textures/UBioXPro2.jpg"}],"samplers":[{"magFilter":9729,"minFilter":9987}]}