{"asset":{"version":"2.0","generator":"babylon.js glTF exporter for 3dsmax 2020 v20200813.4"},"scene":0,"scenes":[{"nodes":[0]}],"nodes":[{"children":[1,2],"scale":[1000.0,1000.0,1000.0],"name":"root"},{"mesh":0,"name":"WaterQuality"},{"name":"Default light"}],"meshes":[{"primitives":[{"attributes":{"POSITION":1,"NORMAL":2,"TEXCOORD_0":3},"indices":0,"material":0}],"name":"WaterQuality"}],"accessors":[{"bufferView":0,"componentType":5123,"count":1338,"type":"SCALAR","name":"accessorIndices"},{"bufferView":1,"componentType":5126,"count":1338,"max":[0.0165,0.0152930012,0.014],"min":[-0.0165,-0.0152930012,-0.014],"type":"VEC3","name":"accessorPositions"},{"bufferView":1,"byteOffset":16056,"componentType":5126,"count":1338,"type":"VEC3","name":"accessorNormals"},{"bufferView":2,"componentType":5126,"count":1338,"type":"VEC2","name":"accessorUVs"}],"bufferViews":[{"buffer":0,"byteLength":2676,"name":"bufferViewScalar"},{"buffer":0,"byteOffset":2676,"byteLength":32112,"byteStride":12,"name":"bufferViewFloatVec3"},{"buffer":0,"byteOffset":34788,"byteLength":10704,"byteStride":8,"name":"bufferViewFloatVec2"}],"buffers":[{"uri":"WaterQuality.bin","byteLength":45492}],"materials":[{"pbrMetallicRoughness":{"baseColorTexture":{"index":0},"metallicFactor":0.0,"roughnessFactor":0.450053632},"name":"Material #58"}],"textures":[{"sampler":0,"source":0,"name":"WaterQuality.jpg"}],"images":[{"uri":"textures/WaterQuality.jpg"}],"samplers":[{"magFilter":9729,"minFilter":9987}]}