{
  "asset": {
    "version": "2.0",
    "generator": "babylon.js glTF exporter for 3dsmax 2023 v20221031.2"
  },
  "scene": 0,
  "scenes": [
    {
      "nodes": [
        0
      ]
    }
  ],
  "nodes": [
    {
      "children": [
        1,
        2
      ],
      "scale": [
        1000.0,
        1000.0,
        1000.0
      ],
      "name": "root"
    },
    {
      "mesh": 0,
      "translation": [
        9.536744E-10,
        0.0124799963,
        9.536744E-10
      ],
      "name": "Door_DoubleGlass__1__Door_DoubleGlass"
    },
    {
      "mesh": 1,
      "translation": [
        9.536744E-10,
        0.0124799963,
        9.536744E-10
      ],
      "name": "Doublewindow_A"
    }
  ],
  "meshes": [
    {
      "primitives": [
        {
          "attributes": {
            "POSITION": 1,
            "NORMAL": 2,
            "TEXCOORD_0": 3
          },
          "indices": 0,
          "material": 0
        }
      ],
      "name": "Door_DoubleGlass__1__Door_DoubleGlass"
    },
    {
      "primitives": [
        {
          "attributes": {
            "POSITION": 5,
            "NORMAL": 6,
            "TEXCOORD_0": 7
          },
          "indices": 4,
          "material": 1
        }
      ],
      "name": "Doublewindow_A"
    }
  ],
  "accessors": [
    {
      "bufferView": 0,
      "componentType": 5123,
      "count": 1056,
      "type": "SCALAR",
      "name": "accessorIndices"
    },
    {
      "bufferView": 1,
      "componentType": 5126,
      "count": 604,
      "max": [
        0.0105800005,
        0.0125,
        0.000933390053
      ],
      "min": [
        -0.0105800023,
        -0.0125000011,
        -0.000933392032
      ],
      "type": "VEC3",
      "name": "accessorPositions"
    },
    {
      "bufferView": 1,
      "byteOffset": 7248,
      "componentType": 5126,
      "count": 604,
      "type": "VEC3",
      "name": "accessorNormals"
    },
    {
      "bufferView": 2,
      "componentType": 5126,
      "count": 604,
      "type": "VEC2",
      "name": "accessorUVs"
    },
    {
      "bufferView": 0,
      "byteOffset": 2112,
      "componentType": 5123,
      "count": 60,
      "type": "SCALAR",
      "name": "accessorIndices"
    },
    {
      "bufferView": 1,
      "byteOffset": 14496,
      "componentType": 5126,
      "count": 40,
      "max": [
        0.0101400008,
        0.0105599929,
        0.000200001014
      ],
      "min": [
        -0.0101400008,
        -0.0109799858,
        -0.000200001014
      ],
      "type": "VEC3",
      "name": "accessorPositions"
    },
    {
      "bufferView": 1,
      "byteOffset": 14976,
      "componentType": 5126,
      "count": 40,
      "type": "VEC3",
      "name": "accessorNormals"
    },
    {
      "bufferView": 2,
      "byteOffset": 4832,
      "componentType": 5126,
      "count": 40,
      "type": "VEC2",
      "name": "accessorUVs"
    }
  ],
  "bufferViews": [
    {
      "buffer": 0,
      "byteLength": 2232,
      "name": "bufferViewScalar"
    },
    {
      "buffer": 0,
      "byteOffset": 2232,
      "byteLength": 15456,
      "byteStride": 12,
      "name": "bufferViewFloatVec3"
    },
    {
      "buffer": 0,
      "byteOffset": 17688,
      "byteLength": 5152,
      "byteStride": 8,
      "name": "bufferViewFloatVec2"
    }
  ],
  "buffers": [
    {
      "uri": "Door_DoubleGlass.bin",
      "byteLength": 22840
    }
  ],
  "materials": [
    {
      "pbrMetallicRoughness": {
        "baseColorTexture": {
          "index": 0
        },
        "metallicFactor": 0.0,
        "roughnessFactor": 0.450053632
      },
      "name": "Material #29"
    },
    {
      "pbrMetallicRoughness": {
        "baseColorTexture": {
          "index": 1
        },
        "metallicFactor": 0.0,
        "roughnessFactor": 0.450053632
      },
      "doubleSided": true,
      "name": "Material #28"
    }
  ],
  "textures": [
    {
      "sampler": 0,
      "source": 0,
      "name": "Door_DoubleGlass.jpg"
    },
    {
      "sampler": 0,
      "source": 1,
      "name": "doublewindow_A.png"
    }
  ],
  "images": [
    {
      "uri": "textures/Door_DoubleGlass.jpg"
    },
    {
      "uri": "textures/doublewindow_A.png"
    }
  ],
  "samplers": [
    {
      "magFilter": 9729,
      "minFilter": 9987
    }
  ]
}