{
  "asset": {
    "version": "2.0",
    "generator": "babylon.js glTF exporter for 3dsmax 2023 v20221031.2"
  },
  "scene": 0,
  "scenes": [
    {
      "nodes": [
        0
      ]
    }
  ],
  "nodes": [
    {
      "children": [
        1
      ],
      "scale": [
        1000.0,
        1000.0,
        1000.0
      ],
      "name": "root"
    },
    {
      "children": [
        2,
        3,
        4,
        5,
        6,
        7,
        8,
        9,
        10
      ],
      "translation": [
        0.0,
        -1.25185366E-07,
        0.0
      ],
      "scale": [
        0.69155854,
        0.69155854,
        0.69155854
      ],
      "name": "Group001"
    },
    {
      "mesh": 0,
      "translation": [
        0.0,
        0.417966545,
        1.8269894E-08
      ],
      "name": "top"
    },
    {
      "mesh": 1,
      "translation": [
        0.0,
        0.417966545,
        1.8269894E-08
      ],
      "name": "wall01"
    },
    {
      "mesh": 2,
      "translation": [
        0.0,
        0.417966545,
        1.8269894E-08
      ],
      "name": "wall02"
    },
    {
      "mesh": 3,
      "translation": [
        0.0,
        0.417966545,
        1.8269894E-08
      ],
      "name": "frame"
    },
    {
      "mesh": 4,
      "translation": [
        0.0,
        0.417966545,
        1.8269894E-08
      ],
      "name": "window"
    },
    {
      "mesh": 5,
      "translation": [
        -0.13392213,
        0.7962006,
        0.0857914761
      ],
      "name": "samsungsds_tah"
    },
    {
      "mesh": 6,
      "translation": [
        0.0,
        0.417966545,
        1.8269894E-08
      ],
      "name": "rooftop"
    },
    {
      "mesh": 7,
      "translation": [
        0.0,
        0.417966545,
        1.8269894E-08
      ],
      "name": "logo_A"
    },
    {
      "mesh": 8,
      "translation": [
        0.0,
        0.417966545,
        1.8269894E-08
      ],
      "name": "bottom"
    }
  ],
  "meshes": [
    {
      "primitives": [
        {
          "attributes": {
            "POSITION": 1,
            "NORMAL": 2,
            "TEXCOORD_0": 3
          },
          "indices": 0,
          "material": 0
        }
      ],
      "name": "top"
    },
    {
      "primitives": [
        {
          "attributes": {
            "POSITION": 5,
            "NORMAL": 6,
            "TEXCOORD_0": 7
          },
          "indices": 4,
          "material": 1
        }
      ],
      "name": "wall01"
    },
    {
      "primitives": [
        {
          "attributes": {
            "POSITION": 9,
            "NORMAL": 10,
            "TEXCOORD_0": 11
          },
          "indices": 8,
          "material": 2
        }
      ],
      "name": "wall02"
    },
    {
      "primitives": [
        {
          "attributes": {
            "POSITION": 13,
            "NORMAL": 14,
            "TEXCOORD_0": 15
          },
          "indices": 12,
          "material": 3
        }
      ],
      "name": "frame"
    },
    {
      "primitives": [
        {
          "attributes": {
            "POSITION": 17,
            "NORMAL": 18,
            "TEXCOORD_0": 19
          },
          "indices": 16,
          "material": 4
        }
      ],
      "name": "window"
    },
    {
      "primitives": [
        {
          "attributes": {
            "POSITION": 21,
            "NORMAL": 22,
            "TEXCOORD_0": 23
          },
          "indices": 20,
          "material": 5
        }
      ],
      "name": "samsungsds_tah"
    },
    {
      "primitives": [
        {
          "attributes": {
            "POSITION": 25,
            "NORMAL": 26,
            "TEXCOORD_0": 27
          },
          "indices": 24,
          "material": 6
        }
      ],
      "name": "rooftop"
    },
    {
      "primitives": [
        {
          "attributes": {
            "POSITION": 29,
            "NORMAL": 30,
            "TEXCOORD_0": 31
          },
          "indices": 28,
          "material": 7
        }
      ],
      "name": "logo_A"
    },
    {
      "primitives": [
        {
          "attributes": {
            "POSITION": 33,
            "NORMAL": 34,
            "TEXCOORD_0": 35
          },
          "indices": 32,
          "material": 8
        }
      ],
      "name": "bottom"
    }
  ],
  "accessors": [
    {
      "bufferView": 0,
      "componentType": 5123,
      "count": 636,
      "type": "SCALAR",
      "name": "accessorIndices"
    },
    {
      "bufferView": 1,
      "componentType": 5126,
      "count": 312,
      "max": [
        0.1465027,
        0.409691721,
        0.140860513
      ],
      "min": [
        -0.1465027,
        0.3717281,
        -0.136148408
      ],
      "type": "VEC3",
      "name": "accessorPositions"
    },
    {
      "bufferView": 1,
      "byteOffset": 3744,
      "componentType": 5126,
      "count": 312,
      "type": "VEC3",
      "name": "accessorNormals"
    },
    {
      "bufferView": 2,
      "componentType": 5126,
      "count": 312,
      "type": "VEC2",
      "name": "accessorUVs"
    },
    {
      "bufferView": 0,
      "byteOffset": 1272,
      "componentType": 5123,
      "count": 1824,
      "type": "SCALAR",
      "name": "accessorIndices"
    },
    {
      "bufferView": 1,
      "byteOffset": 7488,
      "componentType": 5126,
      "count": 962,
      "max": [
        0.150325,
        0.371811032,
        0.14468351
      ],
      "min": [
        -0.148002908,
        -0.2521967,
        -0.0537127033
      ],
      "type": "VEC3",
      "name": "accessorPositions"
    },
    {
      "bufferView": 1,
      "byteOffset": 19032,
      "componentType": 5126,
      "count": 962,
      "type": "VEC3",
      "name": "accessorNormals"
    },
    {
      "bufferView": 2,
      "byteOffset": 2496,
      "componentType": 5126,
      "count": 962,
      "type": "VEC2",
      "name": "accessorUVs"
    },
    {
      "bufferView": 0,
      "byteOffset": 4920,
      "componentType": 5123,
      "count": 1398,
      "type": "SCALAR",
      "name": "accessorIndices"
    },
    {
      "bufferView": 1,
      "byteOffset": 30576,
      "componentType": 5126,
      "count": 810,
      "max": [
        0.150325313,
        0.417966425,
        0.1446832
      ],
      "min": [
        -0.148002714,
        -0.2691403,
        -0.14287132
      ],
      "type": "VEC3",
      "name": "accessorPositions"
    },
    {
      "bufferView": 1,
      "byteOffset": 40296,
      "componentType": 5126,
      "count": 810,
      "type": "VEC3",
      "name": "accessorNormals"
    },
    {
      "bufferView": 2,
      "byteOffset": 10192,
      "componentType": 5126,
      "count": 810,
      "type": "VEC2",
      "name": "accessorUVs"
    },
    {
      "bufferView": 0,
      "byteOffset": 7716,
      "componentType": 5123,
      "count": 55620,
      "type": "SCALAR",
      "name": "accessorIndices"
    },
    {
      "bufferView": 1,
      "byteOffset": 50016,
      "componentType": 5126,
      "count": 34254,
      "max": [
        0.1502255,
        0.3962393,
        0.168575615
      ],
      "min": [
        -0.1502255,
        -0.4179665,
        -0.1655755
      ],
      "type": "VEC3",
      "name": "accessorPositions"
    },
    {
      "bufferView": 1,
      "byteOffset": 461064,
      "componentType": 5126,
      "count": 34254,
      "type": "VEC3",
      "name": "accessorNormals"
    },
    {
      "bufferView": 2,
      "byteOffset": 16672,
      "componentType": 5126,
      "count": 34254,
      "type": "VEC2",
      "name": "accessorUVs"
    },
    {
      "bufferView": 0,
      "byteOffset": 118956,
      "componentType": 5123,
      "count": 1560,
      "type": "SCALAR",
      "name": "accessorIndices"
    },
    {
      "bufferView": 1,
      "byteOffset": 872112,
      "componentType": 5126,
      "count": 1035,
      "max": [
        0.1465027,
        0.4090605,
        0.140060514
      ],
      "min": [
        -0.1465027,
        -0.397132844,
        -0.1369484
      ],
      "type": "VEC3",
      "name": "accessorPositions"
    },
    {
      "bufferView": 1,
      "byteOffset": 884532,
      "componentType": 5126,
      "count": 1035,
      "type": "VEC3",
      "name": "accessorNormals"
    },
    {
      "bufferView": 2,
      "byteOffset": 290704,
      "componentType": 5126,
      "count": 1035,
      "type": "VEC2",
      "name": "accessorUVs"
    },
    {
      "bufferView": 0,
      "byteOffset": 122076,
      "componentType": 5123,
      "count": 324,
      "type": "SCALAR",
      "name": "accessorIndices"
    },
    {
      "bufferView": 1,
      "byteOffset": 896952,
      "componentType": 5126,
      "count": 216,
      "max": [
        0.008547623,
        0.006506043,
        0.05154725
      ],
      "min": [
        -0.008547577,
        -0.00650607329,
        -0.05154725
      ],
      "type": "VEC3",
      "name": "accessorPositions"
    },
    {
      "bufferView": 1,
      "byteOffset": 899544,
      "componentType": 5126,
      "count": 216,
      "type": "VEC3",
      "name": "accessorNormals"
    },
    {
      "bufferView": 2,
      "byteOffset": 298984,
      "componentType": 5126,
      "count": 216,
      "type": "VEC2",
      "name": "accessorUVs"
    },
    {
      "bufferView": 0,
      "byteOffset": 122724,
      "componentType": 5123,
      "count": 1488,
      "type": "SCALAR",
      "name": "accessorIndices"
    },
    {
      "bufferView": 1,
      "byteOffset": 902136,
      "componentType": 5126,
      "count": 624,
      "max": [
        0.1337544,
        0.4112761,
        0.105562806
      ],
      "min": [
        0.09978071,
        0.371810943,
        0.0342991
      ],
      "type": "VEC3",
      "name": "accessorPositions"
    },
    {
      "bufferView": 1,
      "byteOffset": 909624,
      "componentType": 5126,
      "count": 624,
      "type": "VEC3",
      "name": "accessorNormals"
    },
    {
      "bufferView": 2,
      "byteOffset": 300712,
      "componentType": 5126,
      "count": 624,
      "type": "VEC2",
      "name": "accessorUVs"
    },
    {
      "bufferView": 0,
      "byteOffset": 125700,
      "componentType": 5123,
      "count": 12,
      "type": "SCALAR",
      "name": "accessorIndices"
    },
    {
      "bufferView": 1,
      "byteOffset": 917112,
      "componentType": 5126,
      "count": 8,
      "max": [
        0.1397667,
        0.4092214,
        0.1417378
      ],
      "min": [
        -0.135451,
        0.369945526,
        -0.1433604
      ],
      "type": "VEC3",
      "name": "accessorPositions"
    },
    {
      "bufferView": 1,
      "byteOffset": 917208,
      "componentType": 5126,
      "count": 8,
      "type": "VEC3",
      "name": "accessorNormals"
    },
    {
      "bufferView": 2,
      "byteOffset": 305704,
      "componentType": 5126,
      "count": 8,
      "type": "VEC2",
      "name": "accessorUVs"
    },
    {
      "bufferView": 0,
      "byteOffset": 125724,
      "componentType": 5123,
      "count": 2490,
      "type": "SCALAR",
      "name": "accessorIndices"
    },
    {
      "bufferView": 1,
      "byteOffset": 917304,
      "componentType": 5126,
      "count": 1240,
      "max": [
        0.1522255,
        -0.269140124,
        0.17038691
      ],
      "min": [
        -0.1522255,
        -0.417966336,
        -0.17038691
      ],
      "type": "VEC3",
      "name": "accessorPositions"
    },
    {
      "bufferView": 1,
      "byteOffset": 932184,
      "componentType": 5126,
      "count": 1240,
      "type": "VEC3",
      "name": "accessorNormals"
    },
    {
      "bufferView": 2,
      "byteOffset": 305768,
      "componentType": 5126,
      "count": 1240,
      "type": "VEC2",
      "name": "accessorUVs"
    }
  ],
  "bufferViews": [
    {
      "buffer": 0,
      "byteLength": 130704,
      "name": "bufferViewScalar"
    },
    {
      "buffer": 0,
      "byteOffset": 130704,
      "byteLength": 947064,
      "byteStride": 12,
      "name": "bufferViewFloatVec3"
    },
    {
      "buffer": 0,
      "byteOffset": 1077768,
      "byteLength": 315688,
      "byteStride": 8,
      "name": "bufferViewFloatVec2"
    }
  ],
  "buffers": [
    {
      "uri": "StandardBuilding.bin",
      "byteLength": 1393456
    }
  ],
  "materials": [
    {
      "pbrMetallicRoughness": {
        "baseColorTexture": {
          "index": 0
        },
        "metallicFactor": 0.0,
        "roughnessFactor": 0.5
      },
      "name": "Material #25"
    },
    {
      "pbrMetallicRoughness": {
        "baseColorTexture": {
          "index": 1
        },
        "metallicFactor": 0.0,
        "roughnessFactor": 0.5
      },
      "name": "Material #27"
    },
    {
      "pbrMetallicRoughness": {
        "baseColorTexture": {
          "index": 2
        },
        "metallicFactor": 0.0,
        "roughnessFactor": 0.5
      },
      "name": "Material #29"
    },
    {
      "pbrMetallicRoughness": {
        "baseColorTexture": {
          "index": 3
        },
        "metallicFactor": 0.0,
        "roughnessFactor": 0.5
      },
      "name": "Material #32"
    },
    {
      "pbrMetallicRoughness": {
        "baseColorTexture": {
          "index": 4
        },
        "metallicFactor": 0.0,
        "roughnessFactor": 0.5
      },
      "name": "Material #31"
    },
    {
      "pbrMetallicRoughness": {
        "baseColorTexture": {
          "index": 5
        },
        "metallicFactor": 0.0,
        "roughnessFactor": 0.5
      },
      "name": "Material #30"
    },
    {
      "pbrMetallicRoughness": {
        "baseColorTexture": {
          "index": 6
        },
        "metallicFactor": 0.0,
        "roughnessFactor": 0.5
      },
      "name": "Material #2147483645"
    },
    {
      "pbrMetallicRoughness": {
        "baseColorTexture": {
          "index": 7
        },
        "metallicFactor": 0.0,
        "roughnessFactor": 0.450053632
      },
      "doubleSided": true,
      "name": "Material #33"
    },
    {
      "pbrMetallicRoughness": {
        "baseColorTexture": {
          "index": 8
        },
        "metallicFactor": 0.0,
        "roughnessFactor": 0.5
      },
      "name": "Material #34"
    }
  ],
  "textures": [
    {
      "sampler": 0,
      "source": 0,
      "name": "top.jpg"
    },
    {
      "sampler": 0,
      "source": 1,
      "name": "wall01.jpg"
    },
    {
      "sampler": 0,
      "source": 2,
      "name": "wall02.jpg"
    },
    {
      "sampler": 0,
      "source": 3,
      "name": "frame.jpg"
    },
    {
      "sampler": 0,
      "source": 4,
      "name": "window.jpg"
    },
    {
      "sampler": 0,
      "source": 5,
      "name": "samsungsds_tah.jpg"
    },
    {
      "sampler": 0,
      "source": 6,
      "name": "rooftop.jpg"
    },
    {
      "sampler": 0,
      "source": 7,
      "name": "logo_A.png"
    },
    {
      "sampler": 0,
      "source": 8,
      "name": "bottom.jpg"
    }
  ],
  "images": [
    {
      "uri": "textures/top.jpg"
    },
    {
      "uri": "textures/wall01.jpg"
    },
    {
      "uri": "textures/wall02.jpg"
    },
    {
      "uri": "textures/frame.jpg"
    },
    {
      "uri": "textures/window.jpg"
    },
    {
      "uri": "textures/samsungsds_tah.jpg"
    },
    {
      "uri": "textures/rooftop.jpg"
    },
    {
      "uri": "textures/logo_A.png"
    },
    {
      "uri": "textures/bottom.jpg"
    }
  ],
  "samplers": [
    {
      "magFilter": 9729,
      "minFilter": 9987
    }
  ]
}