{
  "asset": {
    "version": "2.0",
    "generator": "babylon.js glTF exporter for 3dsmax 2023 v20221031.2"
  },
  "scene": 0,
  "scenes": [
    {
      "nodes": [
        0
      ]
    }
  ],
  "nodes": [
    {
      "children": [
        1
      ],
      "scale": [
        1000.0,
        1000.0,
        1000.0
      ],
      "name": "root"
    },
    {
      "children": [
        2,
        3,
        4
      ],
      "scale": [
        0.5,
        0.5,
        0.5
      ],
      "name": "Group001"
    },
    {
      "mesh": 0,
      "name": "outwall"
    },
    {
      "mesh": 1,
      "name": "inwall"
    },
    {
      "mesh": 2,
      "name": "steel_A_png"
    }
  ],
  "meshes": [
    {
      "primitives": [
        {
          "attributes": {
            "POSITION": 1,
            "NORMAL": 2,
            "TEXCOORD_0": 3
          },
          "indices": 0,
          "material": 0
        }
      ],
      "name": "outwall"
    },
    {
      "primitives": [
        {
          "attributes": {
            "POSITION": 5,
            "NORMAL": 6,
            "TEXCOORD_0": 7
          },
          "indices": 4,
          "material": 1
        }
      ],
      "name": "inwall"
    },
    {
      "primitives": [
        {
          "attributes": {
            "POSITION": 9,
            "NORMAL": 10,
            "TEXCOORD_0": 11
          },
          "indices": 8,
          "material": 2
        }
      ],
      "name": "steel_A_png"
    }
  ],
  "accessors": [
    {
      "bufferView": 0,
      "componentType": 5123,
      "count": 3636,
      "type": "SCALAR",
      "name": "accessorIndices"
    },
    {
      "bufferView": 1,
      "componentType": 5126,
      "count": 2160,
      "max": [
        0.166532531,
        0.366831958,
        0.07760561
      ],
      "min": [
        -0.166532621,
        -0.472988248,
        -0.0776055
      ],
      "type": "VEC3",
      "name": "accessorPositions"
    },
    {
      "bufferView": 1,
      "byteOffset": 25920,
      "componentType": 5126,
      "count": 2160,
      "type": "VEC3",
      "name": "accessorNormals"
    },
    {
      "bufferView": 2,
      "componentType": 5126,
      "count": 2160,
      "type": "VEC2",
      "name": "accessorUVs"
    },
    {
      "bufferView": 0,
      "byteOffset": 7272,
      "componentType": 5123,
      "count": 2706,
      "type": "SCALAR",
      "name": "accessorIndices"
    },
    {
      "bufferView": 1,
      "byteOffset": 51840,
      "componentType": 5126,
      "count": 1326,
      "max": [
        0.175589427,
        0.472988248,
        0.117776014
      ],
      "min": [
        -0.175589427,
        -0.472988248,
        -0.117776014
      ],
      "type": "VEC3",
      "name": "accessorPositions"
    },
    {
      "bufferView": 1,
      "byteOffset": 67752,
      "componentType": 5126,
      "count": 1326,
      "type": "VEC3",
      "name": "accessorNormals"
    },
    {
      "bufferView": 2,
      "byteOffset": 17280,
      "componentType": 5126,
      "count": 1326,
      "type": "VEC2",
      "name": "accessorUVs"
    },
    {
      "bufferView": 0,
      "byteOffset": 12684,
      "componentType": 5123,
      "count": 360,
      "type": "SCALAR",
      "name": "accessorIndices"
    },
    {
      "bufferView": 1,
      "byteOffset": 83664,
      "componentType": 5126,
      "count": 240,
      "max": [
        0.167703241,
        0.366831958,
        0.07694233
      ],
      "min": [
        -0.165361986,
        0.350862652,
        -0.07826867
      ],
      "type": "VEC3",
      "name": "accessorPositions"
    },
    {
      "bufferView": 1,
      "byteOffset": 86544,
      "componentType": 5126,
      "count": 240,
      "type": "VEC3",
      "name": "accessorNormals"
    },
    {
      "bufferView": 2,
      "byteOffset": 27888,
      "componentType": 5126,
      "count": 240,
      "type": "VEC2",
      "name": "accessorUVs"
    }
  ],
  "bufferViews": [
    {
      "buffer": 0,
      "byteLength": 13404,
      "name": "bufferViewScalar"
    },
    {
      "buffer": 0,
      "byteOffset": 13404,
      "byteLength": 89424,
      "byteStride": 12,
      "name": "bufferViewFloatVec3"
    },
    {
      "buffer": 0,
      "byteOffset": 102828,
      "byteLength": 29808,
      "byteStride": 8,
      "name": "bufferViewFloatVec2"
    }
  ],
  "buffers": [
    {
      "uri": "apartment_BUILDING.bin",
      "byteLength": 132636
    }
  ],
  "materials": [
    {
      "pbrMetallicRoughness": {
        "baseColorTexture": {
          "index": 0
        },
        "metallicFactor": 0.0,
        "roughnessFactor": -2.02441
      },
      "doubleSided": true,
      "name": "untitled_Material__45",
      "extras": {
        "babylonSeparateCullingPass": false
      }
    },
    {
      "pbrMetallicRoughness": {
        "baseColorTexture": {
          "index": 1
        },
        "metallicFactor": 0.0,
        "roughnessFactor": -2.02441
      },
      "doubleSided": true,
      "name": "untitled_Material__44",
      "extras": {
        "babylonSeparateCullingPass": false
      }
    },
    {
      "pbrMetallicRoughness": {
        "baseColorTexture": {
          "index": 2
        },
        "metallicFactor": 0.0,
        "roughnessFactor": -2.02441
      },
      "doubleSided": true,
      "name": "untitled_Material__42",
      "extras": {
        "babylonSeparateCullingPass": false
      }
    }
  ],
  "textures": [
    {
      "sampler": 0,
      "source": 0,
      "name": "outwall.jpg"
    },
    {
      "sampler": 0,
      "source": 1,
      "name": "inwall.jpg"
    },
    {
      "sampler": 0,
      "source": 2,
      "name": "steel_A.png"
    }
  ],
  "images": [
    {
      "uri": "textures/outwall.jpg"
    },
    {
      "uri": "textures/inwall.jpg"
    },
    {
      "uri": "textures/steel_A.png"
    }
  ],
  "samplers": [
    {
      "magFilter": 9729,
      "minFilter": 9987
    }
  ]
}