{"asset":{"version":"2.0","generator":"babylon.js glTF exporter for 3dsmax 2025 v20250127.3"},"scene":0,"scenes":[{"nodes":[0,1]}],"nodes":[{"mesh":0,"rotation":[0.0,8.742278E-08,0.0,1.0],"name":"ALTS-A1"},{"translation":[-0.05829655,-0.08574314,0.0194276664],"rotation":[0.6625312,0.0586258,-0.052142147,0.7449138],"scale":[0.99999994,1.00000024,0.9999999],"name":"PhysCamera001.Target"}],"meshes":[{"primitives":[{"attributes":{"POSITION":1,"NORMAL":2,"TEXCOORD_0":3},"indices":0,"material":0}],"name":"ALTS-A1"}],"accessors":[{"bufferView":0,"componentType":5123,"count":48,"type":"SCALAR","name":"accessorIndices"},{"bufferView":1,"componentType":5126,"count":26,"max":[0.800000668,1.70944548,1.49999976],"min":[-0.80000025,-1.70944536,-1.500001],"type":"VEC3","name":"accessorPositions"},{"bufferView":1,"byteOffset":312,"componentType":5126,"count":26,"type":"VEC3","name":"accessorNormals"},{"bufferView":2,"componentType":5126,"count":26,"type":"VEC2","name":"accessorUVs"}],"bufferViews":[{"buffer":0,"byteLength":96,"name":"bufferViewScalar"},{"buffer":0,"byteOffset":96,"byteLength":624,"byteStride":12,"name":"bufferViewFloatVec3"},{"buffer":0,"byteOffset":720,"byteLength":208,"byteStride":8,"name":"bufferViewFloatVec2"}],"buffers":[{"uri":"ALTS02.bin","byteLength":928}],"materials":[{"pbrMetallicRoughness":{"baseColorTexture":{"index":0},"metallicFactor":0.0,"roughnessFactor":0.0},"doubleSided":true,"name":"Material #342540103","extras":{"babylonSeparateCullingPass":false}}],"textures":[{"sampler":0,"source":0,"name":"ALTS01.jpg"}],"images":[{"uri":"maps/ALTS01.jpg"}],"samplers":[{"magFilter":9729,"minFilter":9987}]}