<svg preserveAspectRatio="none" width="100%" height="100%" overflow="visible" style="display: block;" viewBox="0 0 551.667 109.031" fill="none" xmlns="http://www.w3.org/2000/svg">
<g id="Group 13">
<path id="Vector 7" d="M0.300183 32.7615L24.5947 50.9998L47.9175 46.0257L71.2402 64.264C86.5728 46.0257 122.421 10.8755 143.152 16.1812L168.418 100.74L191.741 52.6577L215.388 89.1342L240.006 42.7095L287.947 100.74L310.946 32.7614L336.213 62.6058L359.535 16.1811L382.534 89.1342L407.8 1.25889L431.123 41.0515L455.742 59.2898L480.036 1.25889L502.063 47.6836H528.301L551.3 72.554" stroke="var(--stroke-0, #CA3437)"/>
<path id="Vector 8" d="M24.5947 50.9998L0.300183 32.7615V109.031H551.3V72.554L528.301 47.6836H502.063L480.036 1.25889L455.742 59.2898L431.123 41.0515L407.8 1.25889L382.534 89.1343L359.535 16.1811L336.213 62.6058L310.946 32.7614L287.947 100.74L240.006 42.7095L215.388 89.1343L191.741 52.6577L168.418 100.74L143.152 16.1812C122.421 10.8756 86.5728 46.0257 71.2402 64.264L47.9175 46.0257L24.5947 50.9998Z" fill="url(#paint0_linear_422_109)" fill-opacity="0.3"/>
</g>
<defs>
<linearGradient id="paint0_linear_422_109" x1="275.8" y1="1.25889" x2="275.8" y2="109.031" gradientUnits="userSpaceOnUse">
<stop stop-color="#8367EC"/>
<stop offset="1" stop-color="#8367EC" stop-opacity="0.7"/>
</linearGradient>
</defs>
</svg>
