<svg preserveAspectRatio="none" width="100%" height="100%" overflow="visible" style="display: block;" viewBox="0 0 116.657 26" fill="none" xmlns="http://www.w3.org/2000/svg">
<g id="logo">
<path id="Vector" d="M14.7953 23.796C14.7953 23.796 14.9971 24.0715 15.1316 24.1404C15.3333 24.2782 15.5351 24.2782 15.6696 24.1404C15.8041 24.0715 17.2836 23.1762 17.2836 23.1762L21.117 20.9033C22.2602 20.2146 23 18.906 23 17.5285V8.43709C23 7.0596 22.2602 5.751 21.117 5.06226L13.383 0.516556C12.2398 -0.172185 10.7602 -0.172185 9.61696 0.516556L1.88303 5.06226C0.739758 5.751 0 7.0596 0 8.43709V17.5285C0 18.906 0.739758 20.2146 1.88303 20.9033L9.61696 25.449C10.2222 25.7934 10.8275 26 11.5 26C12.1725 26 12.2398 25.9311 12.6433 25.7934C12.7105 25.7934 12.7778 25.7934 12.7778 25.6556V25.5179V25.3801L11.769 23.3139C11.6345 23.1073 11.2982 22.9007 11.1637 22.8318L3.42981 18.2861C3.1608 18.1484 3.02632 17.8729 3.02632 17.5285V10.7099H10.8275C11.0292 10.7099 11.231 10.7099 11.4328 10.7099C11.6345 10.7099 11.8363 10.7099 12.038 10.7099C12.307 10.7099 12.576 10.7788 12.7778 10.9166C13.0468 11.0543 13.2485 11.1921 13.383 11.3987C13.5848 11.6053 13.6521 11.7431 13.7866 11.9497C13.8538 12.2252 13.921 12.4318 13.921 12.7073C13.921 12.9828 13.9211 13.1205 13.7866 13.3272C13.7193 13.6027 13.5848 13.8093 13.383 13.947C13.2485 14.1536 13.0468 14.2914 12.7778 14.4291C12.576 14.5669 12.307 14.6358 12.038 14.6358C11.9035 14.6358 11.8363 14.6358 11.7018 14.6358H10.5585L14.1228 22.2119C14.1228 22.2119 14.7281 23.5205 14.7953 23.6583V23.796ZM20.0409 17.6662C20.0409 17.9417 19.9064 18.2172 19.6374 18.4238L16.5439 20.4901L14.7281 16.4954C15.0643 16.2888 15.1988 16.2199 15.4678 15.9444C15.7369 15.6689 16.0058 15.3934 16.2076 15.049C16.4093 14.7046 16.5439 14.3603 16.6784 14.0159C16.8129 13.6027 16.8801 13.2583 16.8801 12.845C16.8801 12.2252 16.7456 11.6742 16.5439 11.1232C16.3421 10.5722 16.0058 10.1589 15.6023 9.74569C15.1988 9.33245 14.7953 9.05695 14.2573 8.78146C13.7193 8.57483 13.1813 8.43709 12.576 8.43709H2.89181C2.89181 8.43709 2.89181 8.29935 2.89181 8.23047L2.95906 8.09272L11.0965 3.20264C11.231 3.13377 11.3655 3.06491 11.5 3.06491C11.6345 3.06491 11.769 3.0649 11.9035 3.20264L19.6374 7.74834C19.9064 7.88609 20.0409 8.16159 20.0409 8.50596V17.5974V17.6662Z" fill="var(--fill-0, #502EE9)"/>
<g id="Group">
<path id="Vector_2" d="M41.5977 20.2068V5.65729H51.8639V8.5128H44.7252V11.1643H50.1642V14.0198H44.7252V17.2833H51.8639V20.1388H41.5297L41.5977 20.2068Z" fill="var(--fill-0, #502EE9)"/>
<path id="Vector_3" d="M63.5578 20.2068L57.5749 11.0284V20.2068H54.3794V5.65729H57.7788L63.7618 15.1756V5.65729H66.9572V20.2068H63.5578Z" fill="var(--fill-0, #502EE9)"/>
<path id="Vector_4" d="M77.1554 20.5467C72.0563 20.5467 69.6088 16.9433 69.6088 13C69.6088 9.05667 72.0563 5.45329 77.1554 5.45329C82.2546 5.45329 84.7021 9.05667 84.7021 13C84.7021 16.9433 82.2546 20.5467 77.1554 20.5467ZM81.4387 13C81.4387 10.5524 79.943 8.37678 77.1554 8.37678C74.3679 8.37678 72.8722 10.6204 72.8722 13C72.8722 15.3796 74.3679 17.6232 77.1554 17.6232C79.943 17.6232 81.4387 15.3796 81.4387 13Z" fill="var(--fill-0, #502EE9)"/>
<path id="Vector_5" d="M87.0137 20.2068V5.65729H92.3168C96.94 5.65729 97.5519 7.76492 97.5519 9.05669C97.5519 10.3485 96.804 11.7082 95.1723 12.2521C96.4641 12.5241 98.3677 13.272 98.3677 15.9235C98.3677 18.575 96.4641 20.2068 92.5887 20.2068H87.0137ZM92.7927 11.5043C94.2205 11.5043 94.8323 10.7564 94.8323 9.80457C94.8323 8.85273 94.2884 8.17286 92.7927 8.17286H89.8012V11.5043H92.7927ZM93.1326 17.7592C94.9683 17.7592 95.4443 16.8753 95.4443 15.9235C95.4443 14.9717 94.9683 14.0878 93.1326 14.0878H89.8692V17.8272H93.1326V17.7592Z" fill="var(--fill-0, #502EE9)"/>
<path id="Vector_6" d="M100.543 20.2068V5.65729H103.399V20.2068H100.543Z" fill="var(--fill-0, #502EE9)"/>
<path id="Vector_7" d="M109.722 20.2067V8.58073H105.439V5.72522H116.657V8.58073H112.441V20.2067H109.722Z" fill="var(--fill-0, #502EE9)"/>
<path id="Vector_8" d="M39.422 20.2068L36.4986 14.4957C36.8385 14.2918 37.1784 14.0878 37.5184 13.7479C37.7903 13.4759 38.0623 13.136 38.3342 12.796C38.5382 12.4561 38.7422 12.0482 38.8782 11.6403C39.0141 11.2323 39.0821 10.8244 39.0821 10.3485C39.0821 9.73659 38.9461 9.12469 38.7422 8.5128C38.4702 7.96889 38.1303 7.42498 37.7223 7.01705C37.3144 6.60912 36.7705 6.26918 36.2266 5.99723C35.6827 5.72527 35.0708 5.65729 34.3909 5.65729H28V8.10486H30.8555H32.0793H32.7592C32.9632 8.10486 33.2351 8.10486 33.4391 8.10486C33.6431 8.10486 33.847 8.10486 34.119 8.10486C34.3909 8.10486 34.7309 8.17286 34.9348 8.30884C35.2068 8.44482 35.4107 8.58078 35.6147 8.78475C35.8187 8.98871 35.9547 9.26066 36.0226 9.46463C36.1586 9.73658 36.1586 10.0085 36.1586 10.2805C36.1586 10.5524 36.1586 10.8244 36.0226 11.0963C35.9547 11.3683 35.7507 11.5723 35.6147 11.7762C35.4107 11.9802 35.2068 12.1162 34.9348 12.2521C34.6629 12.3881 34.3909 12.4561 34.119 12.4561C33.983 12.4561 33.847 12.4561 33.779 12.4561H32.5552L33.779 14.9037L36.3626 19.9348H39.49L39.422 20.2068Z" fill="var(--fill-0, #502EE9)"/>
</g>
</g>
</svg>
