<svg preserveAspectRatio="none" width="100%" height="100%" overflow="visible" style="display: block;" viewBox="0 0 149.458 85.8065" fill="none" xmlns="http://www.w3.org/2000/svg">
<g id="Aa">
<path d="M22.0102 84.7308L27.5954 66.9406H56.8458L62.431 84.7308H84.4412L55.8528 0H28.5884L0 84.7308H22.0102ZM32.4774 51.3846L41.8689 21.3482H42.5309L51.9638 51.3846H32.4774Z" fill="var(--fill-0, #502EE9)" fill-opacity="0.1"/>
<path d="M111.478 85.8065C120.332 85.8065 126.455 82.3726 129.93 75.8771H130.427V84.7308H149.458V41.5379C149.458 28.0919 137.501 20.3553 121.325 20.3553C104.238 20.3553 94.5568 28.9607 92.9432 40.545L111.602 41.207C112.471 37.1525 115.822 34.6701 121.159 34.6701C126.124 34.6701 129.268 37.0697 129.268 41.3311V41.5379C129.268 45.427 125.048 46.2544 114.209 47.206C101.342 48.2817 90.585 53.0395 90.585 67.1061C90.585 79.6834 99.3146 85.8065 111.478 85.8065ZM117.725 72.5673C113.05 72.5673 109.74 70.3332 109.74 66.1132C109.74 62.0173 112.968 59.535 118.718 58.6662C122.483 58.1283 127.117 57.3009 129.392 56.1011V62.1414C129.392 68.3473 124.179 72.5673 117.725 72.5673Z" fill="var(--fill-0, #502EE9)" fill-opacity="0.1"/>
</g>
</svg>
