<svg preserveAspectRatio="none" width="100%" height="100%" overflow="visible" style="display: block;" viewBox="0 0 87.1994 108.747" fill="none" xmlns="http://www.w3.org/2000/svg">
<g id="symbol">
<g id="Shade" filter="url(#filter0_d_422_43)">
<path d="M42.6186 62.7863C43.0743 62.5491 43.6167 62.5472 44.074 62.7813L73.6464 77.9203C74.7976 78.5097 74.7976 80.1549 73.6464 80.7442L44.074 95.8833C43.6167 96.1174 43.0743 96.1155 42.6187 95.8782L13.5433 80.7392C12.4051 80.1466 12.4051 78.518 13.5433 77.9254L42.6186 62.7863Z" fill="var(--fill-0, black)" fill-opacity="0.01"/>
</g>
<path id="4" d="M6.61239 25.7571C6.61239 22.9114 8.13706 20.2837 10.6077 18.8715L39.6882 2.2496C42.1268 0.855688 45.1209 0.855685 47.5596 2.24959L76.6401 18.8715C79.1107 20.2837 80.6354 22.9114 80.6354 25.7571V58.8637C80.6354 61.7095 79.1107 64.3371 76.6401 65.7493L47.5596 82.3712C45.1209 83.7652 42.1269 83.7652 39.6882 82.3713L10.6077 65.7493C8.13707 64.3371 6.61239 61.7095 6.61239 58.8637V25.7571Z" fill="var(--fill-0, #FDDCDC)"/>
<path id="3" d="M10.1364 27.4903C10.1364 24.6605 11.6441 22.0451 14.0929 20.627L39.6485 5.82768C42.1069 4.40397 45.1391 4.40397 47.5976 5.82768L73.1531 20.627C75.6019 22.0451 77.1096 24.6605 77.1096 27.4903V57.1308C77.1096 59.9605 75.6019 62.5759 73.1531 63.994L47.5976 78.7934C45.1391 80.2171 42.1069 80.2171 39.6485 78.7934L14.0929 63.994C11.6441 62.5759 10.1364 59.9605 10.1364 57.1308V27.4903Z" fill="var(--fill-0, #FA9797)"/>
<path id="2" d="M43.6234 43.9637C43.6234 40.9121 45.3743 38.1311 48.1261 36.8119L73.3235 24.7334C75.0784 23.8922 77.11 25.1712 77.11 27.1173V57.1308C77.11 59.9606 75.6023 62.576 73.1535 63.9941L47.5919 78.7969C45.8294 79.8176 43.6234 78.5458 43.6234 76.5092L43.6234 61.7029L43.6234 43.9637Z" fill="var(--fill-0, #F43031)"/>
<path id="1" d="M10.1364 27.1235C10.1364 25.1759 12.1709 23.8969 13.926 24.7411L39.1297 36.8635C41.8764 38.1846 43.623 40.9629 43.623 44.0108V73.5806C43.623 73.5806 43.6519 76.128 44.2451 76.9854C44.7536 77.7203 45.571 78.2283 46.3103 78.387C47.3782 78.6162 48.4746 78.2654 48.4746 78.2654L47.6046 78.7728C45.143 80.2086 42.1003 80.2134 39.6342 78.7852L14.0929 63.9941C11.6441 62.576 10.1364 59.9606 10.1364 57.1309V27.1235Z" fill="var(--fill-0, #FF6363)"/>
</g>
<defs>
<filter id="filter0_d_422_43" x="0" y="49.9174" width="87.1994" height="58.8298" filterUnits="userSpaceOnUse" color-interpolation-filters="sRGB">
<feFlood flood-opacity="0" result="BackgroundImageFix"/>
<feColorMatrix in="SourceAlpha" type="matrix" values="0 0 0 0 0 0 0 0 0 0 0 0 0 0 0 0 0 0 127 0" result="hardAlpha"/>
<feOffset/>
<feGaussianBlur stdDeviation="6.34483"/>
<feColorMatrix type="matrix" values="0 0 0 0 0.956863 0 0 0 0 0.188235 0 0 0 0 0.192157 0 0 0 0.4 0"/>
<feBlend mode="normal" in2="BackgroundImageFix" result="effect1_dropShadow_422_43"/>
<feBlend mode="normal" in="SourceGraphic" in2="effect1_dropShadow_422_43" result="shape"/>
</filter>
</defs>
</svg>
