<svg preserveAspectRatio="none" width="100%" height="100%" overflow="visible" style="display: block;" viewBox="0 0 147.854 91.2959" fill="none" xmlns="http://www.w3.org/2000/svg">
<path id="&#234;&#176;&#128;&#235;&#130;&#152;" d="M139.787 51.374H147.854V60.2607H139.787V91.2959H128.781V28.2002H139.787V51.374ZM74.0234 33.3018H85.5469V46.0947H74.0234V90.1377H58.3008V0H74.0234V33.3018ZM101.916 67.1992C110.074 66.9714 118.003 66.0941 125.705 64.5674L126.799 73.6592C118.482 75.3454 109.003 76.1885 98.3613 76.1885H90.9785V34.1475H101.916V67.1992ZM49.4141 8.98535C49.3815 18.8159 48.0794 27.7843 45.5078 35.8896C42.9687 43.9949 38.7206 51.4008 32.7637 58.1064C26.8067 64.8121 18.8475 70.6065 8.88672 75.4893L0 63.5752C6.80327 60.1573 12.5 56.4299 17.0898 52.3936C21.7121 48.3246 25.3744 43.7834 28.0762 38.7705C30.7779 33.7251 32.5683 28.0281 33.4473 21.6807H5.66406V8.98535H49.4141Z" fill="var(--fill-0, #502EE9)" fill-opacity="0.1"/>
</svg>
