{"asset":{"version":"2.0","generator":"babylon.js glTF exporter for 3dsmax 2020 v20200813.4"},"scene":0,"scenes":[{"nodes":[0]}],"nodes":[{"children":[1,2],"scale":[1000.0,1000.0,1000.0],"name":"root"},{"mesh":0,"name":"BK500"},{"name":"Default light"}],"meshes":[{"primitives":[{"attributes":{"POSITION":1,"NORMAL":2,"TEXCOORD_0":3},"indices":0,"material":0}],"name":"BK500"}],"accessors":[{"bufferView":0,"componentType":5123,"count":564,"type":"SCALAR","name":"accessorIndices"},{"bufferView":1,"componentType":5126,"count":564,"max":[0.000745,0.0006600001,0.000204300013],"min":[-0.000745,-0.0006600001,-0.000204300013],"type":"VEC3","name":"accessorPositions"},{"bufferView":1,"byteOffset":6768,"componentType":5126,"count":564,"type":"VEC3","name":"accessorNormals"},{"bufferView":2,"componentType":5126,"count":564,"type":"VEC2","name":"accessorUVs"}],"bufferViews":[{"buffer":0,"byteLength":1128,"name":"bufferViewScalar"},{"buffer":0,"byteOffset":1128,"byteLength":13536,"byteStride":12,"name":"bufferViewFloatVec3"},{"buffer":0,"byteOffset":14664,"byteLength":4512,"byteStride":8,"name":"bufferViewFloatVec2"}],"buffers":[{"uri":"CardReader_BK500.bin","byteLength":19176}],"materials":[{"pbrMetallicRoughness":{"baseColorTexture":{"index":0},"metallicFactor":0.0,"roughnessFactor":0.450053632},"name":"Material #51"}],"textures":[{"sampler":0,"source":0,"name":"BK500.jpg"}],"images":[{"uri":"textues/BK500.jpg"}],"samplers":[{"magFilter":9729,"minFilter":9987}]}