{
  "asset": {
    "version": "2.0",
    "generator": "babylon.js glTF exporter for 3dsmax 2023 v20221031.2"
  },
  "scene": 0,
  "scenes": [
    {
      "nodes": [
        0
      ]
    }
  ],
  "nodes": [
    {
      "children": [
        1,
        2
      ],
      "scale": [
        1000.0,
        1000.0,
        1000.0
      ],
      "name": "root"
    },
    {
      "mesh": 0,
      "translation": [
        0.0,
        -7.415772E-06,
        -5.713083E-09
      ],
      "name": "transmission"
    },
    {
      "mesh": 1,
      "translation": [
        0.0,
        -7.415772E-06,
        -5.713083E-09
      ],
      "name": "mesh"
    }
  ],
  "meshes": [
    {
      "primitives": [
        {
          "attributes": {
            "POSITION": 1,
            "NORMAL": 2,
            "TEXCOORD_0": 3
          },
          "indices": 0,
          "material": 0
        }
      ],
      "name": "transmission"
    },
    {
      "primitives": [
        {
          "attributes": {
            "POSITION": 5,
            "NORMAL": 6,
            "TEXCOORD_0": 7
          },
          "indices": 4,
          "material": 1
        }
      ],
      "name": "mesh"
    }
  ],
  "accessors": [
    {
      "bufferView": 0,
      "componentType": 5123,
      "count": 33456,
      "type": "SCALAR",
      "name": "accessorIndices"
    },
    {
      "bufferView": 1,
      "componentType": 5126,
      "count": 20568,
      "max": [
        0.0460775,
        0.262244433,
        0.0462621152
      ],
      "min": [
        -0.0460775,
        -9.186E-06,
        -0.0462620966
      ],
      "type": "VEC3",
      "name": "accessorPositions"
    },
    {
      "bufferView": 1,
      "byteOffset": 246816,
      "componentType": 5126,
      "count": 20568,
      "type": "VEC3",
      "name": "accessorNormals"
    },
    {
      "bufferView": 2,
      "componentType": 5126,
      "count": 20568,
      "type": "VEC2",
      "name": "accessorUVs"
    },
    {
      "bufferView": 0,
      "byteOffset": 66912,
      "componentType": 5123,
      "count": 3312,
      "type": "SCALAR",
      "name": "accessorIndices"
    },
    {
      "bufferView": 1,
      "byteOffset": 493632,
      "componentType": 5126,
      "count": 2009,
      "max": [
        0.0137713021,
        0.152823836,
        0.0136008067
      ],
      "min": [
        -0.0144865,
        0.146278426,
        -0.014227597
      ],
      "type": "VEC3",
      "name": "accessorPositions"
    },
    {
      "bufferView": 1,
      "byteOffset": 517740,
      "componentType": 5126,
      "count": 2009,
      "type": "VEC3",
      "name": "accessorNormals"
    },
    {
      "bufferView": 2,
      "byteOffset": 164544,
      "componentType": 5126,
      "count": 2009,
      "type": "VEC2",
      "name": "accessorUVs"
    }
  ],
  "bufferViews": [
    {
      "buffer": 0,
      "byteLength": 73536,
      "name": "bufferViewScalar"
    },
    {
      "buffer": 0,
      "byteOffset": 73536,
      "byteLength": 541848,
      "byteStride": 12,
      "name": "bufferViewFloatVec3"
    },
    {
      "buffer": 0,
      "byteOffset": 615384,
      "byteLength": 180616,
      "byteStride": 8,
      "name": "bufferViewFloatVec2"
    }
  ],
  "buffers": [
    {
      "uri": "transmission_Tower02.bin",
      "byteLength": 796000
    }
  ],
  "materials": [
    {
      "pbrMetallicRoughness": {
        "baseColorTexture": {
          "index": 0
        },
        "metallicFactor": 0.0,
        "roughnessFactor": -2.02441
      },
      "doubleSided": true,
      "name": "04_Design실\\3D컴포넌트\\송전탑\\untitled_Material__27",
      "extras": {
        "babylonSeparateCullingPass": false
      }
    },
    {
      "pbrMetallicRoughness": {
        "baseColorTexture": {
          "index": 1
        },
        "metallicFactor": 0.0,
        "roughnessFactor": -2.02441
      },
      "doubleSided": true,
      "name": "04_Design실\\3D컴포넌트\\송전탑\\untitled_Material__26_001",
      "extras": {
        "babylonSeparateCullingPass": false
      }
    }
  ],
  "textures": [
    {
      "sampler": 0,
      "source": 0,
      "name": "transmission.jpg"
    },
    {
      "sampler": 0,
      "source": 1,
      "name": "mesh.png"
    }
  ],
  "images": [
    {
      "uri": "textures/transmission.jpg"
    },
    {
      "uri": "textures/mesh.png"
    }
  ],
  "samplers": [
    {
      "magFilter": 9729,
      "minFilter": 9987
    }
  ]
}