{
  "asset": {
    "version": "2.0",
    "generator": "babylon.js glTF exporter for 3dsmax 2023 v20220628.14"
  },
  "scene": 0,
  "scenes": [
    {
      "nodes": [
        0
      ]
    }
  ],
  "nodes": [
    {
      "children": [
        1,
        2,
        3
      ],
      "name": "MCCB"
    },
    {
      "mesh": 0,
      "rotation": [
        0.7071068,
        0.0,
        0.0,
        0.7071067
      ],
      "name": "Object299"
    },
    {
      "mesh": 1,
      "translation": [
        0.0,
        7.8125E-06,
        0.0203125011
      ],
      "rotation": [
        0.7071068,
        0.0,
        0.0,
        0.7071067
      ],
      "name": "Object300"
    },
    {
      "mesh": 2,
      "translation": [
        0.0,
        0.0219609383,
        0.0224375017
      ],
      "rotation": [
        0.7071068,
        0.0,
        0.0,
        0.7071067
      ],
      "name": "Rectangle180"
    }
  ],
  "meshes": [
    {
      "primitives": [
        {
          "attributes": {
            "POSITION": 1,
            "NORMAL": 2,
            "TEXCOORD_0": 3
          },
          "indices": 0,
          "material": 0
        }
      ],
      "name": "Object299"
    },
    {
      "primitives": [
        {
          "attributes": {
            "POSITION": 5,
            "NORMAL": 6,
            "TEXCOORD_0": 7
          },
          "indices": 4,
          "material": 1
        }
      ],
      "name": "Object300"
    },
    {
      "primitives": [
        {
          "attributes": {
            "POSITION": 9,
            "NORMAL": 10
          },
          "indices": 8,
          "material": 2
        }
      ],
      "name": "Rectangle180"
    }
  ],
  "accessors": [
    {
      "bufferView": 0,
      "componentType": 5123,
      "count": 330,
      "type": "SCALAR",
      "name": "accessorIndices"
    },
    {
      "bufferView": 1,
      "componentType": 5126,
      "count": 160,
      "max": [
        0.05159375,
        0.0449111722,
        0.0994448438
      ],
      "min": [
        -0.05159375,
        -0.04489064,
        -0.09944556
      ],
      "type": "VEC3",
      "name": "accessorPositions"
    },
    {
      "bufferView": 1,
      "byteOffset": 1920,
      "componentType": 5126,
      "count": 160,
      "type": "VEC3",
      "name": "accessorNormals"
    },
    {
      "bufferView": 2,
      "componentType": 5126,
      "count": 160,
      "type": "VEC2",
      "name": "accessorUVs"
    },
    {
      "bufferView": 0,
      "byteOffset": 660,
      "componentType": 5123,
      "count": 114,
      "type": "SCALAR",
      "name": "accessorIndices"
    },
    {
      "bufferView": 1,
      "byteOffset": 3840,
      "componentType": 5126,
      "count": 60,
      "max": [
        0.05159375,
        0.00655273767,
        0.0978089347
      ],
      "min": [
        -0.05159375,
        -0.006542187,
        -0.0978095159
      ],
      "type": "VEC3",
      "name": "accessorPositions"
    },
    {
      "bufferView": 1,
      "byteOffset": 4560,
      "componentType": 5126,
      "count": 60,
      "type": "VEC3",
      "name": "accessorNormals"
    },
    {
      "bufferView": 2,
      "byteOffset": 1280,
      "componentType": 5126,
      "count": 60,
      "type": "VEC2",
      "name": "accessorUVs"
    },
    {
      "bufferView": 0,
      "byteOffset": 888,
      "componentType": 5123,
      "count": 228,
      "type": "SCALAR",
      "name": "accessorIndices"
    },
    {
      "bufferView": 1,
      "byteOffset": 5280,
      "componentType": 5126,
      "count": 132,
      "max": [
        0.05159375,
        0.007819878,
        0.0547690466
      ],
      "min": [
        -0.05159375,
        -0.00779688,
        -0.0547697768
      ],
      "type": "VEC3",
      "name": "accessorPositions"
    },
    {
      "bufferView": 1,
      "byteOffset": 6864,
      "componentType": 5126,
      "count": 132,
      "type": "VEC3",
      "name": "accessorNormals"
    }
  ],
  "bufferViews": [
    {
      "buffer": 0,
      "byteLength": 1344,
      "name": "bufferViewScalar"
    },
    {
      "buffer": 0,
      "byteOffset": 1344,
      "byteLength": 8448,
      "byteStride": 12,
      "name": "bufferViewFloatVec3"
    },
    {
      "buffer": 0,
      "byteOffset": 9792,
      "byteLength": 1760,
      "byteStride": 8,
      "name": "bufferViewFloatVec2"
    }
  ],
  "buffers": [
    {
      "uri": "MCCB.bin",
      "byteLength": 11552
    }
  ],
  "materials": [
    {
      "pbrMetallicRoughness": {
        "baseColorFactor": [
          0.165876776,
          0.165876776,
          0.165876776,
          1.0
        ],
        "roughnessFactor": 0.5
      },
      "name": "GRAY"
    },
    {
      "pbrMetallicRoughness": {
        "baseColorTexture": {
          "index": 0
        }
      },
      "alphaMode": "BLEND",
      "doubleSided": true,
      "name": "MCCB"
    },
    {
      "pbrMetallicRoughness": {
        "baseColorFactor": [
          0.744075835,
          0.744075835,
          0.744075835,
          1.0
        ],
        "roughnessFactor": 0.5
      },
      "name": "WHITE"
    }
  ],
  "textures": [
    {
      "sampler": 0,
      "source": 0,
      "name": "MCCB.png"
    }
  ],
  "images": [
    {
      "uri": "textures/MCCB.png"
    }
  ],
  "samplers": [
    {
      "magFilter": 9729,
      "minFilter": 9987
    }
  ]
}