{
  "asset": {
    "version": "2.0",
    "generator": "babylon.js glTF exporter for 3dsmax 2023 v20221031.2"
  },
  "scene": 0,
  "scenes": [
    {
      "nodes": [
        0
      ]
    }
  ],
  "nodes": [
    {
      "children": [
        1,
        2,
        3,
        4,
        5,
        6,
        7,
        8
      ],
      "scale": [
        1000.0,
        1000.0,
        1000.0
      ],
      "name": "root"
    },
    {
      "mesh": 0,
      "translation": [
        1.94702152E-05,
        0.034319602,
        0.0
      ],
      "name": "grass"
    },
    {
      "mesh": 1,
      "translation": [
        1.94702152E-05,
        0.034319602,
        0.0
      ],
      "name": "commonCarBlue"
    },
    {
      "mesh": 2,
      "translation": [
        1.94702152E-05,
        0.034319602,
        0.0
      ],
      "name": "road"
    },
    {
      "mesh": 3,
      "translation": [
        1.94702152E-05,
        0.034319602,
        0.0
      ],
      "name": "commonCarWhite"
    },
    {
      "mesh": 4,
      "translation": [
        1.94702152E-05,
        0.034319602,
        0.0
      ],
      "name": "commonGaro"
    },
    {
      "mesh": 5,
      "translation": [
        1.94702152E-05,
        0.034319602,
        0.0
      ],
      "name": "tree01_A"
    },
    {
      "mesh": 6,
      "translation": [
        1.94702152E-05,
        0.034319602,
        0.0
      ],
      "name": "tree02_A"
    },
    {
      "mesh": 7,
      "translation": [
        1.94702152E-05,
        0.034319602,
        0.0
      ],
      "name": "logo"
    }
  ],
  "meshes": [
    {
      "primitives": [
        {
          "attributes": {
            "POSITION": 1,
            "NORMAL": 2,
            "TEXCOORD_0": 3
          },
          "indices": 0,
          "material": 0
        }
      ],
      "name": "grass"
    },
    {
      "primitives": [
        {
          "attributes": {
            "POSITION": 5,
            "NORMAL": 6,
            "TEXCOORD_0": 7
          },
          "indices": 4,
          "material": 1
        }
      ],
      "name": "commonCarBlue"
    },
    {
      "primitives": [
        {
          "attributes": {
            "POSITION": 9,
            "NORMAL": 10,
            "TEXCOORD_0": 11
          },
          "indices": 8,
          "material": 2
        }
      ],
      "name": "road"
    },
    {
      "primitives": [
        {
          "attributes": {
            "POSITION": 13,
            "NORMAL": 14,
            "TEXCOORD_0": 15
          },
          "indices": 12,
          "material": 3
        }
      ],
      "name": "commonCarWhite"
    },
    {
      "primitives": [
        {
          "attributes": {
            "POSITION": 17,
            "NORMAL": 18,
            "TEXCOORD_0": 19
          },
          "indices": 16,
          "material": 4
        }
      ],
      "name": "commonGaro"
    },
    {
      "primitives": [
        {
          "attributes": {
            "POSITION": 21,
            "NORMAL": 22,
            "TEXCOORD_0": 23
          },
          "indices": 20,
          "material": 5
        }
      ],
      "name": "tree01_A"
    },
    {
      "primitives": [
        {
          "attributes": {
            "POSITION": 25,
            "NORMAL": 26,
            "TEXCOORD_0": 27
          },
          "indices": 24,
          "material": 6
        }
      ],
      "name": "tree02_A"
    },
    {
      "primitives": [
        {
          "attributes": {
            "POSITION": 29,
            "NORMAL": 30,
            "TEXCOORD_0": 31
          },
          "indices": 28,
          "material": 7
        }
      ],
      "name": "logo"
    }
  ],
  "accessors": [
    {
      "bufferView": 0,
      "componentType": 5123,
      "count": 5046,
      "type": "SCALAR",
      "name": "accessorIndices"
    },
    {
      "bufferView": 1,
      "componentType": 5126,
      "count": 2716,
      "max": [
        0.545052469,
        -0.0323857032,
        0.535159945
      ],
      "min": [
        -0.547128737,
        -0.0362536,
        -0.535159945
      ],
      "type": "VEC3",
      "name": "accessorPositions"
    },
    {
      "bufferView": 1,
      "byteOffset": 32592,
      "componentType": 5126,
      "count": 2716,
      "type": "VEC3",
      "name": "accessorNormals"
    },
    {
      "bufferView": 2,
      "componentType": 5126,
      "count": 2716,
      "type": "VEC2",
      "name": "accessorUVs"
    },
    {
      "bufferView": 0,
      "byteOffset": 10092,
      "componentType": 5123,
      "count": 9930,
      "type": "SCALAR",
      "name": "accessorIndices"
    },
    {
      "bufferView": 1,
      "byteOffset": 65184,
      "componentType": 5126,
      "count": 4660,
      "max": [
        0.441096336,
        -0.0202641,
        0.447960317
      ],
      "min": [
        -0.175208,
        -0.0370420031,
        -0.1435143
      ],
      "type": "VEC3",
      "name": "accessorPositions"
    },
    {
      "bufferView": 1,
      "byteOffset": 121104,
      "componentType": 5126,
      "count": 4660,
      "type": "VEC3",
      "name": "accessorNormals"
    },
    {
      "bufferView": 2,
      "byteOffset": 21728,
      "componentType": 5126,
      "count": 4660,
      "type": "VEC2",
      "name": "accessorUVs"
    },
    {
      "bufferView": 0,
      "byteOffset": 29952,
      "componentType": 5123,
      "count": 1512,
      "type": "SCALAR",
      "name": "accessorIndices"
    },
    {
      "bufferView": 1,
      "byteOffset": 177024,
      "componentType": 5126,
      "count": 680,
      "max": [
        0.545052052,
        -0.0052934,
        0.535159945
      ],
      "min": [
        -0.5471282,
        -0.0401216038,
        -0.535159767
      ],
      "type": "VEC3",
      "name": "accessorPositions"
    },
    {
      "bufferView": 1,
      "byteOffset": 185184,
      "componentType": 5126,
      "count": 680,
      "type": "VEC3",
      "name": "accessorNormals"
    },
    {
      "bufferView": 2,
      "byteOffset": 59008,
      "componentType": 5126,
      "count": 680,
      "type": "VEC2",
      "name": "accessorUVs"
    },
    {
      "bufferView": 0,
      "byteOffset": 32976,
      "componentType": 5123,
      "count": 9930,
      "type": "SCALAR",
      "name": "accessorIndices"
    },
    {
      "bufferView": 1,
      "byteOffset": 193344,
      "componentType": 5126,
      "count": 4660,
      "max": [
        0.262874216,
        -0.0202641,
        0.362731129
      ],
      "min": [
        -0.422995418,
        -0.0370416,
        -0.427039921
      ],
      "type": "VEC3",
      "name": "accessorPositions"
    },
    {
      "bufferView": 1,
      "byteOffset": 249264,
      "componentType": 5126,
      "count": 4660,
      "type": "VEC3",
      "name": "accessorNormals"
    },
    {
      "bufferView": 2,
      "byteOffset": 64448,
      "componentType": 5126,
      "count": 4660,
      "type": "VEC2",
      "name": "accessorUVs"
    },
    {
      "bufferView": 0,
      "byteOffset": 52836,
      "componentType": 5123,
      "count": 22692,
      "type": "SCALAR",
      "name": "accessorIndices"
    },
    {
      "bufferView": 1,
      "byteOffset": 305184,
      "componentType": 5126,
      "count": 10230,
      "max": [
        0.4975987,
        0.0210706014,
        0.468322
      ],
      "min": [
        -0.481733322,
        -0.0362537019,
        -0.4672631
      ],
      "type": "VEC3",
      "name": "accessorPositions"
    },
    {
      "bufferView": 1,
      "byteOffset": 427944,
      "componentType": 5126,
      "count": 10230,
      "type": "VEC3",
      "name": "accessorNormals"
    },
    {
      "bufferView": 2,
      "byteOffset": 101728,
      "componentType": 5126,
      "count": 10230,
      "type": "VEC2",
      "name": "accessorUVs"
    },
    {
      "bufferView": 0,
      "byteOffset": 98220,
      "componentType": 5123,
      "count": 372,
      "type": "SCALAR",
      "name": "accessorIndices"
    },
    {
      "bufferView": 1,
      "byteOffset": 550704,
      "componentType": 5126,
      "count": 248,
      "max": [
        0.5470898,
        0.0401216038,
        0.534156144
      ],
      "min": [
        -0.5392373,
        -0.0345993,
        -0.5282195
      ],
      "type": "VEC3",
      "name": "accessorPositions"
    },
    {
      "bufferView": 1,
      "byteOffset": 553680,
      "componentType": 5126,
      "count": 248,
      "type": "VEC3",
      "name": "accessorNormals"
    },
    {
      "bufferView": 2,
      "byteOffset": 183568,
      "componentType": 5126,
      "count": 248,
      "type": "VEC2",
      "name": "accessorUVs"
    },
    {
      "bufferView": 0,
      "byteOffset": 98964,
      "componentType": 5123,
      "count": 156,
      "type": "SCALAR",
      "name": "accessorIndices"
    },
    {
      "bufferView": 1,
      "byteOffset": 556656,
      "componentType": 5126,
      "count": 104,
      "max": [
        0.544296,
        0.0275161,
        0.5261393
      ],
      "min": [
        -0.5337721,
        -0.0345993,
        -0.5197021
      ],
      "type": "VEC3",
      "name": "accessorPositions"
    },
    {
      "bufferView": 1,
      "byteOffset": 557904,
      "componentType": 5126,
      "count": 104,
      "type": "VEC3",
      "name": "accessorNormals"
    },
    {
      "bufferView": 2,
      "byteOffset": 185552,
      "componentType": 5126,
      "count": 104,
      "type": "VEC2",
      "name": "accessorUVs"
    },
    {
      "bufferView": 0,
      "byteOffset": 99276,
      "componentType": 5123,
      "count": 168,
      "type": "SCALAR",
      "name": "accessorIndices"
    },
    {
      "bufferView": 1,
      "byteOffset": 559152,
      "componentType": 5126,
      "count": 112,
      "max": [
        0.038605202,
        -0.00113100011,
        0.202601
      ],
      "min": [
        -0.0622357,
        -0.0336824022,
        -0.2633979
      ],
      "type": "VEC3",
      "name": "accessorPositions"
    },
    {
      "bufferView": 1,
      "byteOffset": 560496,
      "componentType": 5126,
      "count": 112,
      "type": "VEC3",
      "name": "accessorNormals"
    },
    {
      "bufferView": 2,
      "byteOffset": 186384,
      "componentType": 5126,
      "count": 112,
      "type": "VEC2",
      "name": "accessorUVs"
    }
  ],
  "bufferViews": [
    {
      "buffer": 0,
      "byteLength": 99612,
      "name": "bufferViewScalar"
    },
    {
      "buffer": 0,
      "byteOffset": 99612,
      "byteLength": 561840,
      "byteStride": 12,
      "name": "bufferViewFloatVec3"
    },
    {
      "buffer": 0,
      "byteOffset": 661452,
      "byteLength": 187280,
      "byteStride": 8,
      "name": "bufferViewFloatVec2"
    }
  ],
  "buffers": [
    {
      "uri": "StandardSite02.bin",
      "byteLength": 848732
    }
  ],
  "materials": [
    {
      "pbrMetallicRoughness": {
        "baseColorTexture": {
          "index": 0
        },
        "metallicFactor": 0.0,
        "roughnessFactor": 0.450053632
      },
      "name": "Material #-2147483630"
    },
    {
      "pbrMetallicRoughness": {
        "baseColorTexture": {
          "index": 1
        },
        "metallicFactor": 0.0,
        "roughnessFactor": 0.450053632
      },
      "name": "Material #-2147483633"
    },
    {
      "pbrMetallicRoughness": {
        "baseColorTexture": {
          "index": 2
        },
        "metallicFactor": 0.0,
        "roughnessFactor": 0.450053632
      },
      "name": "Material #-2147483628"
    },
    {
      "pbrMetallicRoughness": {
        "baseColorTexture": {
          "index": 3
        },
        "metallicFactor": 0.0,
        "roughnessFactor": 0.450053632
      },
      "name": "Material #-2147483632"
    },
    {
      "pbrMetallicRoughness": {
        "baseColorTexture": {
          "index": 4
        },
        "metallicFactor": 0.0,
        "roughnessFactor": 0.450053632
      },
      "name": "Material #-2147483631"
    },
    {
      "pbrMetallicRoughness": {
        "baseColorTexture": {
          "index": 5
        },
        "metallicFactor": 0.0,
        "roughnessFactor": 0.450053632
      },
      "doubleSided": true,
      "name": "Material #-2147483635"
    },
    {
      "pbrMetallicRoughness": {
        "baseColorTexture": {
          "index": 6
        },
        "metallicFactor": 0.0,
        "roughnessFactor": 0.450053632
      },
      "doubleSided": true,
      "name": "Material #-2147483634"
    },
    {
      "pbrMetallicRoughness": {
        "baseColorTexture": {
          "index": 7
        },
        "metallicFactor": 0.0,
        "roughnessFactor": 0.450053632
      },
      "name": "Material #-2147483629"
    }
  ],
  "textures": [
    {
      "sampler": 0,
      "source": 0,
      "name": "grass.jpg"
    },
    {
      "sampler": 0,
      "source": 1,
      "name": "commonCarBlue.jpg"
    },
    {
      "sampler": 0,
      "source": 2,
      "name": "road.jpg"
    },
    {
      "sampler": 0,
      "source": 3,
      "name": "commonCarWhite.jpg"
    },
    {
      "sampler": 0,
      "source": 4,
      "name": "commonGaro.jpg"
    },
    {
      "sampler": 0,
      "source": 5,
      "name": "tree01_A.png"
    },
    {
      "sampler": 0,
      "source": 6,
      "name": "tree02_A.png"
    },
    {
      "sampler": 0,
      "source": 7,
      "name": "logo.jpg"
    }
  ],
  "images": [
    {
      "uri": "texture/grass.jpg"
    },
    {
      "uri": "texture/commonCarBlue.jpg"
    },
    {
      "uri": "texture/road.jpg"
    },
    {
      "uri": "texture/commonCarWhite.jpg"
    },
    {
      "uri": "texture/commonGaro.jpg"
    },
    {
      "uri": "texture/tree01_A.png"
    },
    {
      "uri": "texture/tree02_A.png"
    },
    {
      "uri": "texture/logo.jpg"
    }
  ],
  "samplers": [
    {
      "magFilter": 9729,
      "minFilter": 9987
    }
  ]
}