{
  "asset": {
    "version": "2.0",
    "generator": "babylon.js glTF exporter for 3dsmax 2023 v20220628.14"
  },
  "scene": 0,
  "scenes": [
    {
      "nodes": [
        0
      ]
    }
  ],
  "nodes": [
    {
      "children": [
        1,
        2,
        3
      ],
      "translation": [
        2.44140642E-06,
        0.0,
        9.765625E-07
      ],
      "name": "P2400CH"
    },
    {
      "mesh": 0,
      "translation": [
        -2.44140642E-06,
        0.0,
        0.0748115256
      ],
      "name": "P300C_004"
    },
    {
      "mesh": 1,
      "translation": [
        -2.44140642E-06,
        0.0,
        -0.000244140625
      ],
      "name": "P300C_006"
    },
    {
      "mesh": 2,
      "translation": [
        0.0,
        -0.0009995118,
        0.00330664078
      ],
      "name": "P300C_008"
    }
  ],
  "meshes": [
    {
      "primitives": [
        {
          "attributes": {
            "POSITION": 1,
            "NORMAL": 2,
            "TEXCOORD_0": 3
          },
          "indices": 0,
          "material": 0
        }
      ],
      "name": "P300C_004"
    },
    {
      "primitives": [
        {
          "attributes": {
            "POSITION": 5,
            "NORMAL": 6,
            "TEXCOORD_0": 7
          },
          "indices": 4,
          "material": 1
        }
      ],
      "name": "P300C_006"
    },
    {
      "primitives": [
        {
          "attributes": {
            "POSITION": 9,
            "NORMAL": 10,
            "TEXCOORD_0": 11
          },
          "indices": 8,
          "material": 2
        }
      ],
      "name": "P300C_008"
    }
  ],
  "accessors": [
    {
      "bufferView": 0,
      "componentType": 5123,
      "count": 6,
      "type": "SCALAR",
      "name": "accessorIndices"
    },
    {
      "bufferView": 1,
      "componentType": 5126,
      "count": 4,
      "max": [
        0.06424707,
        0.0337470733,
        0.0
      ],
      "min": [
        -0.06424707,
        -0.0337470733,
        0.0
      ],
      "type": "VEC3",
      "name": "accessorPositions"
    },
    {
      "bufferView": 1,
      "byteOffset": 48,
      "componentType": 5126,
      "count": 4,
      "type": "VEC3",
      "name": "accessorNormals"
    },
    {
      "bufferView": 2,
      "componentType": 5126,
      "count": 4,
      "type": "VEC2",
      "name": "accessorUVs"
    },
    {
      "bufferView": 0,
      "byteOffset": 12,
      "componentType": 5123,
      "count": 396,
      "type": "SCALAR",
      "name": "accessorIndices"
    },
    {
      "bufferView": 1,
      "byteOffset": 96,
      "componentType": 5126,
      "count": 212,
      "max": [
        0.076500006,
        0.0460000038,
        0.0779121146
      ],
      "min": [
        -0.076500006,
        -0.0460000038,
        -0.07791407
      ],
      "type": "VEC3",
      "name": "accessorPositions"
    },
    {
      "bufferView": 1,
      "byteOffset": 2640,
      "componentType": 5126,
      "count": 212,
      "type": "VEC3",
      "name": "accessorNormals"
    },
    {
      "bufferView": 2,
      "byteOffset": 32,
      "componentType": 5126,
      "count": 212,
      "type": "VEC2",
      "name": "accessorUVs"
    },
    {
      "bufferView": 0,
      "byteOffset": 804,
      "componentType": 5123,
      "count": 168,
      "type": "SCALAR",
      "name": "accessorIndices"
    },
    {
      "bufferView": 1,
      "byteOffset": 5184,
      "componentType": 5126,
      "count": 112,
      "max": [
        0.07650391,
        0.02385254,
        0.07484961
      ],
      "min": [
        -0.0765029341,
        -0.0238515642,
        -0.0748515651
      ],
      "type": "VEC3",
      "name": "accessorPositions"
    },
    {
      "bufferView": 1,
      "byteOffset": 6528,
      "componentType": 5126,
      "count": 112,
      "type": "VEC3",
      "name": "accessorNormals"
    },
    {
      "bufferView": 2,
      "byteOffset": 1728,
      "componentType": 5126,
      "count": 112,
      "type": "VEC2",
      "name": "accessorUVs"
    }
  ],
  "bufferViews": [
    {
      "buffer": 0,
      "byteLength": 1140,
      "name": "bufferViewScalar"
    },
    {
      "buffer": 0,
      "byteOffset": 1140,
      "byteLength": 7872,
      "byteStride": 12,
      "name": "bufferViewFloatVec3"
    },
    {
      "buffer": 0,
      "byteOffset": 9012,
      "byteLength": 2624,
      "byteStride": 8,
      "name": "bufferViewFloatVec2"
    }
  ],
  "buffers": [
    {
      "uri": "P2400CH.bin",
      "byteLength": 11636
    }
  ],
  "materials": [
    {
      "pbrMetallicRoughness": {
        "baseColorTexture": {
          "index": 0
        }
      },
      "doubleSided": true,
      "name": "P2400CH"
    },
    {
      "pbrMetallicRoughness": {
        "baseColorFactor": [
          0.06453135,
          0.06987714,
          0.08056872,
          1.0
        ],
        "roughnessFactor": 0.5
      },
      "name": "dGRAY"
    },
    {
      "pbrMetallicRoughness": {
        "baseColorFactor": [
          0.052,
          0.052,
          0.052,
          1.0
        ],
        "roughnessFactor": 0.5
      },
      "doubleSided": true,
      "name": "black"
    }
  ],
  "textures": [
    {
      "sampler": 0,
      "source": 0,
      "name": "P2400CH.jpg"
    }
  ],
  "images": [
    {
      "uri": "textures/P2400CH.jpg"
    }
  ],
  "samplers": [
    {
      "magFilter": 9729,
      "minFilter": 9987
    }
  ]
}