{"asset":{"version":"2.0","generator":"babylon.js glTF exporter for 3dsmax 2020 v20221031.2"},"scene":0,"scenes":[{"nodes":[0]}],"nodes":[{"children":[1],"scale":[1000.0,1000.0,1000.0],"name":"root"},{"mesh":0,"rotation":[0.0,0.7071068,0.0,0.7071067],"name":"partitionSmall"}],"meshes":[{"primitives":[{"attributes":{"POSITION":1,"NORMAL":2,"TEXCOORD_0":3},"indices":0,"material":0}],"name":"partitionSmall"}],"accessors":[{"bufferView":0,"componentType":5123,"count":294,"type":"SCALAR","name":"accessorIndices"},{"bufferView":1,"componentType":5126,"count":128,"max":[9.191356E-05,0.003788828,0.00675000064],"min":[-9.191306E-05,9.536744E-10,-0.00675],"type":"VEC3","name":"accessorPositions"},{"bufferView":1,"byteOffset":1536,"componentType":5126,"count":128,"type":"VEC3","name":"accessorNormals"},{"bufferView":2,"componentType":5126,"count":128,"type":"VEC2","name":"accessorUVs"}],"bufferViews":[{"buffer":0,"byteLength":588,"name":"bufferViewScalar"},{"buffer":0,"byteOffset":588,"byteLength":3072,"byteStride":12,"name":"bufferViewFloatVec3"},{"buffer":0,"byteOffset":3660,"byteLength":1024,"byteStride":8,"name":"bufferViewFloatVec2"}],"buffers":[{"uri":"Partition_small.bin","byteLength":4684}],"materials":[{"pbrMetallicRoughness":{"baseColorTexture":{"index":0},"metallicFactor":0.0,"roughnessFactor":0.450053632},"name":"Material #25192005"}],"textures":[{"sampler":0,"source":0,"name":"partitionSmall.jpg"}],"images":[{"uri":"textures/partitionSmall.jpg"}],"samplers":[{"magFilter":9729,"minFilter":9987}]}