{"asset":{"version":"2.0","generator":"babylon.js glTF exporter for 3dsmax 2020 v20200813.4"},"scene":0,"scenes":[{"nodes":[0]}],"nodes":[{"children":[1,2],"scale":[1000.0,1000.0,1000.0],"name":"root"},{"mesh":0,"translation":[0.0,0.0,-0.00010015742],"name":"MarkerMonitorNozzle_A"},{"name":"Default light"}],"meshes":[{"primitives":[{"attributes":{"POSITION":1,"NORMAL":2,"TEXCOORD_0":3},"indices":0,"material":0}],"name":"MarkerMonitorNozzle_A"}],"accessors":[{"bufferView":0,"componentType":5123,"count":60,"type":"SCALAR","name":"accessorIndices"},{"bufferView":1,"componentType":5126,"count":60,"max":[0.0029696722,0.00342908176,0.000100158279],"min":[-0.0029696722,-0.00342908176,-0.000100158271],"type":"VEC3","name":"accessorPositions"},{"bufferView":1,"byteOffset":720,"componentType":5126,"count":60,"type":"VEC3","name":"accessorNormals"},{"bufferView":2,"componentType":5126,"count":60,"type":"VEC2","name":"accessorUVs"}],"bufferViews":[{"buffer":0,"byteLength":120,"name":"bufferViewScalar"},{"buffer":0,"byteOffset":120,"byteLength":1440,"byteStride":12,"name":"bufferViewFloatVec3"},{"buffer":0,"byteOffset":1560,"byteLength":480,"byteStride":8,"name":"bufferViewFloatVec2"}],"buffers":[{"uri":"Marker_MonitorNozzle.bin","byteLength":2040}],"materials":[{"pbrMetallicRoughness":{"baseColorTexture":{"index":0},"metallicFactor":0.0,"roughnessFactor":0.450053632},"name":"Material #42"}],"textures":[{"sampler":0,"source":0,"name":"MarkerMonitorNozzle_A.png"}],"images":[{"uri":"textures/MarkerMonitorNozzle_A.png"}],"samplers":[{"magFilter":9729,"minFilter":9987}]}