{
  "asset": {
    "version": "2.0",
    "generator": "babylon.js glTF exporter for 3dsmax 2023 v20221031.2"
  },
  "scene": 0,
  "scenes": [
    {
      "nodes": [
        0
      ]
    }
  ],
  "nodes": [
    {
      "children": [
        1,
        2,
        3
      ],
      "scale": [
        1000.0,
        1000.0,
        1000.0
      ],
      "name": "root"
    },
    {
      "mesh": 0,
      "translation": [
        0.0,
        0.008634365,
        3.774201E-10
      ],
      "rotation": [
        0.0,
        -0.7071068,
        0.0,
        0.7071067
      ],
      "scale": [
        0.149999991,
        0.149999991,
        0.149999991
      ],
      "name": "winConditioner"
    },
    {
      "mesh": 1,
      "translation": [
        -0.00444932375,
        0.0162460636,
        -3.42945356E-07
      ],
      "rotation": [
        0.0,
        -0.7071068,
        0.0,
        0.7071067
      ],
      "scale": [
        0.149999991,
        0.149999991,
        0.149999991
      ],
      "name": "metalFan03"
    },
    {
      "mesh": 2,
      "translation": [
        0.00444932561,
        0.0162460636,
        -3.42945356E-07
      ],
      "rotation": [
        0.0,
        -0.7071068,
        0.0,
        0.7071067
      ],
      "scale": [
        0.149999991,
        0.149999991,
        0.149999991
      ],
      "name": "metalFan04"
    }
  ],
  "meshes": [
    {
      "primitives": [
        {
          "attributes": {
            "POSITION": 1,
            "NORMAL": 2,
            "COLOR_0": 3,
            "TEXCOORD_0": 4
          },
          "indices": 0,
          "material": 0
        }
      ],
      "name": "winConditioner"
    },
    {
      "primitives": [
        {
          "attributes": {
            "POSITION": 6,
            "NORMAL": 7,
            "COLOR_0": 8,
            "TEXCOORD_0": 9
          },
          "indices": 5,
          "material": 1
        }
      ],
      "name": "metalFan03"
    },
    {
      "primitives": [
        {
          "attributes": {
            "POSITION": 11,
            "NORMAL": 12,
            "COLOR_0": 13,
            "TEXCOORD_0": 14
          },
          "indices": 10,
          "material": 1
        }
      ],
      "name": "metalFan04"
    }
  ],
  "accessors": [
    {
      "bufferView": 0,
      "componentType": 5123,
      "count": 15498,
      "type": "SCALAR",
      "name": "accessorIndices"
    },
    {
      "bufferView": 1,
      "componentType": 5126,
      "count": 3352,
      "max": [
        0.04096836,
        0.0575624369,
        0.0646000057
      ],
      "min": [
        -0.04096835,
        -0.0575624369,
        -0.0646000057
      ],
      "type": "VEC3",
      "name": "accessorPositions"
    },
    {
      "bufferView": 1,
      "byteOffset": 40224,
      "componentType": 5126,
      "count": 3352,
      "type": "VEC3",
      "name": "accessorNormals"
    },
    {
      "bufferView": 2,
      "componentType": 5126,
      "count": 3352,
      "type": "VEC4",
      "name": "accessorColors"
    },
    {
      "bufferView": 3,
      "componentType": 5126,
      "count": 3352,
      "type": "VEC2",
      "name": "accessorUVs"
    },
    {
      "bufferView": 0,
      "byteOffset": 30996,
      "componentType": 5123,
      "count": 4068,
      "type": "SCALAR",
      "name": "accessorIndices"
    },
    {
      "bufferView": 1,
      "byteOffset": 80448,
      "componentType": 5126,
      "count": 1058,
      "max": [
        0.0231661014,
        0.00209711841,
        0.0231661052
      ],
      "min": [
        -0.0231661219,
        -0.00209711841,
        -0.0231661014
      ],
      "type": "VEC3",
      "name": "accessorPositions"
    },
    {
      "bufferView": 1,
      "byteOffset": 93144,
      "componentType": 5126,
      "count": 1058,
      "type": "VEC3",
      "name": "accessorNormals"
    },
    {
      "bufferView": 2,
      "byteOffset": 53632,
      "componentType": 5126,
      "count": 1058,
      "type": "VEC4",
      "name": "accessorColors"
    },
    {
      "bufferView": 3,
      "byteOffset": 26816,
      "componentType": 5126,
      "count": 1058,
      "type": "VEC2",
      "name": "accessorUVs"
    },
    {
      "bufferView": 0,
      "byteOffset": 39132,
      "componentType": 5123,
      "count": 4068,
      "type": "SCALAR",
      "name": "accessorIndices"
    },
    {
      "bufferView": 1,
      "byteOffset": 105840,
      "componentType": 5126,
      "count": 1058,
      "max": [
        0.0231661014,
        0.00209711841,
        0.0231661052
      ],
      "min": [
        -0.0231661219,
        -0.00209711841,
        -0.0231661014
      ],
      "type": "VEC3",
      "name": "accessorPositions"
    },
    {
      "bufferView": 1,
      "byteOffset": 118536,
      "componentType": 5126,
      "count": 1058,
      "type": "VEC3",
      "name": "accessorNormals"
    },
    {
      "bufferView": 2,
      "byteOffset": 70560,
      "componentType": 5126,
      "count": 1058,
      "type": "VEC4",
      "name": "accessorColors"
    },
    {
      "bufferView": 3,
      "byteOffset": 35280,
      "componentType": 5126,
      "count": 1058,
      "type": "VEC2",
      "name": "accessorUVs"
    },
    {
      "bufferView": 4,
      "componentType": 5126,
      "count": 41,
      "max": [
        1.33333337
      ],
      "min": [
        0.0
      ],
      "type": "SCALAR",
      "name": "accessorAnimationInput"
    },
    {
      "bufferView": 5,
      "componentType": 5126,
      "count": 41,
      "type": "VEC4",
      "name": "accessorAnimationRotations"
    },
    {
      "bufferView": 4,
      "byteOffset": 164,
      "componentType": 5126,
      "count": 41,
      "max": [
        1.33333337
      ],
      "min": [
        0.0
      ],
      "type": "SCALAR",
      "name": "accessorAnimationInput"
    },
    {
      "bufferView": 5,
      "byteOffset": 656,
      "componentType": 5126,
      "count": 41,
      "type": "VEC4",
      "name": "accessorAnimationRotations"
    }
  ],
  "bufferViews": [
    {
      "buffer": 0,
      "byteLength": 47268,
      "name": "bufferViewScalar"
    },
    {
      "buffer": 0,
      "byteOffset": 47268,
      "byteLength": 131232,
      "byteStride": 12,
      "name": "bufferViewFloatVec3"
    },
    {
      "buffer": 0,
      "byteOffset": 178500,
      "byteLength": 87488,
      "byteStride": 16,
      "name": "bufferViewFloatVec4"
    },
    {
      "buffer": 0,
      "byteOffset": 265988,
      "byteLength": 43744,
      "byteStride": 8,
      "name": "bufferViewFloatVec2"
    },
    {
      "buffer": 0,
      "byteOffset": 309732,
      "byteLength": 328,
      "name": "bufferViewAnimationFloatScalar"
    },
    {
      "buffer": 0,
      "byteOffset": 310060,
      "byteLength": 1312,
      "name": "bufferViewAnimationFloatVec4"
    }
  ],
  "buffers": [
    {
      "uri": "OutdoorConditioner_Ani.bin",
      "byteLength": 311372
    }
  ],
  "materials": [
    {
      "pbrMetallicRoughness": {
        "baseColorTexture": {
          "index": 0
        },
        "metallicFactor": 0.0,
        "roughnessFactor": 0.450053632
      },
      "name": "Material #42064"
    },
    {
      "pbrMetallicRoughness": {
        "baseColorTexture": {
          "index": 1
        },
        "metallicFactor": 0.0,
        "roughnessFactor": 0.450053632
      },
      "name": "Material #42066"
    }
  ],
  "textures": [
    {
      "sampler": 0,
      "source": 0,
      "name": "OutdoorConditioner.jpg"
    },
    {
      "sampler": 0,
      "source": 1,
      "name": "fan.jpg"
    }
  ],
  "images": [
    {
      "uri": "textures/OutdoorConditioner.jpg"
    },
    {
      "uri": "textures/fan.jpg"
    }
  ],
  "samplers": [
    {
      "magFilter": 9729,
      "minFilter": 9987
    }
  ],
  "animations": [
    {
      "channels": [
        {
          "sampler": 0,
          "target": {
            "node": 2,
            "path": "rotation"
          }
        },
        {
          "sampler": 1,
          "target": {
            "node": 3,
            "path": "rotation"
          }
        }
      ],
      "samplers": [
        {
          "input": 15,
          "output": 16
        },
        {
          "input": 17,
          "output": 18
        }
      ],
      "name": "Ani01"
    }
  ]
}