{"asset":{"version":"2.0","generator":"babylon.js glTF exporter for 3dsmax 2025 v20250127.3"},"scene":0,"scenes":[{"nodes":[0]}],"nodes":[{"mesh":0,"rotation":[0.0,0.7071068,0.0,0.7071067],"name":"PAD"}],"meshes":[{"primitives":[{"attributes":{"POSITION":1,"NORMAL":2,"TEXCOORD_0":3},"indices":0,"material":0}],"name":"PAD"}],"accessors":[{"bufferView":0,"componentType":5123,"count":30,"type":"SCALAR","name":"accessorIndices"},{"bufferView":1,"componentType":5126,"count":20,"max":[0.333349615,0.50000006,0.6509218],"min":[-0.333349615,-0.50000006,-0.6509218],"type":"VEC3","name":"accessorPositions"},{"bufferView":1,"byteOffset":240,"componentType":5126,"count":20,"type":"VEC3","name":"accessorNormals"},{"bufferView":2,"componentType":5126,"count":20,"type":"VEC2","name":"accessorUVs"}],"bufferViews":[{"buffer":0,"byteLength":60,"name":"bufferViewScalar"},{"buffer":0,"byteOffset":60,"byteLength":480,"byteStride":12,"name":"bufferViewFloatVec3"},{"buffer":0,"byteOffset":540,"byteLength":160,"byteStride":8,"name":"bufferViewFloatVec2"}],"buffers":[{"uri":"ElecPad.bin","byteLength":700}],"materials":[{"pbrMetallicRoughness":{"baseColorTexture":{"index":0},"metallicFactor":0.0,"roughnessFactor":0.0},"doubleSided":true,"name":"Material #342540219","extras":{"babylonSeparateCullingPass":false}}],"textures":[{"sampler":0,"source":0,"name":"PAD.jpg"}],"images":[{"uri":"maps/PAD.jpg"}],"samplers":[{"magFilter":9729,"minFilter":9987}]}