{"asset":{"version":"2.0","generator":"babylon.js glTF exporter for 3dsmax 2020 v20221031.2"},"scene":0,"scenes":[{"nodes":[0]}],"nodes":[{"children":[1],"scale":[1000.0,1000.0,1000.0],"name":"root"},{"mesh":0,"rotation":[0.0,1.62920685E-07,1.0,0.0],"scale":[1.0,-1.0,1.0],"name":"UBioXFace"}],"meshes":[{"primitives":[{"attributes":{"POSITION":1,"NORMAL":2,"TEXCOORD_0":3},"indices":0,"material":0}],"name":"UBioXFace"}],"accessors":[{"bufferView":0,"componentType":5123,"count":372,"type":"SCALAR","name":"accessorIndices"},{"bufferView":1,"componentType":5126,"count":156,"max":[0.000959270634,0.00210986054,0.0007027682],"min":[-0.000959270634,-0.00210986054,-5.21540644E-10],"type":"VEC3","name":"accessorPositions"},{"bufferView":1,"byteOffset":1872,"componentType":5126,"count":156,"type":"VEC3","name":"accessorNormals"},{"bufferView":2,"componentType":5126,"count":156,"type":"VEC2","name":"accessorUVs"}],"bufferViews":[{"buffer":0,"byteLength":744,"name":"bufferViewScalar"},{"buffer":0,"byteOffset":744,"byteLength":3744,"byteStride":12,"name":"bufferViewFloatVec3"},{"buffer":0,"byteOffset":4488,"byteLength":1248,"byteStride":8,"name":"bufferViewFloatVec2"}],"buffers":[{"uri":"UBio-XFace.bin","byteLength":5736}],"materials":[{"pbrMetallicRoughness":{"baseColorTexture":{"index":0},"metallicFactor":0.0,"roughnessFactor":0.450053632},"name":"Material #297"}],"textures":[{"sampler":0,"source":0,"name":"UBioXFace.jpg"}],"images":[{"uri":"textures/UBioXFace.jpg"}],"samplers":[{"magFilter":9729,"minFilter":9987}]}