{"asset":{"version":"2.0","generator":"babylon.js glTF exporter for 3dsmax 2020 v20221031.2"},"scene":0,"scenes":[{"nodes":[0]}],"nodes":[{"children":[1],"scale":[1000.0,1000.0,1000.0],"name":"root"},{"mesh":0,"translation":[4.768372E-10,3.14712523E-08,-7.629395E-09],"scale":[1.00327623,1.0,1.0],"name":"UPS02"}],"meshes":[{"primitives":[{"attributes":{"POSITION":1,"NORMAL":2,"TEXCOORD_0":3},"indices":0,"material":0}],"name":"UPS02"}],"accessors":[{"bufferView":0,"componentType":5123,"count":588,"type":"SCALAR","name":"accessorIndices"},{"bufferView":1,"componentType":5126,"count":332,"max":[0.009164595,0.0100000342,0.006619614],"min":[-0.009164595,-0.0100000333,-0.00661962945],"type":"VEC3","name":"accessorPositions"},{"bufferView":1,"byteOffset":3984,"componentType":5126,"count":332,"type":"VEC3","name":"accessorNormals"},{"bufferView":2,"componentType":5126,"count":332,"type":"VEC2","name":"accessorUVs"}],"bufferViews":[{"buffer":0,"byteLength":1176,"name":"bufferViewScalar"},{"buffer":0,"byteOffset":1176,"byteLength":7968,"byteStride":12,"name":"bufferViewFloatVec3"},{"buffer":0,"byteOffset":9144,"byteLength":2656,"byteStride":8,"name":"bufferViewFloatVec2"}],"buffers":[{"uri":"B3F_UPS02.bin","byteLength":11800}],"materials":[{"pbrMetallicRoughness":{"baseColorTexture":{"index":0},"metallicFactor":0.0,"roughnessFactor":0.450053632},"name":"Material #342534866"}],"textures":[{"sampler":0,"source":0,"name":"UPS02.jpg"}],"images":[{"uri":"textures/UPS02.jpg"}],"samplers":[{"magFilter":9729,"minFilter":9987}]}