{
  "asset": {
    "version": "2.0",
    "generator": "babylon.js glTF exporter for 3dsmax 2023 v20220628.14"
  },
  "scene": 0,
  "scenes": [
    {
      "nodes": [
        0
      ]
    }
  ],
  "nodes": [
    {
      "mesh": 0,
      "name": "LSC611AW"
    }
  ],
  "meshes": [
    {
      "primitives": [
        {
          "attributes": {
            "POSITION": 1,
            "NORMAL": 2
          },
          "indices": 0,
          "material": 0
        }
      ],
      "name": "LSC611AW"
    }
  ],
  "accessors": [
    {
      "bufferView": 0,
      "componentType": 5123,
      "count": 186,
      "type": "SCALAR",
      "name": "accessorIndices"
    },
    {
      "bufferView": 1,
      "componentType": 5126,
      "count": 120,
      "max": [
        0.0851363838,
        0.170564458,
        0.1641779
      ],
      "min": [
        -0.0851363838,
        -0.170565441,
        -0.1641779
      ],
      "type": "VEC3",
      "name": "accessorPositions"
    },
    {
      "bufferView": 1,
      "byteOffset": 1440,
      "componentType": 5126,
      "count": 120,
      "type": "VEC3",
      "name": "accessorNormals"
    }
  ],
  "bufferViews": [
    {
      "buffer": 0,
      "byteLength": 372,
      "name": "bufferViewScalar"
    },
    {
      "buffer": 0,
      "byteOffset": 372,
      "byteLength": 2880,
      "byteStride": 12,
      "name": "bufferViewFloatVec3"
    }
  ],
  "buffers": [
    {
      "uri": "LSC611AW.bin",
      "byteLength": 3252
    }
  ],
  "materials": [
    {
      "pbrMetallicRoughness": {
        "baseColorFactor": [
          0.165876776,
          0.01650906,
          0.01650906,
          1.0
        ],
        "roughnessFactor": 0.5
      },
      "name": "RED"
    }
  ]
}