{"asset":{"version":"2.0","generator":"babylon.js glTF exporter for 3dsmax 2025 v20250127.3"},"scene":0,"scenes":[{"nodes":[0,1]}],"nodes":[{"mesh":0,"rotation":[0.0,-8.742278E-08,0.0,1.0],"name":"HV-CTTS-17"},{"translation":[-0.0419458151,-0.5,2.241778],"rotation":[-0.707106769,0.0,0.0,0.707106769],"name":"VRayLight001"}],"meshes":[{"primitives":[{"attributes":{"POSITION":1,"NORMAL":2,"TEXCOORD_0":3},"indices":0,"material":0}],"name":"HV-CTTS-17"}],"accessors":[{"bufferView":0,"componentType":5123,"count":42,"type":"SCALAR","name":"accessorIndices"},{"bufferView":1,"componentType":5126,"count":26,"max":[0.915002,1.27489984,1.2],"min":[-0.915002,-1.27489984,-1.2],"type":"VEC3","name":"accessorPositions"},{"bufferView":1,"byteOffset":312,"componentType":5126,"count":26,"type":"VEC3","name":"accessorNormals"},{"bufferView":2,"componentType":5126,"count":26,"type":"VEC2","name":"accessorUVs"}],"bufferViews":[{"buffer":0,"byteLength":84,"name":"bufferViewScalar"},{"buffer":0,"byteOffset":84,"byteLength":624,"byteStride":12,"name":"bufferViewFloatVec3"},{"buffer":0,"byteOffset":708,"byteLength":208,"byteStride":8,"name":"bufferViewFloatVec2"}],"buffers":[{"uri":"CTTS.bin","byteLength":916}],"materials":[{"pbrMetallicRoughness":{"baseColorTexture":{"index":0},"metallicFactor":0.0,"roughnessFactor":0.0},"doubleSided":true,"name":"Material #342539695","extras":{"babylonSeparateCullingPass":false,"subsurface_type":"","caustics":false,"internal_reflections":true,"exit_to_background":false,"indirect_diffuse":1.0,"indirect_specular":1.0,"dielectric_priority":0,"transmit_aovs":false,"aov_id1":"","aov_id2":"","aov_id3":"","aov_id4":"","aov_id5":"","aov_id6":"","aov_id7":"","aov_id8":""}}],"textures":[{"sampler":0,"source":0,"name":"HV_CTTS.jpg"}],"images":[{"uri":"maps/HV_CTTS.jpg"}],"samplers":[{"magFilter":9729,"minFilter":9987}]}