{
  "asset": {
    "version": "2.0",
    "generator": "babylon.js glTF exporter for 3dsmax 2023 v20240312.5"
  },
  "scene": 0,
  "scenes": [
    {
      "nodes": [
        0
      ]
    }
  ],
  "nodes": [
    {
      "children": [
        1
      ],
      "scale": [
        1000.0,
        1000.0,
        1000.0
      ],
      "name": "root"
    },
    {
      "mesh": 0,
      "name": "Infodesk"
    }
  ],
  "meshes": [
    {
      "primitives": [
        {
          "attributes": {
            "POSITION": 1,
            "NORMAL": 2,
            "COLOR_0": 3,
            "TEXCOORD_0": 4
          },
          "indices": 0,
          "material": 0
        }
      ],
      "name": "Infodesk"
    }
  ],
  "accessors": [
    {
      "bufferView": 0,
      "componentType": 5123,
      "count": 4974,
      "type": "SCALAR",
      "name": "accessorIndices"
    },
    {
      "bufferView": 1,
      "componentType": 5126,
      "count": 4284,
      "max": [
        0.0173390135,
        0.0107779577,
        0.006461706
      ],
      "min": [
        -0.0177336931,
        -1.38664245E-06,
        -0.00510002254
      ],
      "type": "VEC3",
      "name": "accessorPositions"
    },
    {
      "bufferView": 1,
      "byteOffset": 51408,
      "componentType": 5126,
      "count": 4284,
      "type": "VEC3",
      "name": "accessorNormals"
    },
    {
      "bufferView": 2,
      "componentType": 5126,
      "count": 4284,
      "type": "VEC4",
      "name": "accessorColors"
    },
    {
      "bufferView": 3,
      "componentType": 5126,
      "count": 4284,
      "type": "VEC2",
      "name": "accessorUVs"
    }
  ],
  "bufferViews": [
    {
      "buffer": 0,
      "byteLength": 9948,
      "name": "bufferViewScalar"
    },
    {
      "buffer": 0,
      "byteOffset": 9948,
      "byteLength": 102816,
      "byteStride": 12,
      "name": "bufferViewFloatVec3"
    },
    {
      "buffer": 0,
      "byteOffset": 112764,
      "byteLength": 68544,
      "byteStride": 16,
      "name": "bufferViewFloatVec4"
    },
    {
      "buffer": 0,
      "byteOffset": 181308,
      "byteLength": 34272,
      "byteStride": 8,
      "name": "bufferViewFloatVec2"
    }
  ],
  "buffers": [
    {
      "uri": "Infodesk.bin",
      "byteLength": 215580
    }
  ],
  "materials": [
    {
      "pbrMetallicRoughness": {
        "baseColorTexture": {
          "index": 0
        },
        "metallicFactor": 0.0,
        "roughnessFactor": 0.8
      },
      "name": "Infodesk",
      "extras": {
        "babylonSeparateCullingPass": false
      }
    }
  ],
  "textures": [
    {
      "sampler": 0,
      "source": 0,
      "name": "Infodesk.jpg"
    }
  ],
  "images": [
    {
      "uri": "textures/Infodesk.jpg"
    }
  ],
  "samplers": [
    {
      "magFilter": 9729,
      "minFilter": 9987
    }
  ]
}