{
  "asset": {
    "version": "2.0",
    "generator": "babylon.js glTF exporter for 3dsmax 2023 v20240312.5"
  },
  "scene": 0,
  "scenes": [
    {
      "nodes": [
        0,
        1
      ]
    }
  ],
  "nodes": [
    {
      "translation": [
        0.165010959,
        -0.0519915,
        0.421773
      ],
      "name": "Y_main_Spot002.Target"
    },
    {
      "mesh": 0,
      "rotation": [
        -0.50000006,
        -0.5000001,
        -0.49999997,
        -0.49999997
      ],
      "name": "chiller"
    }
  ],
  "meshes": [
    {
      "primitives": [
        {
          "attributes": {
            "POSITION": 1,
            "NORMAL": 2,
            "TEXCOORD_0": 3
          },
          "indices": 0,
          "material": 0
        }
      ],
      "name": "chiller"
    }
  ],
  "accessors": [
    {
      "bufferView": 0,
      "componentType": 5123,
      "count": 9975,
      "type": "SCALAR",
      "name": "accessorIndices"
    },
    {
      "bufferView": 1,
      "componentType": 5126,
      "count": 2885,
      "max": [
        0.0223153513,
        0.0188219175,
        0.0100925518
      ],
      "min": [
        -2.861023E-09,
        -0.01882192,
        -0.0100925444
      ],
      "type": "VEC3",
      "name": "accessorPositions"
    },
    {
      "bufferView": 1,
      "byteOffset": 34620,
      "componentType": 5126,
      "count": 2885,
      "type": "VEC3",
      "name": "accessorNormals"
    },
    {
      "bufferView": 2,
      "componentType": 5126,
      "count": 2885,
      "type": "VEC2",
      "name": "accessorUVs"
    }
  ],
  "bufferViews": [
    {
      "buffer": 0,
      "byteLength": 19952,
      "name": "bufferViewScalar"
    },
    {
      "buffer": 0,
      "byteOffset": 19952,
      "byteLength": 69240,
      "byteStride": 12,
      "name": "bufferViewFloatVec3"
    },
    {
      "buffer": 0,
      "byteOffset": 89192,
      "byteLength": 23080,
      "byteStride": 8,
      "name": "bufferViewFloatVec2"
    }
  ],
  "buffers": [
    {
      "uri": "Chiller.bin",
      "byteLength": 112272
    }
  ],
  "materials": [
    {
      "pbrMetallicRoughness": {
        "baseColorTexture": {
          "index": 0
        },
        "metallicFactor": 0.0,
        "roughnessFactor": 0.450053632
      },
      "name": "chiller"
    }
  ],
  "textures": [
    {
      "sampler": 0,
      "source": 0,
      "name": "chiller.png"
    }
  ],
  "images": [
    {
      "uri": "maps/chiller.png"
    }
  ],
  "samplers": [
    {
      "magFilter": 9729,
      "minFilter": 9987
    }
  ]
}