{"asset":{"version":"2.0","generator":"babylon.js glTF exporter for 3dsmax 2020 v20221031.2"},"scene":0,"scenes":[{"nodes":[0]}],"nodes":[{"children":[1],"scale":[1000.0,1000.0,1000.0],"name":"root"},{"mesh":0,"rotation":[0.0,-5.96046448E-08,0.0,1.0],"scale":[0.669601738,0.669601738,0.669601738],"name":"ArmChair"}],"meshes":[{"primitives":[{"attributes":{"POSITION":1,"NORMAL":2,"TEXCOORD_0":3},"indices":0,"material":0}],"name":"ArmChair"}],"accessors":[{"bufferView":0,"componentType":5123,"count":2088,"type":"SCALAR","name":"accessorIndices"},{"bufferView":1,"componentType":5126,"count":630,"max":[0.00550006563,0.0108167194,0.00500000548],"min":[-0.005500081,0.0,-0.00500000734],"type":"VEC3","name":"accessorPositions"},{"bufferView":1,"byteOffset":7560,"componentType":5126,"count":630,"type":"VEC3","name":"accessorNormals"},{"bufferView":2,"componentType":5126,"count":630,"type":"VEC2","name":"accessorUVs"}],"bufferViews":[{"buffer":0,"byteLength":4176,"name":"bufferViewScalar"},{"buffer":0,"byteOffset":4176,"byteLength":15120,"byteStride":12,"name":"bufferViewFloatVec3"},{"buffer":0,"byteOffset":19296,"byteLength":5040,"byteStride":8,"name":"bufferViewFloatVec2"}],"buffers":[{"uri":"ArmChair.bin","byteLength":24336}],"materials":[{"pbrMetallicRoughness":{"baseColorTexture":{"index":0},"metallicFactor":0.0,"roughnessFactor":0.450053632},"name":"Material #25191008"}],"textures":[{"sampler":0,"source":0,"name":"ArmChair.jpg"}],"images":[{"uri":"textures/ArmChair.jpg"}],"samplers":[{"magFilter":9729,"minFilter":9987}]}