{
  "asset": {
    "version": "2.0",
    "generator": "babylon.js glTF exporter for 3dsmax 2023 v20221031.2"
  },
  "scene": 0,
  "scenes": [
    {
      "nodes": [
        0
      ]
    }
  ],
  "nodes": [
    {
      "children": [
        1,
        2,
        3,
        4,
        5,
        6
      ],
      "scale": [
        1000.0,
        1000.0,
        1000.0
      ],
      "name": "root"
    },
    {
      "mesh": 0,
      "translation": [
        -1.90734872E-09,
        1.83582316E-07,
        2.622724E-10
      ],
      "rotation": [
        0.0,
        0.7071068,
        0.0,
        0.7071067
      ],
      "name": "doorL01_A"
    },
    {
      "mesh": 1,
      "translation": [
        -1.90734872E-09,
        1.83582316E-07,
        2.622724E-10
      ],
      "rotation": [
        0.0,
        0.7071068,
        0.0,
        0.7071067
      ],
      "name": "doorR02_A"
    },
    {
      "mesh": 2,
      "translation": [
        -1.90734872E-09,
        1.83582316E-07,
        2.622724E-10
      ],
      "rotation": [
        0.0,
        0.7071068,
        0.0,
        0.7071067
      ],
      "name": "door_A"
    },
    {
      "mesh": 3,
      "translation": [
        -1.90734872E-09,
        1.83582316E-07,
        2.622724E-10
      ],
      "rotation": [
        0.0,
        0.7071068,
        0.0,
        0.7071067
      ],
      "name": "doorL02_A"
    },
    {
      "mesh": 4,
      "translation": [
        -1.90734872E-09,
        1.83582316E-07,
        2.622724E-10
      ],
      "rotation": [
        0.0,
        0.7071068,
        0.0,
        0.7071067
      ],
      "name": "doorR01_A"
    },
    {
      "mesh": 5,
      "translation": [
        -1.90734872E-09,
        1.83582316E-07,
        2.622724E-10
      ],
      "rotation": [
        0.0,
        0.7071068,
        0.0,
        0.7071067
      ],
      "name": "speedGate"
    }
  ],
  "meshes": [
    {
      "primitives": [
        {
          "attributes": {
            "POSITION": 1,
            "NORMAL": 2,
            "TEXCOORD_0": 3
          },
          "indices": 0,
          "material": 0
        }
      ],
      "name": "doorL01_A"
    },
    {
      "primitives": [
        {
          "attributes": {
            "POSITION": 5,
            "NORMAL": 6,
            "TEXCOORD_0": 7
          },
          "indices": 4,
          "material": 0
        }
      ],
      "name": "doorR02_A"
    },
    {
      "primitives": [
        {
          "attributes": {
            "POSITION": 9,
            "NORMAL": 10,
            "TEXCOORD_0": 11
          },
          "indices": 8,
          "material": 0
        }
      ],
      "name": "door_A"
    },
    {
      "primitives": [
        {
          "attributes": {
            "POSITION": 13,
            "NORMAL": 14,
            "TEXCOORD_0": 15
          },
          "indices": 12,
          "material": 0
        }
      ],
      "name": "doorL02_A"
    },
    {
      "primitives": [
        {
          "attributes": {
            "POSITION": 17,
            "NORMAL": 18,
            "TEXCOORD_0": 19
          },
          "indices": 16,
          "material": 0
        }
      ],
      "name": "doorR01_A"
    },
    {
      "primitives": [
        {
          "attributes": {
            "POSITION": 21,
            "NORMAL": 22,
            "TEXCOORD_0": 23
          },
          "indices": 20,
          "material": 1
        }
      ],
      "name": "speedGate"
    }
  ],
  "accessors": [
    {
      "bufferView": 0,
      "componentType": 5123,
      "count": 180,
      "type": "SCALAR",
      "name": "accessorIndices"
    },
    {
      "bufferView": 1,
      "componentType": 5126,
      "count": 72,
      "max": [
        0.000432344,
        0.0120000048,
        -0.00494564231
      ],
      "min": [
        0.000332313,
        0.002000004,
        -0.00774564641
      ],
      "type": "VEC3",
      "name": "accessorPositions"
    },
    {
      "bufferView": 1,
      "byteOffset": 864,
      "componentType": 5126,
      "count": 72,
      "type": "VEC3",
      "name": "accessorNormals"
    },
    {
      "bufferView": 2,
      "componentType": 5126,
      "count": 72,
      "type": "VEC2",
      "name": "accessorUVs"
    },
    {
      "bufferView": 0,
      "byteOffset": 360,
      "componentType": 5123,
      "count": 180,
      "type": "SCALAR",
      "name": "accessorIndices"
    },
    {
      "bufferView": 1,
      "byteOffset": 1728,
      "componentType": 5126,
      "count": 72,
      "max": [
        -0.000332320022,
        0.0120000048,
        0.00774564361
      ],
      "min": [
        -0.000432322,
        0.002000004,
        0.00494564138
      ],
      "type": "VEC3",
      "name": "accessorPositions"
    },
    {
      "bufferView": 1,
      "byteOffset": 2592,
      "componentType": 5126,
      "count": 72,
      "type": "VEC3",
      "name": "accessorNormals"
    },
    {
      "bufferView": 2,
      "byteOffset": 576,
      "componentType": 5126,
      "count": 72,
      "type": "VEC2",
      "name": "accessorUVs"
    },
    {
      "bufferView": 0,
      "byteOffset": 720,
      "componentType": 5123,
      "count": 540,
      "type": "SCALAR",
      "name": "accessorIndices"
    },
    {
      "bufferView": 1,
      "byteOffset": 3456,
      "componentType": 5126,
      "count": 216,
      "max": [
        5.00620044E-05,
        0.0120000038,
        0.0101487255
      ],
      "min": [
        -5.00510032E-05,
        0.00199982314,
        -0.01014873
      ],
      "type": "VEC3",
      "name": "accessorPositions"
    },
    {
      "bufferView": 1,
      "byteOffset": 6048,
      "componentType": 5126,
      "count": 216,
      "type": "VEC3",
      "name": "accessorNormals"
    },
    {
      "bufferView": 2,
      "byteOffset": 1152,
      "componentType": 5126,
      "count": 216,
      "type": "VEC2",
      "name": "accessorUVs"
    },
    {
      "bufferView": 0,
      "byteOffset": 1800,
      "componentType": 5123,
      "count": 180,
      "type": "SCALAR",
      "name": "accessorIndices"
    },
    {
      "bufferView": 1,
      "byteOffset": 8640,
      "componentType": 5126,
      "count": 72,
      "max": [
        0.000432344,
        0.0119998213,
        0.003555074
      ],
      "min": [
        0.000332313,
        0.001999821,
        0.000755071
      ],
      "type": "VEC3",
      "name": "accessorPositions"
    },
    {
      "bufferView": 1,
      "byteOffset": 9504,
      "componentType": 5126,
      "count": 72,
      "type": "VEC3",
      "name": "accessorNormals"
    },
    {
      "bufferView": 2,
      "byteOffset": 2880,
      "componentType": 5126,
      "count": 72,
      "type": "VEC2",
      "name": "accessorUVs"
    },
    {
      "bufferView": 0,
      "byteOffset": 2160,
      "componentType": 5123,
      "count": 180,
      "type": "SCALAR",
      "name": "accessorIndices"
    },
    {
      "bufferView": 1,
      "byteOffset": 10368,
      "componentType": 5126,
      "count": 72,
      "max": [
        -0.000332304015,
        0.0119998213,
        -0.00125107809
      ],
      "min": [
        -0.000432336034,
        0.001999821,
        -0.00405108137
      ],
      "type": "VEC3",
      "name": "accessorPositions"
    },
    {
      "bufferView": 1,
      "byteOffset": 11232,
      "componentType": 5126,
      "count": 72,
      "type": "VEC3",
      "name": "accessorNormals"
    },
    {
      "bufferView": 2,
      "byteOffset": 3456,
      "componentType": 5126,
      "count": 72,
      "type": "VEC2",
      "name": "accessorUVs"
    },
    {
      "bufferView": 0,
      "byteOffset": 2520,
      "componentType": 5123,
      "count": 3858,
      "type": "SCALAR",
      "name": "accessorIndices"
    },
    {
      "bufferView": 1,
      "byteOffset": 12096,
      "componentType": 5126,
      "count": 1842,
      "max": [
        0.006013311,
        0.009520001,
        0.0102487262
      ],
      "min": [
        -0.006013311,
        -1.86000008E-07,
        -0.0102487262
      ],
      "type": "VEC3",
      "name": "accessorPositions"
    },
    {
      "bufferView": 1,
      "byteOffset": 34200,
      "componentType": 5126,
      "count": 1842,
      "type": "VEC3",
      "name": "accessorNormals"
    },
    {
      "bufferView": 2,
      "byteOffset": 4032,
      "componentType": 5126,
      "count": 1842,
      "type": "VEC2",
      "name": "accessorUVs"
    }
  ],
  "bufferViews": [
    {
      "buffer": 0,
      "byteLength": 10236,
      "name": "bufferViewScalar"
    },
    {
      "buffer": 0,
      "byteOffset": 10236,
      "byteLength": 56304,
      "byteStride": 12,
      "name": "bufferViewFloatVec3"
    },
    {
      "buffer": 0,
      "byteOffset": 66540,
      "byteLength": 18768,
      "byteStride": 8,
      "name": "bufferViewFloatVec2"
    }
  ],
  "buffers": [
    {
      "uri": "SpeedGateSet03.bin",
      "byteLength": 85308
    }
  ],
  "materials": [
    {
      "pbrMetallicRoughness": {
        "baseColorTexture": {
          "index": 0
        },
        "metallicFactor": 0.0,
        "roughnessFactor": 0.450053632
      },
      "doubleSided": true,
      "name": "Material #25"
    },
    {
      "pbrMetallicRoughness": {
        "baseColorTexture": {
          "index": 1
        },
        "metallicFactor": 0.0,
        "roughnessFactor": -2.02441
      },
      "doubleSided": true,
      "name": "untitled_Material__302",
      "extras": {
        "babylonSeparateCullingPass": false
      }
    }
  ],
  "textures": [
    {
      "sampler": 0,
      "source": 0,
      "name": "door_A.png"
    },
    {
      "sampler": 0,
      "source": 1,
      "name": "speedGate.jpg"
    }
  ],
  "images": [
    {
      "uri": "textures/door_A.png"
    },
    {
      "uri": "textures/speedGate.jpg"
    }
  ],
  "samplers": [
    {
      "magFilter": 9729,
      "minFilter": 9987
    }
  ]
}