{
  "asset": {
    "version": "2.0",
    "generator": "babylon.js glTF exporter for 3dsmax 2023 v20221031.2"
  },
  "scene": 0,
  "scenes": [
    {
      "nodes": [
        0
      ]
    }
  ],
  "nodes": [
    {
      "children": [
        1
      ],
      "scale": [
        1000.0,
        1000.0,
        1000.0
      ],
      "name": "root"
    },
    {
      "mesh": 0,
      "translation": [
        0.0,
        2.2351742E-11,
        0.0
      ],
      "name": "caffeChair"
    }
  ],
  "meshes": [
    {
      "primitives": [
        {
          "attributes": {
            "POSITION": 1,
            "NORMAL": 2,
            "TEXCOORD_0": 3
          },
          "indices": 0,
          "material": 0
        }
      ],
      "name": "caffeChair"
    }
  ],
  "accessors": [
    {
      "bufferView": 0,
      "componentType": 5123,
      "count": 708,
      "type": "SCALAR",
      "name": "accessorIndices"
    },
    {
      "bufferView": 1,
      "componentType": 5126,
      "count": 388,
      "max": [
        0.0029585,
        0.008347001,
        0.00279210019
      ],
      "min": [
        -0.0029585,
        0.0,
        -0.00279210019
      ],
      "type": "VEC3",
      "name": "accessorPositions"
    },
    {
      "bufferView": 1,
      "byteOffset": 4656,
      "componentType": 5126,
      "count": 388,
      "type": "VEC3",
      "name": "accessorNormals"
    },
    {
      "bufferView": 2,
      "componentType": 5126,
      "count": 388,
      "type": "VEC2",
      "name": "accessorUVs"
    }
  ],
  "bufferViews": [
    {
      "buffer": 0,
      "byteLength": 1416,
      "name": "bufferViewScalar"
    },
    {
      "buffer": 0,
      "byteOffset": 1416,
      "byteLength": 9312,
      "byteStride": 12,
      "name": "bufferViewFloatVec3"
    },
    {
      "buffer": 0,
      "byteOffset": 10728,
      "byteLength": 3104,
      "byteStride": 8,
      "name": "bufferViewFloatVec2"
    }
  ],
  "buffers": [
    {
      "uri": "Chair_Cafe.bin",
      "byteLength": 13832
    }
  ],
  "materials": [
    {
      "pbrMetallicRoughness": {
        "baseColorTexture": {
          "index": 0
        },
        "metallicFactor": 0.0,
        "roughnessFactor": 0.450053632
      },
      "name": "Material #26"
    }
  ],
  "textures": [
    {
      "sampler": 0,
      "source": 0,
      "name": "caffeChair.jpg"
    }
  ],
  "images": [
    {
      "uri": "textures/caffeChair.jpg"
    }
  ],
  "samplers": [
    {
      "magFilter": 9729,
      "minFilter": 9987
    }
  ]
}