<svg preserveAspectRatio="none" width="100%" height="100%" overflow="visible" style="display: block;" viewBox="0 0 548.908 129.313" fill="none" xmlns="http://www.w3.org/2000/svg">
<g id="Group 14">
<path id="Vector 5" d="M23.9835 41.4372L0.336827 19.8828V129.313H548.421V119.364L529.634 41.4372L477.805 19.8828H432.132L411.076 119.364H382.247L338.193 41.4372L312.279 119.364L289.28 41.4372L263.69 119.364L240.043 1.64455L217.044 86.2039L192.102 41.4372L169.103 86.2039L143.513 64.6495L118.894 1.64455L97.8389 86.2039L72.5726 64.6495L47.9541 119.364L23.9835 41.4372Z" fill="url(#paint0_linear_422_113)" fill-opacity="0.2"/>
<path id="Vector 6" d="M0.336827 19.8828L23.9835 41.4372L47.9541 119.364L72.5726 64.6495L97.8389 86.2039L118.894 1.64455L143.513 64.6495L169.103 86.2039L192.102 41.4372L217.044 86.2039L240.043 1.64455L263.69 119.364L289.28 41.4372L312.279 119.364L338.193 41.4372L382.247 119.364H411.076L432.132 19.8828H477.805L529.634 41.4372L548.421 119.364" stroke="var(--stroke-0, #F2A832)"/>
</g>
<defs>
<linearGradient id="paint0_linear_422_113" x1="274.379" y1="1.64455" x2="274.379" y2="129.313" gradientUnits="userSpaceOnUse">
<stop stop-color="#8367EC"/>
<stop offset="1" stop-color="#BFAEFF"/>
</linearGradient>
</defs>
</svg>
