{
  "asset": {
    "version": "2.0",
    "generator": "babylon.js glTF exporter for 3dsmax 2023 v20220628.14"
  },
  "scene": 0,
  "scenes": [
    {
      "nodes": [
        0
      ]
    }
  ],
  "nodes": [
    {
      "children": [
        1,
        2,
        3,
        4,
        5,
        6,
        7,
        8
      ],
      "rotation": [
        0.0,
        -0.7071068,
        0.0,
        0.7071067
      ],
      "name": "VCB"
    },
    {
      "mesh": 0,
      "translation": [
        0.449593782,
        -0.0360926539,
        -0.00625
      ],
      "rotation": [
        0.0,
        0.7071068,
        0.0,
        0.7071067
      ],
      "name": "VCB_090"
    },
    {
      "mesh": 1,
      "translation": [
        -0.003484375,
        0.425224751,
        -0.00500000035
      ],
      "name": "VCB_091"
    },
    {
      "mesh": 2,
      "translation": [
        -0.4006719,
        0.140398324,
        0.0
      ],
      "rotation": [
        0.0,
        0.7071068,
        0.0,
        0.7071067
      ],
      "scale": [
        10.0,
        10.0,
        10.0
      ],
      "name": "VCB_092"
    },
    {
      "mesh": 3,
      "translation": [
        0.008265626,
        -0.0250520036,
        0.0
      ],
      "rotation": [
        0.0,
        0.7071068,
        0.0,
        0.7071067
      ],
      "scale": [
        10.0,
        10.0,
        10.0
      ],
      "name": "VCB_093"
    },
    {
      "mesh": 4,
      "translation": [
        0.425515652,
        -0.0139969485,
        0.0020625
      ],
      "rotation": [
        0.0,
        0.7071068,
        0.0,
        0.7071067
      ],
      "scale": [
        10.0,
        10.0,
        10.0
      ],
      "name": "VCB_094"
    },
    {
      "mesh": 5,
      "translation": [
        0.423328131,
        -0.04502332,
        -0.207500011
      ],
      "rotation": [
        0.0,
        0.7071068,
        0.0,
        0.7071067
      ],
      "scale": [
        10.0,
        10.0,
        10.0
      ],
      "name": "VCB_095"
    },
    {
      "mesh": 6,
      "translation": [
        0.130203128,
        0.01392688,
        0.00118750008
      ],
      "rotation": [
        0.0,
        0.7071068,
        0.0,
        0.7071067
      ],
      "scale": [
        10.0,
        10.0,
        10.0
      ],
      "name": "VCB_096"
    },
    {
      "mesh": 7,
      "translation": [
        -0.134718761,
        0.062333256,
        0.0
      ],
      "rotation": [
        0.0,
        0.7071068,
        0.0,
        0.7071067
      ],
      "scale": [
        10.0,
        10.0,
        10.0
      ],
      "name": "VCB_097"
    }
  ],
  "meshes": [
    {
      "primitives": [
        {
          "attributes": {
            "POSITION": 1,
            "NORMAL": 2,
            "TEXCOORD_0": 3
          },
          "indices": 0,
          "material": 0
        }
      ],
      "name": "VCB_090"
    },
    {
      "primitives": [
        {
          "attributes": {
            "POSITION": 5,
            "NORMAL": 6,
            "TEXCOORD_0": 7
          },
          "indices": 4,
          "material": 1
        }
      ],
      "name": "VCB_091"
    },
    {
      "primitives": [
        {
          "attributes": {
            "POSITION": 9,
            "NORMAL": 10,
            "TEXCOORD_0": 11
          },
          "indices": 8,
          "material": 2
        }
      ],
      "name": "VCB_092"
    },
    {
      "primitives": [
        {
          "attributes": {
            "POSITION": 13,
            "NORMAL": 14,
            "TEXCOORD_0": 15
          },
          "indices": 12,
          "material": 3
        }
      ],
      "name": "VCB_093"
    },
    {
      "primitives": [
        {
          "attributes": {
            "POSITION": 17,
            "NORMAL": 18,
            "TEXCOORD_0": 19
          },
          "indices": 16,
          "material": 4
        }
      ],
      "name": "VCB_094"
    },
    {
      "primitives": [
        {
          "attributes": {
            "POSITION": 21,
            "NORMAL": 22,
            "TEXCOORD_0": 23
          },
          "indices": 20,
          "material": 5
        }
      ],
      "name": "VCB_095"
    },
    {
      "primitives": [
        {
          "attributes": {
            "POSITION": 25,
            "NORMAL": 26,
            "TEXCOORD_0": 27
          },
          "indices": 24,
          "material": 6
        }
      ],
      "name": "VCB_096"
    },
    {
      "primitives": [
        {
          "attributes": {
            "POSITION": 29,
            "NORMAL": 30,
            "TEXCOORD_0": 31
          },
          "indices": 28,
          "material": 7
        }
      ],
      "name": "VCB_097"
    }
  ],
  "accessors": [
    {
      "bufferView": 0,
      "componentType": 5123,
      "count": 72,
      "type": "SCALAR",
      "name": "accessorIndices"
    },
    {
      "bufferView": 1,
      "componentType": 5126,
      "count": 48,
      "max": [
        0.3426976,
        0.313427031,
        0.008362011
      ],
      "min": [
        -0.34269765,
        -0.313427031,
        -0.008361634
      ],
      "type": "VEC3",
      "name": "accessorPositions"
    },
    {
      "bufferView": 1,
      "byteOffset": 576,
      "componentType": 5126,
      "count": 48,
      "type": "VEC3",
      "name": "accessorNormals"
    },
    {
      "bufferView": 2,
      "componentType": 5126,
      "count": 48,
      "type": "VEC2",
      "name": "accessorUVs"
    },
    {
      "bufferView": 0,
      "byteOffset": 144,
      "componentType": 5123,
      "count": 18,
      "type": "SCALAR",
      "name": "accessorIndices"
    },
    {
      "bufferView": 1,
      "byteOffset": 1152,
      "componentType": 5126,
      "count": 12,
      "max": [
        0.111753911,
        -1.8310547E-07,
        0.24126564
      ],
      "min": [
        -0.111753911,
        -1.8310547E-07,
        -0.24126564
      ],
      "type": "VEC3",
      "name": "accessorPositions"
    },
    {
      "bufferView": 1,
      "byteOffset": 1296,
      "componentType": 5126,
      "count": 12,
      "type": "VEC3",
      "name": "accessorNormals"
    },
    {
      "bufferView": 2,
      "byteOffset": 384,
      "componentType": 5126,
      "count": 12,
      "type": "VEC2",
      "name": "accessorUVs"
    },
    {
      "bufferView": 0,
      "byteOffset": 180,
      "componentType": 5123,
      "count": 1224,
      "type": "SCALAR",
      "name": "accessorIndices"
    },
    {
      "bufferView": 1,
      "byteOffset": 1440,
      "componentType": 5126,
      "count": 673,
      "max": [
        0.0277128462,
        0.0224269964,
        0.005727444
      ],
      "min": [
        -0.0277159717,
        -0.0224270113,
        -0.00572744
      ],
      "type": "VEC3",
      "name": "accessorPositions"
    },
    {
      "bufferView": 1,
      "byteOffset": 9516,
      "componentType": 5126,
      "count": 673,
      "type": "VEC3",
      "name": "accessorNormals"
    },
    {
      "bufferView": 2,
      "byteOffset": 480,
      "componentType": 5126,
      "count": 673,
      "type": "VEC2",
      "name": "accessorUVs"
    },
    {
      "bufferView": 0,
      "byteOffset": 2628,
      "componentType": 5123,
      "count": 624,
      "type": "SCALAR",
      "name": "accessorIndices"
    },
    {
      "bufferView": 1,
      "byteOffset": 17592,
      "componentType": 5126,
      "count": 314,
      "max": [
        0.0395250246,
        0.0400172472,
        0.0432229526
      ],
      "min": [
        -0.0395250246,
        -0.0400172547,
        -0.04322295
      ],
      "type": "VEC3",
      "name": "accessorPositions"
    },
    {
      "bufferView": 1,
      "byteOffset": 21360,
      "componentType": 5126,
      "count": 314,
      "type": "VEC3",
      "name": "accessorNormals"
    },
    {
      "bufferView": 2,
      "byteOffset": 5864,
      "componentType": 5126,
      "count": 314,
      "type": "VEC2",
      "name": "accessorUVs"
    },
    {
      "bufferView": 0,
      "byteOffset": 3876,
      "componentType": 5123,
      "count": 450,
      "type": "SCALAR",
      "name": "accessorIndices"
    },
    {
      "bufferView": 1,
      "byteOffset": 25128,
      "componentType": 5126,
      "count": 223,
      "max": [
        0.0352455,
        0.0353447646,
        0.00277663046
      ],
      "min": [
        -0.035245508,
        -0.035344772,
        -0.0119817983
      ],
      "type": "VEC3",
      "name": "accessorPositions"
    },
    {
      "bufferView": 1,
      "byteOffset": 27804,
      "componentType": 5126,
      "count": 223,
      "type": "VEC3",
      "name": "accessorNormals"
    },
    {
      "bufferView": 2,
      "byteOffset": 8376,
      "componentType": 5126,
      "count": 223,
      "type": "VEC2",
      "name": "accessorUVs"
    },
    {
      "bufferView": 0,
      "byteOffset": 4776,
      "componentType": 5123,
      "count": 48,
      "type": "SCALAR",
      "name": "accessorIndices"
    },
    {
      "bufferView": 1,
      "byteOffset": 30480,
      "componentType": 5126,
      "count": 30,
      "max": [
        0.00190418819,
        0.0182610024,
        0.00255731214
      ],
      "min": [
        -0.00190418819,
        -0.0182610024,
        -0.00255730445
      ],
      "type": "VEC3",
      "name": "accessorPositions"
    },
    {
      "bufferView": 1,
      "byteOffset": 30840,
      "componentType": 5126,
      "count": 30,
      "type": "VEC3",
      "name": "accessorNormals"
    },
    {
      "bufferView": 2,
      "byteOffset": 10160,
      "componentType": 5126,
      "count": 30,
      "type": "VEC2",
      "name": "accessorUVs"
    },
    {
      "bufferView": 0,
      "byteOffset": 4872,
      "componentType": 5123,
      "count": 192,
      "type": "SCALAR",
      "name": "accessorIndices"
    },
    {
      "bufferView": 1,
      "byteOffset": 31200,
      "componentType": 5126,
      "count": 116,
      "max": [
        0.03802935,
        0.03813716,
        0.0256323032
      ],
      "min": [
        -0.03802935,
        -0.03813716,
        -0.030069802
      ],
      "type": "VEC3",
      "name": "accessorPositions"
    },
    {
      "bufferView": 1,
      "byteOffset": 32592,
      "componentType": 5126,
      "count": 116,
      "type": "VEC3",
      "name": "accessorNormals"
    },
    {
      "bufferView": 2,
      "byteOffset": 10400,
      "componentType": 5126,
      "count": 116,
      "type": "VEC2",
      "name": "accessorUVs"
    },
    {
      "bufferView": 0,
      "byteOffset": 5256,
      "componentType": 5123,
      "count": 2610,
      "type": "SCALAR",
      "name": "accessorIndices"
    },
    {
      "bufferView": 1,
      "byteOffset": 33984,
      "componentType": 5126,
      "count": 1134,
      "max": [
        0.0300026685,
        0.03571558,
        0.0283744931
      ],
      "min": [
        -0.0300057959,
        -0.0357155763,
        -0.0283740573
      ],
      "type": "VEC3",
      "name": "accessorPositions"
    },
    {
      "bufferView": 1,
      "byteOffset": 47592,
      "componentType": 5126,
      "count": 1134,
      "type": "VEC3",
      "name": "accessorNormals"
    },
    {
      "bufferView": 2,
      "byteOffset": 11328,
      "componentType": 5126,
      "count": 1134,
      "type": "VEC2",
      "name": "accessorUVs"
    }
  ],
  "bufferViews": [
    {
      "buffer": 0,
      "byteLength": 10476,
      "name": "bufferViewScalar"
    },
    {
      "buffer": 0,
      "byteOffset": 10476,
      "byteLength": 61200,
      "byteStride": 12,
      "name": "bufferViewFloatVec3"
    },
    {
      "buffer": 0,
      "byteOffset": 71676,
      "byteLength": 20400,
      "byteStride": 8,
      "name": "bufferViewFloatVec2"
    }
  ],
  "buffers": [
    {
      "uri": "VCB.bin",
      "byteLength": 92076
    }
  ],
  "materials": [
    {
      "pbrMetallicRoughness": {
        "baseColorTexture": {
          "index": 0
        },
        "roughnessFactor": 0.5
      },
      "alphaMode": "BLEND",
      "name": "etc"
    },
    {
      "pbrMetallicRoughness": {
        "baseColorTexture": {
          "index": 1
        },
        "roughnessFactor": 0.5
      },
      "alphaMode": "BLEND",
      "name": "etc12"
    },
    {
      "pbrMetallicRoughness": {
        "baseColorFactor": [
          0.341,
          0.341,
          0.341,
          1.0
        ],
        "roughnessFactor": 0.5
      },
      "normalTexture": {
        "index": 2,
        "scale": 2.0
      },
      "name": "sawtooth02"
    },
    {
      "pbrMetallicRoughness": {
        "baseColorFactor": [
          0.2843602,
          0.2843602,
          0.2843602,
          1.0
        ],
        "metallicFactor": 0.6,
        "roughnessFactor": 0.5,
        "metallicRoughnessTexture": {
          "index": 3
        }
      },
      "name": "metal_cabinetgray"
    },
    {
      "pbrMetallicRoughness": {
        "baseColorFactor": [
          0.691943169,
          0.6612478,
          0.609959364,
          1.0
        ],
        "roughnessFactor": 0.5,
        "metallicRoughnessTexture": {
          "index": 4
        }
      },
      "doubleSided": true,
      "name": "plastic01"
    },
    {
      "pbrMetallicRoughness": {
        "baseColorFactor": [
          0.052,
          0.052,
          0.052,
          1.0
        ],
        "roughnessFactor": 0.5
      },
      "doubleSided": true,
      "name": "black"
    },
    {
      "pbrMetallicRoughness": {
        "baseColorFactor": [
          0.402843624,
          0.396147817,
          0.364659369,
          1.0
        ],
        "metallicFactor": 0.6,
        "roughnessFactor": 0.5,
        "metallicRoughnessTexture": {
          "index": 3
        }
      },
      "name": "metal_cabinetbeige"
    },
    {
      "pbrMetallicRoughness": {
        "baseColorFactor": [
          0.222748816,
          0.041469343,
          0.0316704474,
          1.0
        ],
        "roughnessFactor": 0.3,
        "metallicRoughnessTexture": {
          "index": 6
        }
      },
      "normalTexture": {
        "index": 5
      },
      "name": "MetalNoReflecred"
    }
  ],
  "textures": [
    {
      "sampler": 0,
      "source": 0,
      "name": "etc.png"
    },
    {
      "sampler": 0,
      "source": 1,
      "name": "etc12.png"
    },
    {
      "sampler": 0,
      "source": 2,
      "name": "sawtoothnr.jpg"
    },
    {
      "sampler": 0,
      "source": 3,
      "name": "metal_0062_roughness_1k153.jpg"
    },
    {
      "sampler": 0,
      "source": 4,
      "name": "TexturesCom_Plastic_Polymer_1K_roughness255.jpg"
    },
    {
      "sampler": 0,
      "source": 5,
      "name": "MetalCladdingFrame002_NRM_2K.jpg"
    },
    {
      "sampler": 0,
      "source": 6,
      "name": "76MetalCladdingFrame002_REFL_2K.jpg"
    }
  ],
  "images": [
    {
      "uri": "textures/etc.png"
    },
    {
      "uri": "textures/etc12.png"
    },
    {
      "uri": "textures/sawtoothnr.jpg"
    },
    {
      "uri": "textures/metal_0062_roughness_1k153.jpg"
    },
    {
      "uri": "textures/TexturesCom_Plastic_Polymer_1K_roughness255.jpg"
    },
    {
      "uri": "textures/MetalCladdingFrame002_NRM_2K.jpg"
    },
    {
      "uri": "textures/76MetalCladdingFrame002_REFL_2K.jpg"
    }
  ],
  "samplers": [
    {
      "magFilter": 9729,
      "minFilter": 9987
    }
  ]
}