{"asset":{"version":"2.0","generator":"babylon.js glTF exporter for 3dsmax 2020 v20200813.4"},"scene":0,"scenes":[{"nodes":[0]}],"nodes":[{"children":[1,2],"scale":[1000.0,1000.0,1000.0],"name":"root"},{"mesh":0,"name":"Wiretapping"},{"name":"Default light"}],"meshes":[{"primitives":[{"attributes":{"POSITION":1,"NORMAL":2,"TEXCOORD_0":3},"indices":0,"material":0}],"name":"Wiretapping"}],"accessors":[{"bufferView":0,"componentType":5123,"count":1788,"type":"SCALAR","name":"accessorIndices"},{"bufferView":1,"componentType":5126,"count":1788,"max":[0.00101180014,0.000474000029,0.000633200048],"min":[-0.00101180014,-0.000474000029,-0.000633200048],"type":"VEC3","name":"accessorPositions"},{"bufferView":1,"byteOffset":21456,"componentType":5126,"count":1788,"type":"VEC3","name":"accessorNormals"},{"bufferView":2,"componentType":5126,"count":1788,"type":"VEC2","name":"accessorUVs"}],"bufferViews":[{"buffer":0,"byteLength":3576,"name":"bufferViewScalar"},{"buffer":0,"byteOffset":3576,"byteLength":42912,"byteStride":12,"name":"bufferViewFloatVec3"},{"buffer":0,"byteOffset":46488,"byteLength":14304,"byteStride":8,"name":"bufferViewFloatVec2"}],"buffers":[{"uri":"Wiretapping.bin","byteLength":60792}],"materials":[{"pbrMetallicRoughness":{"baseColorTexture":{"index":0},"metallicFactor":0.0,"roughnessFactor":0.450053632},"name":"Material #33"}],"textures":[{"sampler":0,"source":0,"name":"Wiretapping.jpg"}],"images":[{"uri":"textures/Wiretapping.jpg"}],"samplers":[{"magFilter":9729,"minFilter":9987}]}