{
  "asset": {
    "version": "2.0",
    "generator": "babylon.js glTF exporter for 3dsmax 2023 v20221031.2"
  },
  "scene": 0,
  "scenes": [
    {
      "nodes": [
        0
      ]
    }
  ],
  "nodes": [
    {
      "children": [
        1,
        2
      ],
      "scale": [
        1000.0,
        1000.0,
        1000.0
      ],
      "name": "root"
    },
    {
      "mesh": 0,
      "translation": [
        0.0,
        0.0072825,
        3.183304E-10
      ],
      "name": "speedgate2_glass_A"
    },
    {
      "mesh": 1,
      "translation": [
        0.0,
        0.0072825,
        3.183304E-10
      ],
      "name": "speedgate2"
    }
  ],
  "meshes": [
    {
      "primitives": [
        {
          "attributes": {
            "POSITION": 1,
            "NORMAL": 2,
            "TEXCOORD_0": 3
          },
          "indices": 0,
          "material": 0
        }
      ],
      "name": "speedgate2_glass_A"
    },
    {
      "primitives": [
        {
          "attributes": {
            "POSITION": 5,
            "NORMAL": 6,
            "TEXCOORD_0": 7
          },
          "indices": 4,
          "material": 1
        }
      ],
      "name": "speedgate2"
    }
  ],
  "accessors": [
    {
      "bufferView": 0,
      "componentType": 5123,
      "count": 4896,
      "type": "SCALAR",
      "name": "accessorIndices"
    },
    {
      "bufferView": 1,
      "componentType": 5126,
      "count": 1658,
      "max": [
        0.0148552,
        0.00728260027,
        9.300001E-05
      ],
      "min": [
        -0.0148455007,
        -0.00394640025,
        -9.950001E-05
      ],
      "type": "VEC3",
      "name": "accessorPositions"
    },
    {
      "bufferView": 1,
      "byteOffset": 19896,
      "componentType": 5126,
      "count": 1658,
      "type": "VEC3",
      "name": "accessorNormals"
    },
    {
      "bufferView": 2,
      "componentType": 5126,
      "count": 1658,
      "type": "VEC2",
      "name": "accessorUVs"
    },
    {
      "bufferView": 0,
      "byteOffset": 9792,
      "componentType": 5123,
      "count": 3408,
      "type": "SCALAR",
      "name": "accessorIndices"
    },
    {
      "bufferView": 1,
      "byteOffset": 39792,
      "componentType": 5126,
      "count": 1536,
      "max": [
        0.0150001012,
        0.00315350015,
        0.007
      ],
      "min": [
        -0.0150001012,
        -0.0072825,
        -0.007
      ],
      "type": "VEC3",
      "name": "accessorPositions"
    },
    {
      "bufferView": 1,
      "byteOffset": 58224,
      "componentType": 5126,
      "count": 1536,
      "type": "VEC3",
      "name": "accessorNormals"
    },
    {
      "bufferView": 2,
      "byteOffset": 13264,
      "componentType": 5126,
      "count": 1536,
      "type": "VEC2",
      "name": "accessorUVs"
    }
  ],
  "bufferViews": [
    {
      "buffer": 0,
      "byteLength": 16608,
      "name": "bufferViewScalar"
    },
    {
      "buffer": 0,
      "byteOffset": 16608,
      "byteLength": 76656,
      "byteStride": 12,
      "name": "bufferViewFloatVec3"
    },
    {
      "buffer": 0,
      "byteOffset": 93264,
      "byteLength": 25552,
      "byteStride": 8,
      "name": "bufferViewFloatVec2"
    }
  ],
  "buffers": [
    {
      "uri": "SpeedGateSet02.bin",
      "byteLength": 118816
    }
  ],
  "materials": [
    {
      "pbrMetallicRoughness": {
        "baseColorTexture": {
          "index": 0
        },
        "metallicFactor": 0.0,
        "roughnessFactor": 0.450053632
      },
      "name": "Material #26"
    },
    {
      "pbrMetallicRoughness": {
        "baseColorTexture": {
          "index": 1
        },
        "metallicFactor": 0.0,
        "roughnessFactor": 0.450053632
      },
      "name": "Material #29"
    }
  ],
  "textures": [
    {
      "sampler": 0,
      "source": 0,
      "name": "speedgate2_glass_A.png"
    },
    {
      "sampler": 0,
      "source": 1,
      "name": "speedgate2.jpg"
    }
  ],
  "images": [
    {
      "uri": "textures/speedgate2_glass_A.png"
    },
    {
      "uri": "textures/speedgate2.jpg"
    }
  ],
  "samplers": [
    {
      "magFilter": 9729,
      "minFilter": 9987
    }
  ]
}