{"asset":{"version":"2.0","generator":"babylon.js glTF exporter for 3dsmax 2020 v20221031.2"},"scene":0,"scenes":[{"nodes":[0]}],"nodes":[{"children":[1],"scale":[1000.0,1000.0,1000.0],"name":"root"},{"children":[2,3],"name":"Group003"},{"mesh":0,"translation":[0.0,0.010350001,3.051758E-08],"rotation":[-2.38418579E-07,7.54979E-08,1.0,1.80001023E-14],"scale":[1.0,-1.0,1.0],"name":"partition"},{"mesh":1,"translation":[0.0,0.010350001,3.051758E-08],"rotation":[-6.5168274E-07,1.62920685E-07,1.0,1.061726E-13],"scale":[1.0,-1.0,1.0],"name":"glass_A"}],"meshes":[{"primitives":[{"attributes":{"POSITION":1,"NORMAL":2,"TEXCOORD_0":3},"indices":0,"material":0}],"name":"partition"},{"primitives":[{"attributes":{"POSITION":5,"NORMAL":6,"TEXCOORD_0":7},"indices":4,"material":1}],"name":"glass_A"}],"accessors":[{"bufferView":0,"componentType":5123,"count":240,"type":"SCALAR","name":"accessorIndices"},{"bufferView":1,"componentType":5126,"count":124,"max":[0.007999999,0.00165000162,0.000149977539],"min":[-0.00799999852,-0.010350002,-0.000150032924],"type":"VEC3","name":"accessorPositions"},{"bufferView":1,"byteOffset":1488,"componentType":5126,"count":124,"type":"VEC3","name":"accessorNormals"},{"bufferView":2,"componentType":5126,"count":124,"type":"VEC2","name":"accessorUVs"},{"bufferView":0,"byteOffset":480,"componentType":5123,"count":12,"type":"SCALAR","name":"accessorIndices"},{"bufferView":1,"byteOffset":2976,"componentType":5126,"count":8,"max":[0.007800005,0.00155000028,3.216945E-05],"min":[-0.007800002,-0.000149998858,-3.2169286E-05],"type":"VEC3","name":"accessorPositions"},{"bufferView":1,"byteOffset":3072,"componentType":5126,"count":8,"type":"VEC3","name":"accessorNormals"},{"bufferView":2,"byteOffset":992,"componentType":5126,"count":8,"type":"VEC2","name":"accessorUVs"}],"bufferViews":[{"buffer":0,"byteLength":504,"name":"bufferViewScalar"},{"buffer":0,"byteOffset":504,"byteLength":3168,"byteStride":12,"name":"bufferViewFloatVec3"},{"buffer":0,"byteOffset":3672,"byteLength":1056,"byteStride":8,"name":"bufferViewFloatVec2"}],"buffers":[{"uri":"Partition.bin","byteLength":4728}],"materials":[{"pbrMetallicRoughness":{"baseColorTexture":{"index":0},"metallicFactor":0.0,"roughnessFactor":0.450053632},"name":"Material #25192003"},{"pbrMetallicRoughness":{"baseColorTexture":{"index":1},"metallicFactor":0.0,"roughnessFactor":0.450053632},"name":"Material #25192004"}],"textures":[{"sampler":0,"source":0,"name":"partition.jpg"},{"sampler":0,"source":1,"name":"glass_A.png"}],"images":[{"uri":"textures/partition.jpg"},{"uri":"textures/glass_A.png"}],"samplers":[{"magFilter":9729,"minFilter":9987}]}