{"asset":{"version":"2.0","generator":"babylon.js glTF exporter for 3dsmax 2020 v20220617.2"},"scene":0,"scenes":[{"nodes":[0]}],"nodes":[{"children":[1],"scale":[1000.0,1000.0,1000.0],"name":"root"},{"mesh":0,"name":"haronextinguisher"}],"meshes":[{"primitives":[{"attributes":{"POSITION":1,"NORMAL":2,"TEXCOORD_0":3},"indices":0,"material":0}],"name":"haronextinguisher"}],"accessors":[{"bufferView":0,"componentType":5123,"count":1746,"type":"SCALAR","name":"accessorIndices"},{"bufferView":1,"componentType":5126,"count":588,"max":[0.0010072001,0.00248190016,0.00094180007],"min":[-0.0010072001,-0.00248190016,-0.00094180007],"type":"VEC3","name":"accessorPositions"},{"bufferView":1,"byteOffset":7056,"componentType":5126,"count":588,"type":"VEC3","name":"accessorNormals"},{"bufferView":2,"componentType":5126,"count":588,"type":"VEC2","name":"accessorUVs"}],"bufferViews":[{"buffer":0,"byteLength":3492,"name":"bufferViewScalar"},{"buffer":0,"byteOffset":3492,"byteLength":14112,"byteStride":12,"name":"bufferViewFloatVec3"},{"buffer":0,"byteOffset":17604,"byteLength":4704,"byteStride":8,"name":"bufferViewFloatVec2"}],"buffers":[{"uri":"haronextinguisher01.bin","byteLength":22308}],"materials":[{"pbrMetallicRoughness":{"baseColorTexture":{"index":0},"metallicFactor":0.0,"roughnessFactor":0.450053632},"name":"Material #27"}],"textures":[{"sampler":0,"source":0,"name":"haronextinguisher.jpg"}],"images":[{"uri":"textures/haronextinguisher.jpg"}],"samplers":[{"magFilter":9729,"minFilter":9987}]}