{"asset":{"version":"2.0","generator":"babylon.js glTF exporter for 3dsmax 2020 v20221031.2"},"scene":0,"scenes":[{"nodes":[0]}],"nodes":[{"children":[1],"scale":[1000.0,1000.0,1000.0],"name":"root"},{"mesh":0,"name":"bed"}],"meshes":[{"primitives":[{"attributes":{"POSITION":1,"NORMAL":2,"TEXCOORD_0":3},"indices":0,"material":0}],"name":"bed"}],"accessors":[{"bufferView":0,"componentType":5123,"count":4926,"type":"SCALAR","name":"accessorIndices"},{"bufferView":1,"componentType":5126,"count":1137,"max":[0.00684988452,0.0113968011,0.0134125678],"min":[-0.006850098,-1.90734872E-09,-0.01341253],"type":"VEC3","name":"accessorPositions"},{"bufferView":1,"byteOffset":13644,"componentType":5126,"count":1137,"type":"VEC3","name":"accessorNormals"},{"bufferView":2,"componentType":5126,"count":1137,"type":"VEC2","name":"accessorUVs"}],"bufferViews":[{"buffer":0,"byteLength":9852,"name":"bufferViewScalar"},{"buffer":0,"byteOffset":9852,"byteLength":27288,"byteStride":12,"name":"bufferViewFloatVec3"},{"buffer":0,"byteOffset":37140,"byteLength":9096,"byteStride":8,"name":"bufferViewFloatVec2"}],"buffers":[{"uri":"SingleBed.bin","byteLength":46236}],"materials":[{"pbrMetallicRoughness":{"baseColorTexture":{"index":0},"metallicFactor":0.0,"roughnessFactor":0.450053632},"name":"Material #1178"}],"textures":[{"sampler":0,"source":0,"name":"bed.jpg"}],"images":[{"uri":"textures/bed.jpg"}],"samplers":[{"magFilter":9729,"minFilter":9987}]}