{"asset":{"version":"2.0","generator":"babylon.js glTF exporter for 3dsmax 2025 v20250127.3"},"scene":0,"scenes":[{"nodes":[0,1,2,3]}],"nodes":[{"mesh":0,"rotation":[0.0,4.371139E-08,1.0,0.0],"scale":[1.0,-1.0,1.0],"name":"ALTS-1"},{"translation":[-0.0583970547,-0.08027387,0.0187931061],"rotation":[0.6625312,0.0586258,-0.052142147,0.7449138],"scale":[0.99999994,1.00000024,0.9999999],"name":"PhysCamera001.Target"},{"translation":[13.4855719,0.0,5.12646055],"rotation":[-0.707106769,0.0,0.0,0.707106769],"name":"VRayLight001"},{"camera":0,"translation":[3.060123,2.261488,19.7084217],"rotation":[-0.05825329,0.078324765,0.004584629,0.995213866],"scale":[1.0,1.0,0.99999994],"name":"PhysCamera001"}],"cameras":[{"perspective":{"yfov":0.212104365,"zfar":10000.0,"znear":0.1},"type":"perspective","name":"PhysCamera001"}],"meshes":[{"primitives":[{"attributes":{"POSITION":1,"NORMAL":2,"TEXCOORD_0":3},"indices":0,"material":0}],"name":"ALTS-1"}],"accessors":[{"bufferView":0,"componentType":5123,"count":48,"type":"SCALAR","name":"accessorIndices"},{"bufferView":1,"componentType":5126,"count":26,"max":[0.800000668,1.70944548,1.49999976],"min":[-0.80000025,-1.70944536,-1.500001],"type":"VEC3","name":"accessorPositions"},{"bufferView":1,"byteOffset":312,"componentType":5126,"count":26,"type":"VEC3","name":"accessorNormals"},{"bufferView":2,"componentType":5126,"count":26,"type":"VEC2","name":"accessorUVs"}],"bufferViews":[{"buffer":0,"byteLength":96,"name":"bufferViewScalar"},{"buffer":0,"byteOffset":96,"byteLength":624,"byteStride":12,"name":"bufferViewFloatVec3"},{"buffer":0,"byteOffset":720,"byteLength":208,"byteStride":8,"name":"bufferViewFloatVec2"}],"buffers":[{"uri":"ALTS.bin","byteLength":928}],"materials":[{"pbrMetallicRoughness":{"baseColorTexture":{"index":0},"metallicFactor":0.0,"roughnessFactor":0.0},"doubleSided":true,"name":"Material #342540115","extras":{"babylonSeparateCullingPass":false,"subsurface_type":"","caustics":false,"internal_reflections":true,"exit_to_background":false,"indirect_diffuse":1.0,"indirect_specular":1.0,"dielectric_priority":0,"transmit_aovs":false,"aov_id1":"","aov_id2":"","aov_id3":"","aov_id4":"","aov_id5":"","aov_id6":"","aov_id7":"","aov_id8":""}}],"textures":[{"sampler":0,"source":0,"name":"ALTS02.jpg"}],"images":[{"uri":"maps/ALTS02.jpg"}],"samplers":[{"magFilter":9729,"minFilter":9987}]}