{
  "asset": {
    "version": "2.0",
    "generator": "babylon.js glTF exporter for 3dsmax 2023 v20240312.5"
  },
  "scene": 0,
  "scenes": [
    {
      "nodes": [
        0,
        1,
        2
      ]
    }
  ],
  "nodes": [
    {
      "translation": [
        1.98198128,
        34.52237,
        1.9184531
      ],
      "name": "Camera002.Target"
    },
    {
      "translation": [
        -1.71310961,
        36.9775238,
        -3.01518178
      ],
      "rotation": [
        0.49999997,
        -0.50000006,
        0.5000001,
        0.49999997
      ],
      "name": "Camera003.Target"
    },
    {
      "mesh": 0,
      "rotation": [
        0.0,
        -2.38497613E-08,
        0.0,
        1.0
      ],
      "name": "UPS"
    }
  ],
  "meshes": [
    {
      "primitives": [
        {
          "attributes": {
            "POSITION": 1,
            "NORMAL": 2,
            "TEXCOORD_0": 3
          },
          "indices": 0,
          "material": 0
        }
      ],
      "name": "UPS"
    }
  ],
  "accessors": [
    {
      "bufferView": 0,
      "componentType": 5123,
      "count": 324,
      "type": "SCALAR",
      "name": "accessorIndices"
    },
    {
      "bufferView": 1,
      "componentType": 5126,
      "count": 212,
      "max": [
        2.418907,
        1.15999615,
        0.467530221
      ],
      "min": [
        -2.418907,
        -1.15999222,
        -0.4675326
      ],
      "type": "VEC3",
      "name": "accessorPositions"
    },
    {
      "bufferView": 1,
      "byteOffset": 2544,
      "componentType": 5126,
      "count": 212,
      "type": "VEC3",
      "name": "accessorNormals"
    },
    {
      "bufferView": 2,
      "componentType": 5126,
      "count": 212,
      "type": "VEC2",
      "name": "accessorUVs"
    }
  ],
  "bufferViews": [
    {
      "buffer": 0,
      "byteLength": 648,
      "name": "bufferViewScalar"
    },
    {
      "buffer": 0,
      "byteOffset": 648,
      "byteLength": 5088,
      "byteStride": 12,
      "name": "bufferViewFloatVec3"
    },
    {
      "buffer": 0,
      "byteOffset": 5736,
      "byteLength": 1696,
      "byteStride": 8,
      "name": "bufferViewFloatVec2"
    }
  ],
  "buffers": [
    {
      "uri": "UPS.bin",
      "byteLength": 7432
    }
  ],
  "materials": [
    {
      "pbrMetallicRoughness": {
        "baseColorTexture": {
          "index": 0
        },
        "metallicFactor": 0.0,
        "roughnessFactor": 0.450053632
      },
      "name": "UPS02"
    }
  ],
  "textures": [
    {
      "sampler": 0,
      "source": 0,
      "name": "UPS02.jpg"
    }
  ],
  "images": [
    {
      "uri": "maps/UPS02.jpg"
    }
  ],
  "samplers": [
    {
      "magFilter": 9729,
      "minFilter": 9987
    }
  ]
}