{"asset":{"version":"2.0","generator":"babylon.js glTF exporter for 3dsmax 2020 v20221031.2"},"scene":0,"scenes":[{"nodes":[0]}],"nodes":[{"children":[1,2],"scale":[1000.0,1000.0,1000.0],"name":"root"},{"mesh":0,"translation":[-0.0007221413,0.005636015,-0.0001887736],"name":"TelephoneBooth2P"},{"mesh":1,"translation":[0.000145187383,0.0122499913,-0.00018876596],"rotation":[-7.15255737E-07,6.715445E-07,4.80325849E-13,1.0],"name":"door2P_A"}],"meshes":[{"primitives":[{"attributes":{"POSITION":1,"NORMAL":2,"TEXCOORD_0":3},"indices":0,"material":0}],"name":"TelephoneBooth2P"},{"primitives":[{"attributes":{"POSITION":5,"NORMAL":6,"TEXCOORD_0":7},"indices":4,"material":1}],"name":"door2P_A"}],"accessors":[{"bufferView":0,"componentType":5123,"count":2670,"type":"SCALAR","name":"accessorIndices"},{"bufferView":1,"componentType":5126,"count":1280,"max":[0.008262617,0.018363988,0.007878026],"min":[-0.006818334,-0.00563602,-0.00750047853],"type":"VEC3","name":"accessorPositions"},{"bufferView":1,"byteOffset":15360,"componentType":5126,"count":1280,"type":"VEC3","name":"accessorNormals"},{"bufferView":2,"componentType":5126,"count":1280,"type":"VEC2","name":"accessorUVs"},{"bufferView":0,"byteOffset":5340,"componentType":5123,"count":240,"type":"SCALAR","name":"accessorIndices"},{"bufferView":1,"byteOffset":30720,"componentType":5126,"count":128,"max":[0.006788563,0.0109440889,0.00739767868],"min":[-0.006788562,-0.010944088,-0.00739768427],"type":"VEC3","name":"accessorPositions"},{"bufferView":1,"byteOffset":32256,"componentType":5126,"count":128,"type":"VEC3","name":"accessorNormals"},{"bufferView":2,"byteOffset":10240,"componentType":5126,"count":128,"type":"VEC2","name":"accessorUVs"}],"bufferViews":[{"buffer":0,"byteLength":5820,"name":"bufferViewScalar"},{"buffer":0,"byteOffset":5820,"byteLength":33792,"byteStride":12,"name":"bufferViewFloatVec3"},{"buffer":0,"byteOffset":39612,"byteLength":11264,"byteStride":8,"name":"bufferViewFloatVec2"}],"buffers":[{"uri":"TelephoneBooth2P.bin","byteLength":50876}],"materials":[{"pbrMetallicRoughness":{"baseColorTexture":{"index":0},"metallicFactor":0.0,"roughnessFactor":0.450053632},"name":"Material #25191316"},{"pbrMetallicRoughness":{"baseColorTexture":{"index":1},"metallicFactor":0.0,"roughnessFactor":0.450053632},"name":"Material #25191315"}],"textures":[{"sampler":0,"source":0,"name":"TelephoneBooth2P.jpg"},{"sampler":0,"source":1,"name":"door2P_A.png"}],"images":[{"uri":"textures/TelephoneBooth2P.jpg"},{"uri":"textures/door2P_A.png"}],"samplers":[{"magFilter":9729,"minFilter":9987}]}