{
  "asset": {
    "version": "2.0",
    "generator": "babylon.js glTF exporter for 3dsmax 2023 v20221031.2"
  },
  "scene": 0,
  "scenes": [
    {
      "nodes": [
        0
      ]
    }
  ],
  "nodes": [
    {
      "children": [
        1
      ],
      "scale": [
        1000.0,
        1000.0,
        1000.0
      ],
      "name": "root"
    },
    {
      "mesh": 0,
      "name": "LeakDetector"
    }
  ],
  "meshes": [
    {
      "primitives": [
        {
          "attributes": {
            "POSITION": 1,
            "NORMAL": 2,
            "TEXCOORD_0": 3
          },
          "indices": 0,
          "material": 0
        },
        {
          "attributes": {
            "POSITION": 5,
            "NORMAL": 6,
            "TEXCOORD_0": 7
          },
          "indices": 4,
          "material": 1
        }
      ],
      "name": "LeakDetector"
    }
  ],
  "accessors": [
    {
      "bufferView": 0,
      "componentType": 5123,
      "count": 4542,
      "type": "SCALAR",
      "name": "accessorIndices"
    },
    {
      "bufferView": 1,
      "componentType": 5126,
      "count": 1784,
      "max": [
        0.000475000677,
        0.000665938132,
        0.000133594454
      ],
      "min": [
        -0.000475000648,
        -0.000643956068,
        -0.000136403149
      ],
      "type": "VEC3",
      "name": "accessorPositions"
    },
    {
      "bufferView": 1,
      "byteOffset": 21408,
      "componentType": 5126,
      "count": 1784,
      "type": "VEC3",
      "name": "accessorNormals"
    },
    {
      "bufferView": 2,
      "componentType": 5126,
      "count": 1784,
      "type": "VEC2",
      "name": "accessorUVs"
    },
    {
      "bufferView": 0,
      "byteOffset": 9084,
      "componentType": 5123,
      "count": 7050,
      "type": "SCALAR",
      "name": "accessorIndices"
    },
    {
      "bufferView": 1,
      "byteOffset": 42816,
      "componentType": 5126,
      "count": 2617,
      "max": [
        0.000466533471,
        0.0006590816,
        0.000136403149
      ],
      "min": [
        -0.000466533354,
        -0.000665938132,
        -1.71784486E-05
      ],
      "type": "VEC3",
      "name": "accessorPositions"
    },
    {
      "bufferView": 1,
      "byteOffset": 74220,
      "componentType": 5126,
      "count": 2617,
      "type": "VEC3",
      "name": "accessorNormals"
    },
    {
      "bufferView": 2,
      "byteOffset": 14272,
      "componentType": 5126,
      "count": 2617,
      "type": "VEC2",
      "name": "accessorUVs"
    }
  ],
  "bufferViews": [
    {
      "buffer": 0,
      "byteLength": 23184,
      "name": "bufferViewScalar"
    },
    {
      "buffer": 0,
      "byteOffset": 23184,
      "byteLength": 105624,
      "byteStride": 12,
      "name": "bufferViewFloatVec3"
    },
    {
      "buffer": 0,
      "byteOffset": 128808,
      "byteLength": 35208,
      "byteStride": 8,
      "name": "bufferViewFloatVec2"
    }
  ],
  "buffers": [
    {
      "uri": "LeakDetector.bin",
      "byteLength": 164016
    }
  ],
  "materials": [
    {
      "pbrMetallicRoughness": {
        "baseColorTexture": {
          "index": 0
        },
        "metallicFactor": 0.0,
        "roughnessFactor": -90.47056
      },
      "doubleSided": true,
      "name": "leakEtc"
    },
    {
      "pbrMetallicRoughness": {
        "baseColorTexture": {
          "index": 1
        },
        "metallicFactor": 0.0,
        "roughnessFactor": -90.47056
      },
      "doubleSided": true,
      "name": "winBody"
    }
  ],
  "textures": [
    {
      "sampler": 0,
      "source": 0,
      "name": "leakEtc.jpg"
    },
    {
      "sampler": 0,
      "source": 1,
      "name": "winBody.jpg"
    }
  ],
  "images": [
    {
      "uri": "textures/leakEtc.jpg"
    },
    {
      "uri": "textures/winBody.jpg"
    }
  ],
  "samplers": [
    {
      "magFilter": 9729,
      "minFilter": 9987
    }
  ]
}