{
  "asset": {
    "version": "2.0",
    "generator": "babylon.js glTF exporter for 3dsmax 2023 v20221031.2"
  },
  "scene": 0,
  "scenes": [
    {
      "nodes": [
        0
      ]
    }
  ],
  "nodes": [
    {
      "children": [
        1,
        2
      ],
      "scale": [
        1000.0,
        1000.0,
        1000.0
      ],
      "name": "root"
    },
    {
      "mesh": 0,
      "translation": [
        0.0,
        0.0,
        -1.980001E-05
      ],
      "name": "Earthquake"
    },
    {
      "mesh": 1,
      "translation": [
        0.0,
        0.0,
        -1.980001E-05
      ],
      "name": "Earthquake_A"
    }
  ],
  "meshes": [
    {
      "primitives": [
        {
          "attributes": {
            "POSITION": 1,
            "NORMAL": 2,
            "TEXCOORD_0": 3
          },
          "indices": 0,
          "material": 0
        }
      ],
      "name": "Earthquake"
    },
    {
      "primitives": [
        {
          "attributes": {
            "POSITION": 5,
            "NORMAL": 6,
            "TEXCOORD_0": 7
          },
          "indices": 4,
          "material": 1
        }
      ],
      "name": "Earthquake_A"
    }
  ],
  "accessors": [
    {
      "bufferView": 0,
      "componentType": 5123,
      "count": 840,
      "type": "SCALAR",
      "name": "accessorIndices"
    },
    {
      "bufferView": 1,
      "componentType": 5126,
      "count": 840,
      "max": [
        0.0119999992,
        0.0106729,
        0.00849999953
      ],
      "min": [
        -0.0119999992,
        -0.0106729,
        -0.00849999953
      ],
      "type": "VEC3",
      "name": "accessorPositions"
    },
    {
      "bufferView": 1,
      "byteOffset": 10080,
      "componentType": 5126,
      "count": 840,
      "type": "VEC3",
      "name": "accessorNormals"
    },
    {
      "bufferView": 2,
      "componentType": 5126,
      "count": 840,
      "type": "VEC2",
      "name": "accessorUVs"
    },
    {
      "bufferView": 0,
      "byteOffset": 1680,
      "componentType": 5123,
      "count": 174,
      "type": "SCALAR",
      "name": "accessorIndices"
    },
    {
      "bufferView": 1,
      "byteOffset": 20160,
      "componentType": 5126,
      "count": 174,
      "max": [
        0.0110300006,
        0.0102774,
        0.007662
      ],
      "min": [
        -0.0110300006,
        -0.009245499,
        -0.00753
      ],
      "type": "VEC3",
      "name": "accessorPositions"
    },
    {
      "bufferView": 1,
      "byteOffset": 22248,
      "componentType": 5126,
      "count": 174,
      "type": "VEC3",
      "name": "accessorNormals"
    },
    {
      "bufferView": 2,
      "byteOffset": 6720,
      "componentType": 5126,
      "count": 174,
      "type": "VEC2",
      "name": "accessorUVs"
    }
  ],
  "bufferViews": [
    {
      "buffer": 0,
      "byteLength": 2028,
      "name": "bufferViewScalar"
    },
    {
      "buffer": 0,
      "byteOffset": 2028,
      "byteLength": 24336,
      "byteStride": 12,
      "name": "bufferViewFloatVec3"
    },
    {
      "buffer": 0,
      "byteOffset": 26364,
      "byteLength": 8112,
      "byteStride": 8,
      "name": "bufferViewFloatVec2"
    }
  ],
  "buffers": [
    {
      "uri": "Earthquake.bin",
      "byteLength": 34476
    }
  ],
  "materials": [
    {
      "pbrMetallicRoughness": {
        "baseColorTexture": {
          "index": 0
        },
        "metallicFactor": 0.0,
        "roughnessFactor": 0.450053632
      },
      "name": "Material #65"
    },
    {
      "pbrMetallicRoughness": {
        "baseColorTexture": {
          "index": 1
        },
        "metallicFactor": 0.0,
        "roughnessFactor": 0.5081419
      },
      "doubleSided": true,
      "name": "Material #55",
      "extras": {
        "babylonSeparateCullingPass": false
      }
    }
  ],
  "textures": [
    {
      "sampler": 0,
      "source": 0,
      "name": "Earthquake.jpg"
    },
    {
      "sampler": 0,
      "source": 1,
      "name": "Fence_A.png"
    }
  ],
  "images": [
    {
      "uri": "textures/Earthquake.jpg"
    },
    {
      "uri": "textures/Fence_A.png"
    }
  ],
  "samplers": [
    {
      "magFilter": 9729,
      "minFilter": 9987
    }
  ]
}