{
  "asset": {
    "version": "2.0",
    "generator": "babylon.js glTF exporter for 3dsmax 2023 v20221031.2"
  },
  "scene": 0,
  "scenes": [
    {
      "nodes": [
        0
      ]
    }
  ],
  "nodes": [
    {
      "children": [
        1,
        2
      ],
      "scale": [
        1000.0,
        1000.0,
        1000.0
      ],
      "name": "root"
    },
    {
      "mesh": 0,
      "translation": [
        7.15255766E-09,
        0.0,
        3.81469745E-09
      ],
      "name": "bark"
    },
    {
      "mesh": 1,
      "translation": [
        7.15255766E-09,
        0.0,
        3.81469745E-09
      ],
      "name": "leaf_A"
    }
  ],
  "meshes": [
    {
      "primitives": [
        {
          "attributes": {
            "POSITION": 1,
            "NORMAL": 2,
            "TEXCOORD_0": 3
          },
          "indices": 0,
          "material": 0
        }
      ],
      "name": "bark"
    },
    {
      "primitives": [
        {
          "attributes": {
            "POSITION": 5,
            "NORMAL": 6,
            "TEXCOORD_0": 7
          },
          "indices": 4,
          "material": 1
        }
      ],
      "name": "leaf_A"
    }
  ],
  "accessors": [
    {
      "bufferView": 0,
      "componentType": 5123,
      "count": 1416,
      "type": "SCALAR",
      "name": "accessorIndices"
    },
    {
      "bufferView": 1,
      "componentType": 5126,
      "count": 716,
      "max": [
        0.006918106,
        0.0133558223,
        0.00640410651
      ],
      "min": [
        -0.00718176737,
        -0.01735751,
        -0.0081428
      ],
      "type": "VEC3",
      "name": "accessorPositions"
    },
    {
      "bufferView": 1,
      "byteOffset": 8592,
      "componentType": 5126,
      "count": 716,
      "type": "VEC3",
      "name": "accessorNormals"
    },
    {
      "bufferView": 2,
      "componentType": 5126,
      "count": 716,
      "type": "VEC2",
      "name": "accessorUVs"
    },
    {
      "bufferView": 0,
      "byteOffset": 2832,
      "componentType": 5123,
      "count": 2478,
      "type": "SCALAR",
      "name": "accessorIndices"
    },
    {
      "bufferView": 1,
      "byteOffset": 17184,
      "componentType": 5126,
      "count": 1716,
      "max": [
        0.0119587407,
        0.0173575152,
        0.0112010427
      ],
      "min": [
        -0.0119587556,
        -0.0101811,
        -0.01120105
      ],
      "type": "VEC3",
      "name": "accessorPositions"
    },
    {
      "bufferView": 1,
      "byteOffset": 37776,
      "componentType": 5126,
      "count": 1716,
      "type": "VEC3",
      "name": "accessorNormals"
    },
    {
      "bufferView": 2,
      "byteOffset": 5728,
      "componentType": 5126,
      "count": 1716,
      "type": "VEC2",
      "name": "accessorUVs"
    }
  ],
  "bufferViews": [
    {
      "buffer": 0,
      "byteLength": 7788,
      "name": "bufferViewScalar"
    },
    {
      "buffer": 0,
      "byteOffset": 7788,
      "byteLength": 58368,
      "byteStride": 12,
      "name": "bufferViewFloatVec3"
    },
    {
      "buffer": 0,
      "byteOffset": 66156,
      "byteLength": 19456,
      "byteStride": 8,
      "name": "bufferViewFloatVec2"
    }
  ],
  "buffers": [
    {
      "uri": "TreeLowpoly.bin",
      "byteLength": 85612
    }
  ],
  "materials": [
    {
      "pbrMetallicRoughness": {
        "baseColorTexture": {
          "index": 0
        },
        "metallicFactor": 0.0,
        "roughnessFactor": 0.0
      },
      "doubleSided": true,
      "name": "untitled_Material__27",
      "extras": {
        "babylonSeparateCullingPass": false
      }
    },
    {
      "pbrMetallicRoughness": {
        "baseColorTexture": {
          "index": 1
        },
        "metallicFactor": 0.0,
        "roughnessFactor": 0.450053632
      },
      "doubleSided": true,
      "name": "Material #26"
    }
  ],
  "textures": [
    {
      "sampler": 0,
      "source": 0,
      "name": "bark.jpg"
    },
    {
      "sampler": 0,
      "source": 1,
      "name": "leaf_A.png"
    }
  ],
  "images": [
    {
      "uri": "textures/bark.jpg"
    },
    {
      "uri": "textures/leaf_A.png"
    }
  ],
  "samplers": [
    {
      "magFilter": 9729,
      "minFilter": 9987
    }
  ]
}