{
  "asset": {
    "version": "2.0",
    "generator": "babylon.js glTF exporter for 3dsmax 2023 v20220628.14"
  },
  "scene": 0,
  "scenes": [
    {
      "nodes": [
        0
      ]
    }
  ],
  "nodes": [
    {
      "children": [
        1,
        2
      ],
      "rotation": [
        0.0,
        -0.7071068,
        0.0,
        0.7071067
      ],
      "name": "PTT_033"
    },
    {
      "mesh": 0,
      "translation": [
        0.035,
        0.0,
        0.0
      ],
      "name": "PTT_034"
    },
    {
      "mesh": 1,
      "name": "PTT_035"
    }
  ],
  "meshes": [
    {
      "primitives": [
        {
          "attributes": {
            "POSITION": 1,
            "NORMAL": 2,
            "TEXCOORD_0": 3
          },
          "indices": 0,
          "material": 0
        }
      ],
      "name": "PTT_034"
    },
    {
      "primitives": [
        {
          "attributes": {
            "POSITION": 5,
            "NORMAL": 6,
            "TEXCOORD_0": 7
          },
          "indices": 4,
          "material": 1
        }
      ],
      "name": "PTT_035"
    }
  ],
  "accessors": [
    {
      "bufferView": 0,
      "componentType": 5123,
      "count": 6,
      "type": "SCALAR",
      "name": "accessorIndices"
    },
    {
      "bufferView": 1,
      "componentType": 5126,
      "count": 4,
      "max": [
        0.0,
        0.0200000014,
        0.035
      ],
      "min": [
        0.0,
        -0.0200000014,
        -0.035
      ],
      "type": "VEC3",
      "name": "accessorPositions"
    },
    {
      "bufferView": 1,
      "byteOffset": 48,
      "componentType": 5126,
      "count": 4,
      "type": "VEC3",
      "name": "accessorNormals"
    },
    {
      "bufferView": 2,
      "componentType": 5126,
      "count": 4,
      "type": "VEC2",
      "name": "accessorUVs"
    },
    {
      "bufferView": 0,
      "byteOffset": 12,
      "componentType": 5123,
      "count": 78,
      "type": "SCALAR",
      "name": "accessorIndices"
    },
    {
      "bufferView": 1,
      "byteOffset": 96,
      "componentType": 5126,
      "count": 44,
      "max": [
        0.035,
        0.0200000014,
        0.035
      ],
      "min": [
        -0.0349964537,
        -0.0200000014,
        -0.035
      ],
      "type": "VEC3",
      "name": "accessorPositions"
    },
    {
      "bufferView": 1,
      "byteOffset": 624,
      "componentType": 5126,
      "count": 44,
      "type": "VEC3",
      "name": "accessorNormals"
    },
    {
      "bufferView": 2,
      "byteOffset": 32,
      "componentType": 5126,
      "count": 44,
      "type": "VEC2",
      "name": "accessorUVs"
    }
  ],
  "bufferViews": [
    {
      "buffer": 0,
      "byteLength": 168,
      "name": "bufferViewScalar"
    },
    {
      "buffer": 0,
      "byteOffset": 168,
      "byteLength": 1152,
      "byteStride": 12,
      "name": "bufferViewFloatVec3"
    },
    {
      "buffer": 0,
      "byteOffset": 1320,
      "byteLength": 384,
      "byteStride": 8,
      "name": "bufferViewFloatVec2"
    }
  ],
  "buffers": [
    {
      "uri": "PTT.bin",
      "byteLength": 1704
    }
  ],
  "materials": [
    {
      "pbrMetallicRoughness": {
        "baseColorTexture": {
          "index": 0
        },
        "roughnessFactor": 0.5
      },
      "doubleSided": true,
      "name": "etc11"
    },
    {
      "pbrMetallicRoughness": {
        "baseColorFactor": [
          0.222748816,
          0.041469343,
          0.0316704474,
          1.0
        ],
        "roughnessFactor": 0.3,
        "metallicRoughnessTexture": {
          "index": 2
        }
      },
      "normalTexture": {
        "index": 1
      },
      "name": "MetalNoReflecred"
    }
  ],
  "textures": [
    {
      "sampler": 0,
      "source": 0,
      "name": "PTT.jpg"
    },
    {
      "sampler": 0,
      "source": 1,
      "name": "MetalCladdingFrame002_NRM_2K.jpg"
    },
    {
      "sampler": 0,
      "source": 2,
      "name": "76MetalCladdingFrame002_REFL_2K.jpg"
    }
  ],
  "images": [
    {
      "uri": "textures/PTT.jpg"
    },
    {
      "uri": "textures/MetalCladdingFrame002_NRM_2K.jpg"
    },
    {
      "uri": "textures/76MetalCladdingFrame002_REFL_2K.jpg"
    }
  ],
  "samplers": [
    {
      "magFilter": 9729,
      "minFilter": 9987
    }
  ]
}