{
  "asset": {
    "version": "2.0",
    "generator": "babylon.js glTF exporter for 3dsmax 2023 v20220628.14"
  },
  "scene": 0,
  "scenes": [
    {
      "nodes": [
        0
      ]
    }
  ],
  "nodes": [
    {
      "children": [
        1,
        2
      ],
      "name": "GIPAM2200DG"
    },
    {
      "mesh": 0,
      "translation": [
        0.0,
        0.0,
        0.0825
      ],
      "rotation": [
        0.7071068,
        0.0,
        0.0,
        0.7071067
      ],
      "name": "Rectangle176"
    },
    {
      "mesh": 1,
      "translation": [
        -3.125E-05,
        0.0,
        -0.0186875015
      ],
      "rotation": [
        0.7071068,
        0.0,
        0.0,
        0.7071067
      ],
      "name": "Rectangle174"
    }
  ],
  "meshes": [
    {
      "primitives": [
        {
          "attributes": {
            "POSITION": 1,
            "NORMAL": 2,
            "TEXCOORD_0": 3
          },
          "indices": 0,
          "material": 0
        }
      ],
      "name": "Rectangle176"
    },
    {
      "primitives": [
        {
          "attributes": {
            "POSITION": 5,
            "NORMAL": 6
          },
          "indices": 4,
          "material": 1
        }
      ],
      "name": "Rectangle174"
    }
  ],
  "accessors": [
    {
      "bufferView": 0,
      "componentType": 5123,
      "count": 468,
      "type": "SCALAR",
      "name": "accessorIndices"
    },
    {
      "bufferView": 1,
      "componentType": 5126,
      "count": 232,
      "max": [
        0.118503965,
        0.0186541751,
        0.142500013
      ],
      "min": [
        -0.118519589,
        -0.01867188,
        -0.142500013
      ],
      "type": "VEC3",
      "name": "accessorPositions"
    },
    {
      "bufferView": 1,
      "byteOffset": 2784,
      "componentType": 5126,
      "count": 232,
      "type": "VEC3",
      "name": "accessorNormals"
    },
    {
      "bufferView": 2,
      "componentType": 5126,
      "count": 232,
      "type": "VEC2",
      "name": "accessorUVs"
    },
    {
      "bufferView": 0,
      "byteOffset": 936,
      "componentType": 5123,
      "count": 30,
      "type": "SCALAR",
      "name": "accessorIndices"
    },
    {
      "bufferView": 1,
      "byteOffset": 5568,
      "componentType": 5126,
      "count": 20,
      "max": [
        0.09870313,
        0.0825,
        0.123500012
      ],
      "min": [
        -0.09870313,
        -0.0825,
        -0.123500027
      ],
      "type": "VEC3",
      "name": "accessorPositions"
    },
    {
      "bufferView": 1,
      "byteOffset": 5808,
      "componentType": 5126,
      "count": 20,
      "type": "VEC3",
      "name": "accessorNormals"
    }
  ],
  "bufferViews": [
    {
      "buffer": 0,
      "byteLength": 996,
      "name": "bufferViewScalar"
    },
    {
      "buffer": 0,
      "byteOffset": 996,
      "byteLength": 6048,
      "byteStride": 12,
      "name": "bufferViewFloatVec3"
    },
    {
      "buffer": 0,
      "byteOffset": 7044,
      "byteLength": 1856,
      "byteStride": 8,
      "name": "bufferViewFloatVec2"
    }
  ],
  "buffers": [
    {
      "uri": "GIPAM2200DG.bin",
      "byteLength": 8900
    }
  ],
  "materials": [
    {
      "pbrMetallicRoughness": {
        "baseColorTexture": {
          "index": 0
        }
      },
      "doubleSided": true,
      "name": "GIPAM2200DG"
    },
    {
      "pbrMetallicRoughness": {
        "baseColorFactor": [
          0.06453135,
          0.06987714,
          0.08056872,
          1.0
        ],
        "roughnessFactor": 0.5
      },
      "name": "dGRAY"
    }
  ],
  "textures": [
    {
      "sampler": 0,
      "source": 0,
      "name": "GIPAM2200DG.jpg"
    }
  ],
  "images": [
    {
      "uri": "textures/GIPAM2200DG.jpg"
    }
  ],
  "samplers": [
    {
      "magFilter": 9729,
      "minFilter": 9987
    }
  ]
}