{
  "asset": {
    "version": "2.0",
    "generator": "babylon.js glTF exporter for 3dsmax 2023 v20221031.2"
  },
  "scene": 0,
  "scenes": [
    {
      "nodes": [
        0
      ]
    }
  ],
  "nodes": [
    {
      "children": [
        1,
        2
      ],
      "scale": [
        1000.0,
        1000.0,
        1000.0
      ],
      "name": "root"
    },
    {
      "mesh": 0,
      "name": "fanSteel"
    },
    {
      "mesh": 1,
      "name": "fan_A"
    }
  ],
  "meshes": [
    {
      "primitives": [
        {
          "attributes": {
            "POSITION": 1,
            "NORMAL": 2,
            "TEXCOORD_0": 3
          },
          "indices": 0,
          "material": 0
        }
      ],
      "name": "fanSteel"
    },
    {
      "primitives": [
        {
          "attributes": {
            "POSITION": 5,
            "NORMAL": 6,
            "TEXCOORD_0": 7
          },
          "indices": 4,
          "material": 1
        }
      ],
      "name": "fan_A"
    }
  ],
  "accessors": [
    {
      "bufferView": 0,
      "componentType": 5123,
      "count": 912,
      "type": "SCALAR",
      "name": "accessorIndices"
    },
    {
      "bufferView": 1,
      "componentType": 5126,
      "count": 500,
      "max": [
        0.003125,
        0.003125,
        0.00125000009
      ],
      "min": [
        -0.003125,
        -0.003125,
        -0.00125000009
      ],
      "type": "VEC3",
      "name": "accessorPositions"
    },
    {
      "bufferView": 1,
      "byteOffset": 6000,
      "componentType": 5126,
      "count": 500,
      "type": "VEC3",
      "name": "accessorNormals"
    },
    {
      "bufferView": 2,
      "componentType": 5126,
      "count": 500,
      "type": "VEC2",
      "name": "accessorUVs"
    },
    {
      "bufferView": 0,
      "byteOffset": 1824,
      "componentType": 5123,
      "count": 156,
      "type": "SCALAR",
      "name": "accessorIndices"
    },
    {
      "bufferView": 1,
      "byteOffset": 12000,
      "componentType": 5126,
      "count": 64,
      "max": [
        0.0023846,
        0.00232490012,
        -1.73E-05
      ],
      "min": [
        -0.0023846,
        -0.00232490012,
        -0.0001346
      ],
      "type": "VEC3",
      "name": "accessorPositions"
    },
    {
      "bufferView": 1,
      "byteOffset": 12768,
      "componentType": 5126,
      "count": 64,
      "type": "VEC3",
      "name": "accessorNormals"
    },
    {
      "bufferView": 2,
      "byteOffset": 4000,
      "componentType": 5126,
      "count": 64,
      "type": "VEC2",
      "name": "accessorUVs"
    }
  ],
  "bufferViews": [
    {
      "buffer": 0,
      "byteLength": 2136,
      "name": "bufferViewScalar"
    },
    {
      "buffer": 0,
      "byteOffset": 2136,
      "byteLength": 13536,
      "byteStride": 12,
      "name": "bufferViewFloatVec3"
    },
    {
      "buffer": 0,
      "byteOffset": 15672,
      "byteLength": 4512,
      "byteStride": 8,
      "name": "bufferViewFloatVec2"
    }
  ],
  "buffers": [
    {
      "uri": "fanDuct.bin",
      "byteLength": 20184
    }
  ],
  "materials": [
    {
      "pbrMetallicRoughness": {
        "baseColorTexture": {
          "index": 0
        },
        "metallicFactor": 0.0,
        "roughnessFactor": -2.02441
      },
      "doubleSided": true,
      "name": "untitled_Material__61",
      "extras": {
        "babylonSeparateCullingPass": false
      }
    },
    {
      "pbrMetallicRoughness": {
        "baseColorTexture": {
          "index": 1
        },
        "metallicFactor": 0.0,
        "roughnessFactor": 0.450053632
      },
      "name": "Material #25"
    }
  ],
  "textures": [
    {
      "sampler": 0,
      "source": 0,
      "name": "fanSteel.jpg"
    },
    {
      "sampler": 0,
      "source": 1,
      "name": "fan_A.png"
    }
  ],
  "images": [
    {
      "uri": "textures/fanSteel.jpg"
    },
    {
      "uri": "textures/fan_A.png"
    }
  ],
  "samplers": [
    {
      "magFilter": 9729,
      "minFilter": 9987
    }
  ]
}