{"asset":{"version":"2.0","generator":"babylon.js glTF exporter for 3dsmax 2020 v20200813.4"},"scene":0,"scenes":[{"nodes":[0]}],"nodes":[{"children":[1,2],"scale":[1000.0,1000.0,1000.0],"name":"root"},{"mesh":0,"name":"T40"},{"name":"Default light"}],"meshes":[{"primitives":[{"attributes":{"POSITION":1,"NORMAL":2,"TEXCOORD_0":3},"indices":0,"material":0}],"name":"T40"}],"accessors":[{"bufferView":0,"componentType":5123,"count":840,"type":"SCALAR","name":"accessorIndices"},{"bufferView":1,"componentType":5126,"count":840,"max":[0.000350000017,0.000771500054,0.000184500008],"min":[-0.000350000017,-0.000771500054,-0.000184500008],"type":"VEC3","name":"accessorPositions"},{"bufferView":1,"byteOffset":10080,"componentType":5126,"count":840,"type":"VEC3","name":"accessorNormals"},{"bufferView":2,"componentType":5126,"count":840,"type":"VEC2","name":"accessorUVs"}],"bufferViews":[{"buffer":0,"byteLength":1680,"name":"bufferViewScalar"},{"buffer":0,"byteOffset":1680,"byteLength":20160,"byteStride":12,"name":"bufferViewFloatVec3"},{"buffer":0,"byteOffset":21840,"byteLength":6720,"byteStride":8,"name":"bufferViewFloatVec2"}],"buffers":[{"uri":"CardReader_T40.bin","byteLength":28560}],"materials":[{"pbrMetallicRoughness":{"baseColorTexture":{"index":0},"metallicFactor":0.0,"roughnessFactor":0.450053632},"name":"Material #28"}],"textures":[{"sampler":0,"source":0,"name":"T40.jpg"}],"images":[{"uri":"textues/T40.jpg"}],"samplers":[{"magFilter":9729,"minFilter":9987}]}