{"asset":{"version":"2.0","generator":"babylon.js glTF exporter for 3dsmax 2020 v20200813.4"},"scene":0,"scenes":[{"nodes":[0]}],"nodes":[{"children":[1,2],"scale":[1000.0,1000.0,1000.0],"name":"root"},{"mesh":0,"name":"XraySearchDesk"},{"name":"Default light"}],"meshes":[{"primitives":[{"attributes":{"POSITION":1,"NORMAL":2,"TEXCOORD_0":3},"indices":0,"material":0}],"name":"XraySearchDesk"}],"accessors":[{"bufferView":0,"componentType":5123,"count":900,"type":"SCALAR","name":"accessorIndices"},{"bufferView":1,"componentType":5126,"count":900,"max":[0.00425,0.0088691,0.0150050009],"min":[-0.00425,-0.0088691,-0.0150050009],"type":"VEC3","name":"accessorPositions"},{"bufferView":1,"byteOffset":10800,"componentType":5126,"count":900,"type":"VEC3","name":"accessorNormals"},{"bufferView":2,"componentType":5126,"count":900,"type":"VEC2","name":"accessorUVs"}],"bufferViews":[{"buffer":0,"byteLength":1800,"name":"bufferViewScalar"},{"buffer":0,"byteOffset":1800,"byteLength":21600,"byteStride":12,"name":"bufferViewFloatVec3"},{"buffer":0,"byteOffset":23400,"byteLength":7200,"byteStride":8,"name":"bufferViewFloatVec2"}],"buffers":[{"uri":"XraySearchDesk.bin","byteLength":30600}],"materials":[{"pbrMetallicRoughness":{"baseColorTexture":{"index":0},"metallicFactor":0.0,"roughnessFactor":0.450053632},"name":"Material #46"}],"textures":[{"sampler":0,"source":0,"name":"XraySearchDesk.jpg"}],"images":[{"uri":"textures/XraySearchDesk.jpg"}],"samplers":[{"magFilter":9729,"minFilter":9987}]}