<svg preserveAspectRatio="none" width="100%" height="100%" overflow="visible" style="display: block;" viewBox="0 0 87.1959 108.743" fill="none" xmlns="http://www.w3.org/2000/svg">
<g id="symbol">
<g id="Shade" filter="url(#filter0_d_422_74)">
<path d="M42.6169 62.7838C43.0726 62.5465 43.615 62.5447 44.0722 62.7788L73.6434 77.9172C74.7946 78.5065 74.7946 80.1517 73.6434 80.741L44.0722 95.8794C43.615 96.1135 43.0726 96.1116 42.6169 95.8743L13.5428 80.7359C12.4046 80.1433 12.4046 78.5148 13.5428 77.9222L42.6169 62.7838Z" fill="var(--fill-0, black)" fill-opacity="0.01"/>
</g>
<path id="4" d="M6.61057 25.7561C6.61057 22.9104 8.13519 20.2829 10.6057 18.8708L39.685 2.2495C42.1236 0.855651 45.1175 0.85565 47.5561 2.2495L76.6354 18.8708C79.106 20.2829 80.6306 22.9104 80.6306 25.7561V58.8613C80.6306 61.707 79.106 64.3345 76.6354 65.7466L47.5561 82.3679C45.1175 83.7618 42.1236 83.7618 39.685 82.3679L10.6057 65.7466C8.13519 64.3345 6.61057 61.707 6.61057 58.8613V25.7561Z" fill="var(--fill-0, #D4F9FF)"/>
<path id="3" d="M10.1345 27.4892C10.1345 24.6595 11.6421 22.0442 14.0908 20.6262L39.6453 5.82743C42.1037 4.40379 45.1357 4.40378 47.5941 5.82743L73.1486 20.6262C75.5973 22.0442 77.105 24.6595 77.105 27.4892V57.1285C77.105 59.9581 75.5973 62.5734 73.1486 63.9914L47.5941 78.7902C45.1357 80.2139 42.1037 80.2139 39.6453 78.7902L14.0908 63.9915C11.6421 62.5734 10.1345 59.9581 10.1345 57.1285V27.4892Z" fill="var(--fill-0, #94F1FF)"/>
<path id="2" d="M43.6201 43.962C43.6201 40.9104 45.3709 38.1295 48.1226 36.8104L73.319 24.7324C75.0738 23.8912 77.1053 25.1702 77.1053 27.1162V57.1285C77.1053 59.9581 75.5976 62.5734 73.149 63.9915L47.5884 78.7937C45.826 79.8143 43.6201 78.5427 43.6201 76.5061L43.6201 61.7004L43.6201 43.962Z" fill="var(--fill-0, #2AE3FF)"/>
<path id="1" d="M10.1345 27.1224C10.1345 25.1749 12.1688 23.8959 13.9239 24.7401L39.1265 36.862C41.8731 38.1831 43.6197 40.9612 43.6197 44.009V73.5776C43.6197 73.5776 43.6486 76.1249 44.2418 76.9823C44.7502 77.7172 45.5676 78.2252 46.3069 78.3838C47.3748 78.613 48.4711 78.2622 48.4711 78.2622L47.6012 78.7696C45.1396 80.2054 42.097 80.2101 39.631 78.782L14.0908 63.9915C11.6421 62.5735 10.1345 59.9582 10.1345 57.1286V27.1224Z" fill="var(--fill-0, #00CDED)"/>
</g>
<defs>
<filter id="filter0_d_422_74" x="0" y="49.9154" width="87.1959" height="58.8274" filterUnits="userSpaceOnUse" color-interpolation-filters="sRGB">
<feFlood flood-opacity="0" result="BackgroundImageFix"/>
<feColorMatrix in="SourceAlpha" type="matrix" values="0 0 0 0 0 0 0 0 0 0 0 0 0 0 0 0 0 0 127 0" result="hardAlpha"/>
<feOffset/>
<feGaussianBlur stdDeviation="6.34457"/>
<feColorMatrix type="matrix" values="0 0 0 0 0.164706 0 0 0 0 0.890196 0 0 0 0 1 0 0 0 0.4 0"/>
<feBlend mode="normal" in2="BackgroundImageFix" result="effect1_dropShadow_422_74"/>
<feBlend mode="normal" in="SourceGraphic" in2="effect1_dropShadow_422_74" result="shape"/>
</filter>
</defs>
</svg>
