<svg preserveAspectRatio="none" width="100%" height="100%" overflow="visible" style="display: block;" viewBox="0 0 87.1959 108.743" fill="none" xmlns="http://www.w3.org/2000/svg">
<g id="symbol">
<g id="Shade" filter="url(#filter0_d_422_81)">
<path d="M42.6169 62.7838C43.0726 62.5465 43.615 62.5447 44.0722 62.7788L73.6434 77.9172C74.7946 78.5065 74.7946 80.1517 73.6434 80.741L44.0722 95.8794C43.615 96.1135 43.0726 96.1116 42.6169 95.8743L13.5428 80.7359C12.4046 80.1433 12.4046 78.5148 13.5428 77.9222L42.6169 62.7838Z" fill="var(--fill-0, black)" fill-opacity="0.01"/>
</g>
<path id="4" d="M6.61212 25.7561C6.61212 22.9104 8.13674 20.2829 10.6073 18.8708L39.6866 2.2495C42.1251 0.855651 45.1191 0.85565 47.5577 2.2495L76.6369 18.8708C79.1075 20.2829 80.6321 22.9104 80.6321 25.7561V58.8613C80.6321 61.707 79.1075 64.3345 76.637 65.7466L47.5577 82.3679C45.1191 83.7618 42.1251 83.7618 39.6866 82.3679L10.6073 65.7466C8.13674 64.3345 6.61212 61.707 6.61212 58.8613V25.7561Z" fill="var(--fill-0, #D6F6E8)"/>
<path id="3" d="M10.136 27.4892C10.136 24.6595 11.6437 22.0442 14.0924 20.6262L39.6469 5.82743C42.1052 4.40379 45.1373 4.40378 47.5957 5.82743L73.1502 20.6262C75.5989 22.0442 77.1065 24.6595 77.1065 27.4892V57.1285C77.1065 59.9581 75.5989 62.5734 73.1502 63.9914L47.5957 78.7902C45.1373 80.2139 42.1052 80.2139 39.6469 78.7902L14.0924 63.9915C11.6437 62.5734 10.136 59.9581 10.136 57.1285V27.4892Z" fill="var(--fill-0, #84E4BA)"/>
<path id="2" d="M43.6216 43.962C43.6216 40.9104 45.3724 38.1295 48.1242 36.8104L73.3206 24.7324C75.0754 23.8912 77.1068 25.1702 77.1068 27.1162V57.1285C77.1068 59.9581 75.5992 62.5734 73.1505 63.9915L47.59 78.7937C45.8276 79.8143 43.6216 78.5427 43.6216 76.5061L43.6216 61.7004L43.6216 43.962Z" fill="var(--fill-0, #32D28C)"/>
<path id="1" d="M10.136 27.1224C10.136 25.1749 12.1704 23.8959 13.9254 24.7401L39.1281 36.862C41.8747 38.1831 43.6213 40.9612 43.6213 44.009V73.5776C43.6213 73.5776 43.6501 76.1249 44.2433 76.9823C44.7518 77.7172 45.5691 78.2252 46.3084 78.3838C47.3763 78.613 48.4726 78.2622 48.4726 78.2622L47.6027 78.7696C45.1412 80.2054 42.0986 80.2101 39.6326 78.782L14.0924 63.9915C11.6437 62.5735 10.136 59.9582 10.136 57.1286V27.1224Z" fill="var(--fill-0, #2AC07F)"/>
</g>
<defs>
<filter id="filter0_d_422_81" x="0" y="49.9154" width="87.1959" height="58.8274" filterUnits="userSpaceOnUse" color-interpolation-filters="sRGB">
<feFlood flood-opacity="0" result="BackgroundImageFix"/>
<feColorMatrix in="SourceAlpha" type="matrix" values="0 0 0 0 0 0 0 0 0 0 0 0 0 0 0 0 0 0 127 0" result="hardAlpha"/>
<feOffset/>
<feGaussianBlur stdDeviation="6.34457"/>
<feColorMatrix type="matrix" values="0 0 0 0 0.196078 0 0 0 0 0.823529 0 0 0 0 0.54902 0 0 0 0.4 0"/>
<feBlend mode="normal" in2="BackgroundImageFix" result="effect1_dropShadow_422_81"/>
<feBlend mode="normal" in="SourceGraphic" in2="effect1_dropShadow_422_81" result="shape"/>
</filter>
</defs>
</svg>
