<svg preserveAspectRatio="none" width="100%" height="100%" overflow="visible" style="display: block;" viewBox="0 0 147.302 84.5687" fill="none" xmlns="http://www.w3.org/2000/svg">
<g id="Aa">
<path d="M21.6927 83.5086L27.1974 65.975H56.0258L61.5305 83.5086H83.2232L55.0472 0H28.176L0 83.5086H21.6927ZM32.0089 50.6434L41.265 21.0402H41.9174L51.2142 50.6434H32.0089Z" fill="var(--fill-0, #502EE9)" fill-opacity="0.1"/>
<path d="M109.87 84.5687C118.596 84.5687 124.631 81.1844 128.056 74.7826H128.545V83.5086H147.302V40.9388C147.302 27.6867 135.518 20.0616 119.575 20.0616C102.734 20.0616 93.1928 28.543 91.6026 39.9602L109.992 40.6126C110.849 36.6166 114.152 34.17 119.412 34.17C124.305 34.17 127.404 36.535 127.404 40.7349V40.9388C127.404 44.7717 123.244 45.5872 112.561 46.525C99.88 47.5852 89.2783 52.2744 89.2783 66.1381C89.2783 78.5339 97.882 84.5687 109.87 84.5687ZM116.027 71.5205C111.42 71.5205 108.157 69.3186 108.157 65.1595C108.157 61.1227 111.338 58.6762 117.006 57.8199C120.716 57.2898 125.283 56.4743 127.526 55.2918V61.2451C127.526 67.3614 122.388 71.5205 116.027 71.5205Z" fill="var(--fill-0, #502EE9)" fill-opacity="0.1"/>
</g>
</svg>
