{"asset":{"version":"2.0","generator":"babylon.js glTF exporter for 3dsmax 2020 v20221031.2"},"scene":0,"scenes":[{"nodes":[0]}],"nodes":[{"children":[1,2],"scale":[1000.0,1000.0,1000.0],"name":"root"},{"mesh":0,"translation":[3.051758E-08,0.007316246,-0.001622902],"rotation":[0.0,-1.0,0.0,-5.20548554E-07],"name":"fabric_A"},{"mesh":1,"translation":[0.0,0.00513351662,0.0],"rotation":[0.0,-1.0,0.0,-5.20548554E-07],"name":"officeChair"}],"meshes":[{"primitives":[{"attributes":{"POSITION":1,"NORMAL":2,"TEXCOORD_0":3},"indices":0,"material":0}],"name":"fabric_A"},{"primitives":[{"attributes":{"POSITION":5,"NORMAL":6,"TEXCOORD_0":7},"indices":4,"material":1}],"name":"officeChair"}],"accessors":[{"bufferView":0,"componentType":5123,"count":420,"type":"SCALAR","name":"accessorIndices"},{"bufferView":1,"componentType":5126,"count":128,"max":[0.00263022049,0.00345844752,0.000618437771],"min":[-0.00263021514,-0.0033657006,-0.0006184374],"type":"VEC3","name":"accessorPositions"},{"bufferView":1,"byteOffset":1536,"componentType":5126,"count":128,"type":"VEC3","name":"accessorNormals"},{"bufferView":2,"componentType":5126,"count":128,"type":"VEC2","name":"accessorUVs"},{"bufferView":0,"byteOffset":840,"componentType":5123,"count":5457,"type":"SCALAR","name":"accessorIndices"},{"bufferView":1,"byteOffset":3072,"componentType":5126,"count":3049,"max":[0.00325329532,0.005644026,0.00317099784],"min":[-0.00325329346,-0.00513352128,-0.00317099784],"type":"VEC3","name":"accessorPositions"},{"bufferView":1,"byteOffset":39660,"componentType":5126,"count":3049,"type":"VEC3","name":"accessorNormals"},{"bufferView":2,"byteOffset":1024,"componentType":5126,"count":3049,"type":"VEC2","name":"accessorUVs"}],"bufferViews":[{"buffer":0,"byteLength":11756,"name":"bufferViewScalar"},{"buffer":0,"byteOffset":11756,"byteLength":76248,"byteStride":12,"name":"bufferViewFloatVec3"},{"buffer":0,"byteOffset":88004,"byteLength":25416,"byteStride":8,"name":"bufferViewFloatVec2"}],"buffers":[{"uri":"Chair_Office02.bin","byteLength":113420}],"materials":[{"pbrMetallicRoughness":{"baseColorTexture":{"index":0},"metallicFactor":0.0,"roughnessFactor":0.450053632},"name":"Material #25192279"},{"pbrMetallicRoughness":{"baseColorTexture":{"index":1},"metallicFactor":0.0,"roughnessFactor":0.450053632},"name":"Material #25192280"}],"textures":[{"sampler":0,"source":0,"name":"fabric_A.png"},{"sampler":0,"source":1,"name":"officeChair.jpg"}],"images":[{"uri":"textures/fabric_A.png"},{"uri":"textures/officeChair.jpg"}],"samplers":[{"magFilter":9729,"minFilter":9987}]}