{"asset":{"version":"2.0","generator":"babylon.js glTF exporter for 3dsmax 2025 v20250127.3"},"scene":0,"scenes":[{"nodes":[0]}],"nodes":[{"mesh":0,"rotation":[0.0,-1.0,0.0,-7.54979E-08],"name":"LV-2J7"}],"meshes":[{"primitives":[{"attributes":{"POSITION":1,"NORMAL":2,"TEXCOORD_0":3},"indices":0,"material":0}],"name":"LV-2J7"}],"accessors":[{"bufferView":0,"componentType":5123,"count":84,"type":"SCALAR","name":"accessorIndices"},{"bufferView":1,"componentType":5126,"count":36,"max":[0.5000048,1.275,1.09999967],"min":[-0.5000048,-1.275,-1.09999979],"type":"VEC3","name":"accessorPositions"},{"bufferView":1,"byteOffset":432,"componentType":5126,"count":36,"type":"VEC3","name":"accessorNormals"},{"bufferView":2,"componentType":5126,"count":36,"type":"VEC2","name":"accessorUVs"}],"bufferViews":[{"buffer":0,"byteLength":168,"name":"bufferViewScalar"},{"buffer":0,"byteOffset":168,"byteLength":864,"byteStride":12,"name":"bufferViewFloatVec3"},{"buffer":0,"byteOffset":1032,"byteLength":288,"byteStride":8,"name":"bufferViewFloatVec2"}],"buffers":[{"uri":"LV_2P_05.bin","byteLength":1320}],"materials":[{"pbrMetallicRoughness":{"baseColorTexture":{"index":0},"metallicFactor":0.0,"roughnessFactor":0.0},"doubleSided":true,"name":"Material #342540215","extras":{"babylonSeparateCullingPass":false,"subsurface_type":"","caustics":false,"internal_reflections":true,"exit_to_background":false,"indirect_diffuse":1.0,"indirect_specular":1.0,"dielectric_priority":0,"transmit_aovs":false,"aov_id1":"","aov_id2":"","aov_id3":"","aov_id4":"","aov_id5":"","aov_id6":"","aov_id7":"","aov_id8":""}}],"textures":[{"sampler":0,"source":0,"name":"LV_UPS13.jpg"}],"images":[{"uri":"maps/LV_UPS13.jpg"}],"samplers":[{"magFilter":9729,"minFilter":9987}]}