{"asset":{"version":"2.0","generator":"babylon.js glTF exporter for 3dsmax 2020 v20221031.2"},"scene":0,"scenes":[{"nodes":[0]}],"nodes":[{"children":[1],"scale":[1000.0,1000.0,1000.0],"name":"root"},{"mesh":0,"rotation":[0.0,0.0,1.0,4.371139E-08],"scale":[2.0,2.0,2.0],"name":"UBioXFacePremium"}],"meshes":[{"primitives":[{"attributes":{"POSITION":1,"NORMAL":2,"TEXCOORD_0":3},"indices":0,"material":0}],"name":"UBioXFacePremium"}],"accessors":[{"bufferView":0,"componentType":5123,"count":372,"type":"SCALAR","name":"accessorIndices"},{"bufferView":1,"componentType":5126,"count":152,"max":[0.0007165002,0.00144750008,0.000237953063],"min":[-0.0007165002,-0.00144750008,0.0],"type":"VEC3","name":"accessorPositions"},{"bufferView":1,"byteOffset":1824,"componentType":5126,"count":152,"type":"VEC3","name":"accessorNormals"},{"bufferView":2,"componentType":5126,"count":152,"type":"VEC2","name":"accessorUVs"}],"bufferViews":[{"buffer":0,"byteLength":744,"name":"bufferViewScalar"},{"buffer":0,"byteOffset":744,"byteLength":3648,"byteStride":12,"name":"bufferViewFloatVec3"},{"buffer":0,"byteOffset":4392,"byteLength":1216,"byteStride":8,"name":"bufferViewFloatVec2"}],"buffers":[{"uri":"UBio-XFacePremium.bin","byteLength":5608}],"materials":[{"pbrMetallicRoughness":{"baseColorTexture":{"index":0},"metallicFactor":0.0,"roughnessFactor":0.450053632},"name":"Material #114"}],"textures":[{"sampler":0,"source":0,"name":"UBioXFacePremium.jpg"}],"images":[{"uri":"textures/UBioXFacePremium.jpg"}],"samplers":[{"magFilter":9729,"minFilter":9987}]}