{"asset":{"version":"2.0","generator":"babylon.js glTF exporter for 3dsmax 2020 v20221031.2"},"scene":0,"scenes":[{"nodes":[0]}],"nodes":[{"children":[1,2],"scale":[1000.0,1000.0,1000.0],"name":"root"},{"mesh":0,"translation":[3.84717023E-05,0.0122499913,-0.00018876596],"rotation":[-7.15255737E-07,6.715445E-07,4.80325849E-13,1.0],"name":"door3P_A"},{"mesh":1,"translation":[0.0,0.0119999992,5.245366E-10],"rotation":[-8.742278E-08,0.0,0.0,1.0],"name":"TelephoneBooth3P"}],"meshes":[{"primitives":[{"attributes":{"POSITION":1,"NORMAL":2,"TEXCOORD_0":3},"indices":0,"material":0}],"name":"door3P_A"},{"primitives":[{"attributes":{"POSITION":5,"NORMAL":6,"TEXCOORD_0":7},"indices":4,"material":1}],"name":"TelephoneBooth3P"}],"accessors":[{"bufferView":0,"componentType":5123,"count":324,"type":"SCALAR","name":"accessorIndices"},{"bufferView":1,"componentType":5126,"count":180,"max":[0.0101818349,0.010944088,0.00739768334],"min":[-0.0101818349,-0.010944088,-0.00739768939],"type":"VEC3","name":"accessorPositions"},{"bufferView":1,"byteOffset":2160,"componentType":5126,"count":180,"type":"VEC3","name":"accessorNormals"},{"bufferView":2,"componentType":5126,"count":180,"type":"VEC2","name":"accessorUVs"},{"bufferView":0,"byteOffset":648,"componentType":5123,"count":3360,"type":"SCALAR","name":"accessorIndices"},{"bufferView":1,"byteOffset":4320,"componentType":5126,"count":1454,"max":[0.011040478,0.0120000038,0.00768925343],"min":[-0.0110404762,-0.0120000038,-0.00768925343],"type":"VEC3","name":"accessorPositions"},{"bufferView":1,"byteOffset":21768,"componentType":5126,"count":1454,"type":"VEC3","name":"accessorNormals"},{"bufferView":2,"byteOffset":1440,"componentType":5126,"count":1454,"type":"VEC2","name":"accessorUVs"}],"bufferViews":[{"buffer":0,"byteLength":7368,"name":"bufferViewScalar"},{"buffer":0,"byteOffset":7368,"byteLength":39216,"byteStride":12,"name":"bufferViewFloatVec3"},{"buffer":0,"byteOffset":46584,"byteLength":13072,"byteStride":8,"name":"bufferViewFloatVec2"}],"buffers":[{"uri":"TelephoneBooth3P.bin","byteLength":59656}],"materials":[{"pbrMetallicRoughness":{"baseColorTexture":{"index":0},"metallicFactor":0.0,"roughnessFactor":0.450053632},"name":"Material #25191313"},{"pbrMetallicRoughness":{"baseColorTexture":{"index":1},"metallicFactor":0.0,"roughnessFactor":0.450053632},"name":"Material #25191314"}],"textures":[{"sampler":0,"source":0,"name":"door3P_A.png"},{"sampler":0,"source":1,"name":"TelephoneBooth3P.jpg"}],"images":[{"uri":"textures/door3P_A.png"},{"uri":"textures/TelephoneBooth3P.jpg"}],"samplers":[{"magFilter":9729,"minFilter":9987}]}