{"asset":{"version":"2.0","generator":"babylon.js glTF exporter for 3dsmax 2020 v20221031.2"},"scene":0,"scenes":[{"nodes":[0]}],"nodes":[{"children":[1],"scale":[1000.0,1000.0,1000.0],"name":"root"},{"children":[2,3],"name":"Group001"},{"mesh":0,"translation":[5.61526576E-06,0.002898743,-0.000248451252],"name":"Thermal-i2"},{"mesh":1,"translation":[-8.544892E-06,-0.00056658173,-0.0002379532],"rotation":[0.0,0.0,1.0,4.371139E-08],"scale":[2.0,2.0,2.0],"name":"UBioXFacePremium"}],"meshes":[{"primitives":[{"attributes":{"POSITION":1,"NORMAL":2,"TEXCOORD_0":3},"indices":0,"material":0}],"name":"Thermal-i2"},{"primitives":[{"attributes":{"POSITION":5,"NORMAL":6,"TEXCOORD_0":7},"indices":4,"material":1}],"name":"UBioXFacePremium"}],"accessors":[{"bufferView":0,"componentType":5123,"count":372,"type":"SCALAR","name":"accessorIndices"},{"bufferView":1,"componentType":5126,"count":134,"max":[0.00143604667,0.000562838453,0.0002274595],"min":[-0.00143604667,-0.000562837755,-0.000227444718],"type":"VEC3","name":"accessorPositions"},{"bufferView":1,"byteOffset":1608,"componentType":5126,"count":134,"type":"VEC3","name":"accessorNormals"},{"bufferView":2,"componentType":5126,"count":134,"type":"VEC2","name":"accessorUVs"},{"bufferView":0,"byteOffset":744,"componentType":5123,"count":372,"type":"SCALAR","name":"accessorIndices"},{"bufferView":1,"byteOffset":3216,"componentType":5126,"count":152,"max":[0.0007165002,0.00144750008,0.000118976466],"min":[-0.0007165002,-0.00144750008,-0.0001189766],"type":"VEC3","name":"accessorPositions"},{"bufferView":1,"byteOffset":5040,"componentType":5126,"count":152,"type":"VEC3","name":"accessorNormals"},{"bufferView":2,"byteOffset":1072,"componentType":5126,"count":152,"type":"VEC2","name":"accessorUVs"}],"bufferViews":[{"buffer":0,"byteLength":1488,"name":"bufferViewScalar"},{"buffer":0,"byteOffset":1488,"byteLength":6864,"byteStride":12,"name":"bufferViewFloatVec3"},{"buffer":0,"byteOffset":8352,"byteLength":2288,"byteStride":8,"name":"bufferViewFloatVec2"}],"buffers":[{"uri":"UBio-XFacePremium_cam.bin","byteLength":10640}],"materials":[{"pbrMetallicRoughness":{"baseColorTexture":{"index":0},"metallicFactor":0.0,"roughnessFactor":0.450053632},"name":"Material #809"},{"pbrMetallicRoughness":{"baseColorTexture":{"index":1},"metallicFactor":0.0,"roughnessFactor":0.450053632},"name":"Material #114"}],"textures":[{"sampler":0,"source":0,"name":"Thermal-i2.jpg"},{"sampler":0,"source":1,"name":"UBioXFacePremium.jpg"}],"images":[{"uri":"textures/Thermal-i2.jpg"},{"uri":"textures/UBioXFacePremium.jpg"}],"samplers":[{"magFilter":9729,"minFilter":9987}]}