{
  "asset": {
    "version": "2.0",
    "generator": "babylon.js glTF exporter for 3dsmax 2023 v20221031.2"
  },
  "scene": 0,
  "scenes": [
    {
      "nodes": [
        0
      ]
    }
  ],
  "nodes": [
    {
      "children": [
        1
      ],
      "scale": [
        1000.0,
        1000.0,
        1000.0
      ],
      "name": "root"
    },
    {
      "mesh": 0,
      "name": "cctvNbx2201"
    }
  ],
  "meshes": [
    {
      "primitives": [
        {
          "attributes": {
            "POSITION": 1,
            "NORMAL": 2,
            "TEXCOORD_0": 3
          },
          "indices": 0,
          "material": 0
        }
      ],
      "name": "cctvNbx2201"
    }
  ],
  "accessors": [
    {
      "bufferView": 0,
      "componentType": 5123,
      "count": 1494,
      "type": "SCALAR",
      "name": "accessorIndices"
    },
    {
      "bufferView": 1,
      "componentType": 5126,
      "count": 798,
      "max": [
        0.000407500018,
        0.000340000028,
        0.00107840006
      ],
      "min": [
        -0.000407500018,
        -0.000340000028,
        -0.00107840006
      ],
      "type": "VEC3",
      "name": "accessorPositions"
    },
    {
      "bufferView": 1,
      "byteOffset": 9576,
      "componentType": 5126,
      "count": 798,
      "type": "VEC3",
      "name": "accessorNormals"
    },
    {
      "bufferView": 2,
      "componentType": 5126,
      "count": 798,
      "type": "VEC2",
      "name": "accessorUVs"
    }
  ],
  "bufferViews": [
    {
      "buffer": 0,
      "byteLength": 2988,
      "name": "bufferViewScalar"
    },
    {
      "buffer": 0,
      "byteOffset": 2988,
      "byteLength": 19152,
      "byteStride": 12,
      "name": "bufferViewFloatVec3"
    },
    {
      "buffer": 0,
      "byteOffset": 22140,
      "byteLength": 6384,
      "byteStride": 8,
      "name": "bufferViewFloatVec2"
    }
  ],
  "buffers": [
    {
      "uri": "cctvNbx2201.bin",
      "byteLength": 28524
    }
  ],
  "materials": [
    {
      "pbrMetallicRoughness": {
        "baseColorTexture": {
          "index": 0
        },
        "metallicFactor": 0.0,
        "roughnessFactor": 0.450053632
      },
      "name": "Material #30"
    }
  ],
  "textures": [
    {
      "sampler": 0,
      "source": 0,
      "name": "cctvNbx2201.png"
    }
  ],
  "images": [
    {
      "uri": "textures/cctvNbx2201.png"
    }
  ],
  "samplers": [
    {
      "magFilter": 9729,
      "minFilter": 9987
    }
  ]
}