{"asset":{"version":"2.0","generator":"babylon.js glTF exporter for 3dsmax 2020 v20221031.2"},"scene":0,"scenes":[{"nodes":[0]}],"nodes":[{"children":[1],"scale":[1000.0,1000.0,1000.0],"name":"root"},{"mesh":0,"translation":[1.90734872E-09,1.04904183E-08,-1.43051149E-09],"name":"UPS03"}],"meshes":[{"primitives":[{"attributes":{"POSITION":1,"NORMAL":2,"TEXCOORD_0":3},"indices":0,"material":0}],"name":"UPS03"}],"accessors":[{"bufferView":0,"componentType":5123,"count":264,"type":"SCALAR","name":"accessorIndices"},{"bufferView":1,"componentType":5126,"count":139,"max":[0.009755305,0.008500009,0.00431015156],"min":[-0.009755305,-0.008500009,-0.00431015156],"type":"VEC3","name":"accessorPositions"},{"bufferView":1,"byteOffset":1668,"componentType":5126,"count":139,"type":"VEC3","name":"accessorNormals"},{"bufferView":2,"componentType":5126,"count":139,"type":"VEC2","name":"accessorUVs"}],"bufferViews":[{"buffer":0,"byteLength":528,"name":"bufferViewScalar"},{"buffer":0,"byteOffset":528,"byteLength":3336,"byteStride":12,"name":"bufferViewFloatVec3"},{"buffer":0,"byteOffset":3864,"byteLength":1112,"byteStride":8,"name":"bufferViewFloatVec2"}],"buffers":[{"uri":"B3F_UPS03.bin","byteLength":4976}],"materials":[{"pbrMetallicRoughness":{"baseColorTexture":{"index":0},"metallicFactor":0.0,"roughnessFactor":0.450053632},"name":"Material #342534867"}],"textures":[{"sampler":0,"source":0,"name":"UPS03.jpg"}],"images":[{"uri":"textures/UPS03.jpg"}],"samplers":[{"magFilter":9729,"minFilter":9987}]}