{
  "asset": {
    "version": "2.0",
    "generator": "babylon.js glTF exporter for 3dsmax 2023 v20221031.2"
  },
  "scene": 0,
  "scenes": [
    {
      "nodes": [
        0
      ]
    }
  ],
  "nodes": [
    {
      "children": [
        1,
        2
      ],
      "scale": [
        1000.0,
        1000.0,
        1000.0
      ],
      "name": "root"
    },
    {
      "mesh": 0,
      "translation": [
        1.90734872E-09,
        0.0191113576,
        -2.97931346E-09
      ],
      "rotation": [
        0.0,
        0.7071068,
        0.0,
        0.7071067
      ],
      "name": "CT31_ladder_A"
    },
    {
      "mesh": 1,
      "translation": [
        1.90734872E-09,
        0.0191113576,
        -2.97931346E-09
      ],
      "rotation": [
        0.0,
        0.7071068,
        0.0,
        0.7071067
      ],
      "name": "CT31__1__CT31"
    }
  ],
  "meshes": [
    {
      "primitives": [
        {
          "attributes": {
            "POSITION": 1,
            "NORMAL": 2,
            "TEXCOORD_0": 3
          },
          "indices": 0,
          "material": 0
        }
      ],
      "name": "CT31_ladder_A"
    },
    {
      "primitives": [
        {
          "attributes": {
            "POSITION": 5,
            "NORMAL": 6,
            "TEXCOORD_0": 7
          },
          "indices": 4,
          "material": 1
        }
      ],
      "name": "CT31__1__CT31"
    }
  ],
  "accessors": [
    {
      "bufferView": 0,
      "componentType": 5123,
      "count": 216,
      "type": "SCALAR",
      "name": "accessorIndices"
    },
    {
      "bufferView": 1,
      "componentType": 5126,
      "count": 208,
      "max": [
        -0.008050563,
        0.01829556,
        -0.04215464
      ],
      "min": [
        -0.0132386955,
        -0.0191113558,
        -0.0476571023
      ],
      "type": "VEC3",
      "name": "accessorPositions"
    },
    {
      "bufferView": 1,
      "byteOffset": 2496,
      "componentType": 5126,
      "count": 208,
      "type": "VEC3",
      "name": "accessorNormals"
    },
    {
      "bufferView": 2,
      "componentType": 5126,
      "count": 208,
      "type": "VEC2",
      "name": "accessorUVs"
    },
    {
      "bufferView": 0,
      "byteOffset": 432,
      "componentType": 5123,
      "count": 5040,
      "type": "SCALAR",
      "name": "accessorIndices"
    },
    {
      "bufferView": 1,
      "byteOffset": 4992,
      "componentType": 5126,
      "count": 1994,
      "max": [
        0.0180878881,
        0.0191113576,
        0.0476571
      ],
      "min": [
        -0.0180878974,
        -0.01911136,
        -0.0448927581
      ],
      "type": "VEC3",
      "name": "accessorPositions"
    },
    {
      "bufferView": 1,
      "byteOffset": 28920,
      "componentType": 5126,
      "count": 1994,
      "type": "VEC3",
      "name": "accessorNormals"
    },
    {
      "bufferView": 2,
      "byteOffset": 1664,
      "componentType": 5126,
      "count": 1994,
      "type": "VEC2",
      "name": "accessorUVs"
    }
  ],
  "bufferViews": [
    {
      "buffer": 0,
      "byteLength": 10512,
      "name": "bufferViewScalar"
    },
    {
      "buffer": 0,
      "byteOffset": 10512,
      "byteLength": 52848,
      "byteStride": 12,
      "name": "bufferViewFloatVec3"
    },
    {
      "buffer": 0,
      "byteOffset": 63360,
      "byteLength": 17616,
      "byteStride": 8,
      "name": "bufferViewFloatVec2"
    }
  ],
  "buffers": [
    {
      "uri": "CoolingTower02.bin",
      "byteLength": 80976
    }
  ],
  "materials": [
    {
      "pbrMetallicRoughness": {
        "baseColorTexture": {
          "index": 0
        },
        "metallicFactor": 0.0,
        "roughnessFactor": 0.450053632
      },
      "name": "Material #27"
    },
    {
      "pbrMetallicRoughness": {
        "baseColorTexture": {
          "index": 1
        },
        "metallicFactor": 0.0,
        "roughnessFactor": 0.450053632
      },
      "name": "Material #26"
    }
  ],
  "textures": [
    {
      "sampler": 0,
      "source": 0,
      "name": "MOF_ladder_A.png"
    },
    {
      "sampler": 0,
      "source": 1,
      "name": "CT31CompleteMap.jpg"
    }
  ],
  "images": [
    {
      "uri": "textures/MOF_ladder_A.png"
    },
    {
      "uri": "textures/CT31CompleteMap.jpg"
    }
  ],
  "samplers": [
    {
      "magFilter": 9729,
      "minFilter": 9987
    }
  ]
}