{"asset":{"version":"2.0","generator":"babylon.js glTF exporter for 3dsmax 2020 v20221031.2"},"scene":0,"scenes":[{"nodes":[0]}],"nodes":[{"children":[1],"scale":[1000.0,1000.0,1000.0],"name":"root"},{"mesh":0,"translation":[0.0,9.536744E-10,0.0],"rotation":[0.0,-0.7071068,0.0,0.7071067],"name":"MeetingSofa"}],"meshes":[{"primitives":[{"attributes":{"POSITION":1,"NORMAL":2,"TEXCOORD_0":3},"indices":0,"material":0}],"name":"MeetingSofa"}],"accessors":[{"bufferView":0,"componentType":5123,"count":726,"type":"SCALAR","name":"accessorIndices"},{"bufferView":1,"componentType":5126,"count":395,"max":[0.00739999674,0.0300000012,0.004850006],"min":[-0.00740001071,-3.81469745E-09,-0.00484999875],"type":"VEC3","name":"accessorPositions"},{"bufferView":1,"byteOffset":4740,"componentType":5126,"count":395,"type":"VEC3","name":"accessorNormals"},{"bufferView":2,"componentType":5126,"count":395,"type":"VEC2","name":"accessorUVs"}],"bufferViews":[{"buffer":0,"byteLength":1452,"name":"bufferViewScalar"},{"buffer":0,"byteOffset":1452,"byteLength":9480,"byteStride":12,"name":"bufferViewFloatVec3"},{"buffer":0,"byteOffset":10932,"byteLength":3160,"byteStride":8,"name":"bufferViewFloatVec2"}],"buffers":[{"uri":"MeetingSofa.bin","byteLength":14092}],"materials":[{"pbrMetallicRoughness":{"baseColorTexture":{"index":0},"metallicFactor":0.0,"roughnessFactor":0.450053632},"name":"Material #25192277"}],"textures":[{"sampler":0,"source":0,"name":"MeetingSofa.jpg"}],"images":[{"uri":"textures/MeetingSofa.jpg"}],"samplers":[{"magFilter":9729,"minFilter":9987}]}