{
  "asset": {
    "version": "2.0",
    "generator": "babylon.js glTF exporter for 3dsmax 2023 v20240312.5"
  },
  "scene": 0,
  "scenes": [
    {
      "nodes": [
        0
      ]
    }
  ],
  "nodes": [
    {
      "children": [
        1
      ],
      "scale": [
        1000.0,
        1000.0,
        1000.0
      ],
      "name": "root"
    },
    {
      "mesh": 0,
      "translation": [
        0.0,
        2.98023224E-08,
        0.0
      ],
      "name": "Pump"
    }
  ],
  "meshes": [
    {
      "primitives": [
        {
          "attributes": {
            "POSITION": 1,
            "NORMAL": 2,
            "TEXCOORD_0": 3
          },
          "indices": 0,
          "material": 0
        }
      ],
      "name": "Pump"
    }
  ],
  "accessors": [
    {
      "bufferView": 0,
      "componentType": 5123,
      "count": 6090,
      "type": "SCALAR",
      "name": "accessorIndices"
    },
    {
      "bufferView": 1,
      "componentType": 5126,
      "count": 6090,
      "max": [
        0.0009304706,
        0.00161400065,
        0.000770472863
      ],
      "min": [
        -0.0009304706,
        -0.00161400065,
        -0.000770472863
      ],
      "type": "VEC3",
      "name": "accessorPositions"
    },
    {
      "bufferView": 1,
      "byteOffset": 73080,
      "componentType": 5126,
      "count": 6090,
      "type": "VEC3",
      "name": "accessorNormals"
    },
    {
      "bufferView": 2,
      "componentType": 5126,
      "count": 6090,
      "type": "VEC2",
      "name": "accessorUVs"
    }
  ],
  "bufferViews": [
    {
      "buffer": 0,
      "byteLength": 12180,
      "name": "bufferViewScalar"
    },
    {
      "buffer": 0,
      "byteOffset": 12180,
      "byteLength": 146160,
      "byteStride": 12,
      "name": "bufferViewFloatVec3"
    },
    {
      "buffer": 0,
      "byteOffset": 158340,
      "byteLength": 48720,
      "byteStride": 8,
      "name": "bufferViewFloatVec2"
    }
  ],
  "buffers": [
    {
      "uri": "Pump.bin",
      "byteLength": 207060
    }
  ],
  "materials": [
    {
      "pbrMetallicRoughness": {
        "baseColorTexture": {
          "index": 0
        },
        "metallicFactor": 0.0
      },
      "name": "Pump",
      "extras": {
        "babylonSeparateCullingPass": false
      }
    }
  ],
  "textures": [
    {
      "sampler": 0,
      "source": 0,
      "name": "Pump.jpg"
    }
  ],
  "images": [
    {
      "uri": "textures/Pump.jpg"
    }
  ],
  "samplers": [
    {
      "magFilter": 9729,
      "minFilter": 9987
    }
  ]
}