{"asset":{"version":"2.0","generator":"babylon.js glTF exporter for 3dsmax 2020 v20221031.2"},"scene":0,"scenes":[{"nodes":[0]}],"nodes":[{"children":[1],"scale":[1000.0,1000.0,1000.0],"name":"root"},{"mesh":0,"name":"IAQone"}],"meshes":[{"primitives":[{"attributes":{"POSITION":1,"NORMAL":2,"TEXCOORD_0":3},"indices":0,"material":0}],"name":"IAQone"}],"accessors":[{"bufferView":0,"componentType":5123,"count":492,"type":"SCALAR","name":"accessorIndices"},{"bufferView":1,"componentType":5126,"count":177,"max":[0.00071,0.000340000144,0.000419999938],"min":[-0.00071,-0.000340000144,-1.04308132E-10],"type":"VEC3","name":"accessorPositions"},{"bufferView":1,"byteOffset":2124,"componentType":5126,"count":177,"type":"VEC3","name":"accessorNormals"},{"bufferView":2,"componentType":5126,"count":177,"type":"VEC2","name":"accessorUVs"}],"bufferViews":[{"buffer":0,"byteLength":984,"name":"bufferViewScalar"},{"buffer":0,"byteOffset":984,"byteLength":4248,"byteStride":12,"name":"bufferViewFloatVec3"},{"buffer":0,"byteOffset":5232,"byteLength":1416,"byteStride":8,"name":"bufferViewFloatVec2"}],"buffers":[{"uri":"IAQone.bin","byteLength":6648}],"materials":[{"pbrMetallicRoughness":{"baseColorTexture":{"index":0},"metallicFactor":0.0,"roughnessFactor":0.450053632},"name":"Material #25192306"}],"textures":[{"sampler":0,"source":0,"name":"IAQone.jpg"}],"images":[{"uri":"textures/IAQone.jpg"}],"samplers":[{"magFilter":9729,"minFilter":9987}]}